{
.appVersion = "1352";
copyright = "Copyright 2008-2021 The Fleur De Leah Project Authors (https://github.com/googlefonts/fleurdeleah)";
customParameters = (
{
name = licenseURL;
value = "https://scripts.sil.org/OFL";
},
{
name = license;
value = "This Font Software is licensed under the SIL Open Font License, Version 1.1. This license is available with a FAQ at: https://scripts.sil.org/OFL";
},
{
name = panose;
value = (
2,
0,
5,
7,
4,
0,
0,
2,
0,
2
);
},
{
name = "Disable Subroutines";
value = 1;
},
{
name = glyphOrder;
value = (
.notdef,
CR,
NULL,
space,
nbspace
);
},
{
name = fsType;
value = (
);
},
{
name = "Use Typo Metrics";
value = 1;
},
{
name = Axes;
value = (
{
Name = Weight;
Tag = wght;
}
);
}
);
date = "2021-08-20 19:38:45 +0000";
designer = "Robert E. Leuschke";
designerURL = www.typesetit.com;
disablesAutomaticAlignment = 1;
disablesNiceNames = 1;
familyName = "Fleur De Leah";
featurePrefixes = (
{
automatic = 1;
code = "languagesystem DFLT dflt;\012\012languagesystem latn dflt;\012languagesystem latn AZE;\012languagesystem latn CRT;\012languagesystem latn KAZ;\012languagesystem latn TAT;\012languagesystem latn TRK;\012languagesystem latn ROM;\012languagesystem latn MOL;\012languagesystem latn CAT;\012";
name = Languagesystems;
}
);
features = (
{
automatic = 1;
code = "feature locl;\012feature sups;\012feature frac;\012feature ordn;\012";
name = aalt;
},
{
automatic = 1;

glyphs = (
{
glyphname = .notdef;
lastChange = "2021-04-20 17:37:48 +0000";
layers = (
{
layerId = "2072D606-CE9C-4455-8FDE-AAFE9455DC77";
paths = (
{
closed = 1;
nodes = (
"379 0 LINE",
"379 650 LINE",
"50 650 LINE",
"50 0 LINE"
);
},
{
closed = 1;
nodes = (
"212 287 LINE",
"309 64 LINE",
"115 64 LINE"
);
},
{
closed = 1;
nodes = (
"104 534 LINE",
"193 330 LINE",
"104 129 LINE"
);
},
{
closed = 1;
nodes = (
"231 330 LINE",
"321 537 LINE",
"321 127 LINE"
);
},
{
closed = 1;
nodes = (
"119 584 LINE",
"305 584 LINE",
"212 374 LINE"
);
}
);
width = 429;
}
);
note = .notdef;
},
{
glyphname = A;
lastChange = "2021-04-20 17:37:48 +0000";
layers = (
{
hints = (
{
horizontal = 1;
place = "{-63, 52}";
type = Stem;
},
{
horizontal = 1;
place = "{625, 22}";
type = Stem;
}
);
layerId = "2072D606-CE9C-4455-8FDE-AAFE9455DC77";
paths = (
{
closed = 1;
nodes = (
"1090 549 OFFCURVE",
"1133 562 OFFCURVE",
"1176 562 CURVE SMOOTH",
"1245 562 OFFCURVE",
"1251 468 OFFCURVE",
"1150 483 CURVE SMOOTH",
"1143 484 OFFCURVE",
"1130 489 OFFCURVE",
"1114 497 CURVE",
"1134 519 OFFCURVE",
"1149 534 OFFCURVE",
"1155 541 CURVE",
"1149 548 LINE",
"1132 534 OFFCURVE",
"1115 519 OFFCURVE",
"1099 504 CURVE",
"1083 511 OFFCURVE",
"1066 520 OFFCURVE",
"1049 529 CURVE"
);
},
{
closed = 1;
nodes = (
"1013 421 OFFCURVE",
"948 343 OFFCURVE",
"886 266 CURVE",
"755 266 LINE",
"827 348 OFFCURVE",
"923 459 OFFCURVE",
"1031 519 CURVE",
"1049 509 OFFCURVE",
"1067 499 OFFCURVE",
"1085 490 CURVE"
);
},
{
closed = 1;
nodes = (
"349 -121 OFFCURVE",
"353 -107 OFFCURVE",
"361 -94 CURVE SMOOTH",
"368 -82 OFFCURVE",
"378 -72 OFFCURVE",
"390 -65 CURVE",
"390 -65 LINE",
"390 -65 LINE",
"390 -64 LINE",
"390 -64 LINE",
"391 -64 LINE",
"391 -64 LINE",
"391 -64 LINE",
"391 -64 LINE",
"391 -64 LINE",
"391 -64 LINE",
"392 -64 LINE",
"392 -63 LINE",
"392 -63 LINE",
"392 -63 LINE",
"479 -6 OFFCURVE",
"593 86 OFFCURVE",
"740 250 CURVE",
"872 250 LINE",
"866 244 OFFCURVE",
"863 239 OFFCURVE",
"860 232 CURVE",
"792 139 OFFCURVE",
"673 -22 OFFCURVE",
"581 -2 CURVE",
"584 -11 LINE",
"687 -11 OFFCURVE",
"765 -61 OFFCURVE",
"839 -62 CURVE SMOOTH",
"888 -63 OFFCURVE",
"943 -30 OFFCURVE",
"897 44 CURVE",
"888 42 LINE",
"915 -27 OFFCURVE",
"796 -14 OFFCURVE",
"761 -10 CURVE SMOOTH",
"736 -7 OFFCURVE",
"650 -2 OFFCURVE",
"650 -2 CURVE",
"778 28 OFFCURVE",
"903 150 OFFCURVE",
"964 264 CURVE SMOOTH",
"991 313 OFFCURVE",
"1032 399 OFFCURVE",
"1067 442 CURVE SMOOTH",
"1079 457 OFFCURVE",
"1091 470 OFFCURVE",
"1101 482 CURVE",
"1126 471 OFFCURVE",
"1147 462 OFFCURVE",
"1158 461 CURVE SMOOTH",
"1298 451 OFFCURVE",
"1281 578 OFFCURVE",
"1176 578 CURVE SMOOTH",
"1125 578 OFFCURVE",
"1076 563 OFFCURVE",
"1031 538 CURVE",
"999 555 OFFCURVE",
"971 571 OFFCURVE",
"960 577 CURVE SMOOTH",
"926 596 OFFCURVE",
"868 623 OFFCURVE",
"805 641 CURVE",
"786 651 OFFCURVE",
"783 684 OFFCURVE",
"796 689 CURVE SMOOTH",
"814 696 OFFCURVE",
"779 705 OFFCURVE",
"770 685 CURVE SMOOTH",
"764 672 OFFCURVE",
"770 658 OFFCURVE",
"780 648 CURVE",
"747 656 OFFCURVE",
"714 662 OFFCURVE",
"683 662 CURVE SMOOTH",
"564 662 OFFCURVE",
"484 605 OFFCURVE",
"447 535 CURVE",
"434 519 OFFCURVE",
"423 515 OFFCURVE",
"406 513 CURVE",
"397 542 OFFCURVE",
"361 551 OFFCURVE",
"335 542 CURVE SMOOTH",
"310 533 OFFCURVE",
"298 519 OFFCURVE",
"287 508 CURVE SMOOTH",
"273 493 OFFCURVE",
"238 478 OFFCURVE",
"224 501 CURVE",
"221 499 OFFCURVE",
"217 493 OFFCURVE",
"223 480 CURVE SMOOTH",
"238 445 OFFCURVE",
"311 430 OFFCURVE",
"350 440 CURVE SMOOTH",
"386 450 OFFCURVE",
"408 479 OFFCURVE",
"407 503 CURVE",
"419 504 OFFCURVE",
"427 507 OFFCURVE",
"436 511 CURVE",
"393 402 OFFCURVE",
"448 274 OFFCURVE",
"612 274 CURVE SMOOTH",
"733 274 OFFCURVE",
"800 353 OFFCURVE",
"800 424 CURVE SMOOTH",
"800 480 OFFCURVE",
"771 526 OFFCURVE",
"715 539 CURVE",
"708 560 OFFCURVE",
"690 581 OFFCURVE",
"657 580 CURVE SMOOTH",
"633 579 OFFCURVE",
"602 559 OFFCURVE",
"580 536 CURVE SMOOTH",
"567 523 OFFCURVE",
"542 516 OFFCURVE",
"531 524 CURVE SMOOTH",
"523 530 OFFCURVE",
"519 535 OFFCURVE",
"519 527 CURVE SMOOTH",
"519 508 OFFCURVE",
"533 495 OFFCURVE",
"551 491 CURVE SMOOTH",
"581 485 OFFCURVE",
"623 497 OFFCURVE",
"637 508 CURVE",
"638 510 OFFCURVE",
"640 511 OFFCURVE",
"642 512 CURVE",
"639 506 OFFCURVE",
"639 499 OFFCURVE",
"642 493 CURVE SMOOTH",
"646 486 OFFCURVE",
"652 480 OFFCURVE",
"658 479 CURVE SMOOTH",
"665 477 OFFCURVE",
"668 483 OFFCURVE",
"663 487 CURVE SMOOTH",
"648 497 OFFCURVE",
"660 522 OFFCURVE",
"678 529 CURVE SMOOTH",
"684 531 OFFCURVE",
"690 531 OFFCURVE",
"696 531 CURVE",
"757 523 OFFCURVE",
"784 471 OFFCURVE",
"784 424 CURVE SMOOTH",
"784 370 OFFCURVE",
"737 305 OFFCURVE",
"645 292 CURVE",
"658 297 OFFCURVE",
"669 306 OFFCURVE",
"676 317 CURVE SMOOTH",
"690 341 OFFCURVE",
"681 368 OFFCURVE",
"654 366 CURVE SMOOTH",
"643 365 OFFCURVE",
"639 358 OFFCURVE",
"647 356 CURVE SMOOTH",
"657 353 OFFCURVE",
"659 336 OFFCURVE",
"655 322 CURVE SMOOTH",
"652 313 OFFCURVE",
"643 297 OFFCURVE",
"630 291 CURVE",
"624 290 OFFCURVE",
"618 290 OFFCURVE",
"612 290 CURVE SMOOTH",
"386 290 OFFCURVE",
"422 638 OFFCURVE",
"678 638 CURVE SMOOTH",
"775 638 OFFCURVE",
"898 592 OFFCURVE",
"952 563 CURVE SMOOTH",
"965 556 OFFCURVE",
"987 543 OFFCURVE",
"1013 528 CURVE",
"945 488 OFFCURVE",
"884 429 OFFCURVE",
"834 376 CURVE SMOOTH",
"784 325 OFFCURVE",
"723 255 OFFCURVE",
"656 184 CURVE",
"642 173 OFFCURVE",
"629 169 OFFCURVE",
"614 169 CURVE",
"618 190 OFFCURVE",
"603 212 OFFCURVE",
"584 221 CURVE SMOOTH",
"562 230 OFFCURVE",
"546 229 OFFCURVE",
"533 228 CURVE SMOOTH",
"515 228 OFFCURVE",
"484 239 OFFCURVE",
"489 263 CURVE",
"486 263 OFFCURVE",
"480 261 OFFCURVE",
"476 249 CURVE SMOOTH",
"464 219 OFFCURVE",
"500 165 OFFCURVE",
"531 148 CURVE SMOOTH",
"563 131 OFFCURVE",
"597 138 OFFCURVE",
"609 157 CURVE",
"609 158 LINE",
"619 158 OFFCURVE",
"626 159 OFFCURVE",
"633 161 CURVE",
"512 36 OFFCURVE",
"374 -84 OFFCURVE",
"248 -100 CURVE",
"248 -100 OFFCURVE",
"248 -100 OFFCURVE",
"246 -100 CURVE SMOOTH",
"227 -102 OFFCURVE",
"214 -89 OFFCURVE",
"209 -80 CURVE SMOOTH",
"201 -67 OFFCURVE",
"201 -51 OFFCURVE",
"210 -46 CURVE SMOOTH",
"230 -35 OFFCURVE",
"186 -31 OFFCURVE",
"180 -55 CURVE SMOOTH",
"174 -75 OFFCURVE",
"192 -95 OFFCURVE",
"216 -102 CURVE",
"-69 -97 OFFCURVE",
"39 306 OFFCURVE",
"285 306 CURVE SMOOTH",
"366 306 OFFCURVE",
"391 260 OFFCURVE",
"391 207 CURVE SMOOTH",
"391 135 OFFCURVE",
"310 49 OFFCURVE",
"221 66 CURVE",
"240 76 OFFCURVE",
"246 102 OFFCURVE",
"240 121 CURVE SMOOTH",
"233 142 OFFCURVE",
"222 153 OFFCURVE",
"213 162 CURVE SMOOTH",
"201 174 OFFCURVE",
"190 203 OFFCURVE",
"210 214 CURVE",
"208 216 OFFCURVE",
"202 220 OFFCURVE",
"192 216 CURVE SMOOTH",
"163 204 OFFCURVE",
"148 144 OFFCURVE",
"155 112 CURVE SMOOTH",
"161 86 OFFCURVE",
"179 69 OFFCURVE",
"196 64 CURVE",
"197 63 OFFCURVE",
"199 63 OFFCURVE",
"200 62 CURVE",
"309 22 OFFCURVE",
"416 119 OFFCURVE",
"416 206 CURVE SMOOTH",
"416 266 OFFCURVE",
"377 322 OFFCURVE",
"285 322 CURVE SMOOTH",
"231 322 OFFCURVE",
"161 297 OFFCURVE",
"105 252 CURVE",
"110 262 OFFCURVE",
"113 273 OFFCURVE",
"114 284 CURVE SMOOTH",
"114 319 OFFCURVE",
"89 342 OFFCURVE",
"61 322 CURVE SMOOTH",
"50 315 OFFCURVE",
"50 305 OFFCURVE",
"60 308 CURVE SMOOTH",
"72 311 OFFCURVE",
"84 295 OFFCURVE",
"88 277 CURVE SMOOTH",
"91 266 OFFCURVE",
"89 246 OFFCURVE",
"81 231 CURVE",
"39 189 OFFCURVE",
"10 133 OFFCURVE",
"10 67 CURVE SMOOTH",
"10 -61 OFFCURVE",
"99 -118 OFFCURVE",
"220 -118 CURVE SMOOTH",
"259 -118 OFFCURVE",
"303 -109 OFFCURVE",
"353 -84 CURVE",
"352 -86 OFFCURVE",
"350 -89 OFFCURVE",
"349 -91 CURVE SMOOTH",
"342 -105 OFFCURVE",
"339 -121 OFFCURVE",
"342 -136 CURVE",
"326 -150 OFFCURVE",
"322 -183 OFFCURVE",
"341 -210 CURVE SMOOTH",
"360 -238 OFFCURVE",
"415 -267 OFFCURVE",
"443 -253 CURVE SMOOTH",
"453 -248 OFFCURVE",
"454 -241 OFFCURVE",
"454 -239 CURVE",
"432 -246 OFFCURVE",
"418 -218 OFFCURVE",
"417 -201 CURVE SMOOTH",
"416 -188 OFFCURVE",
"416 -173 OFFCURVE",
"405 -154 CURVE SMOOTH",
"395 -136 OFFCURVE",
"370 -123 OFFCURVE",
"350 -132 CURVE"
);
}
);
width = 888;
}
);
note = A;
unicode = 0041;
},
{
color = 11;
glyphname = Aacute;
lastChange = "2021-07-08 20:43:58 +0000";
layers = (
{
hints = (
{
horizontal = 1;
place = "{-63, 52}";
type = Stem;
},
{
horizontal = 1;
place = "{625, 22}";
type = Stem;
},
{
horizontal = 1;
place = "{468, 10}";
type = Stem;
}
);
layerId = "2072D606-CE9C-4455-8FDE-AAFE9455DC77";
paths = (
{
closed = 1;
nodes = (
"1090 549 OFFCURVE",
"1133 562 OFFCURVE",
"1176 562 CURVE SMOOTH",
"1245 562 OFFCURVE",
"1251 468 OFFCURVE",
"1150 483 CURVE SMOOTH",
"1143 484 OFFCURVE",
"1130 489 OFFCURVE",
"1114 497 CURVE",
"1134 519 OFFCURVE",
"1149 534 OFFCURVE",
"1155 541 CURVE",
"1149 548 LINE",
"1132 534 OFFCURVE",
"1115 519 OFFCURVE",
"1099 504 CURVE",
"1083 511 OFFCURVE",
"1066 520 OFFCURVE",
"1049 529 CURVE"
);
},
{
closed = 1;
nodes = (
"1013 421 OFFCURVE",
"948 343 OFFCURVE",
"886 266 CURVE",
"755 266 LINE",
"827 348 OFFCURVE",
"923 459 OFFCURVE",
"1031 519 CURVE",
"1049 509 OFFCURVE",
"1067 499 OFFCURVE",
"1085 490 CURVE"
);
},
{
closed = 1;
nodes = (
"349 -121 OFFCURVE",
"353 -107 OFFCURVE",
"361 -94 CURVE SMOOTH",
"368 -82 OFFCURVE",
"378 -72 OFFCURVE",
"390 -65 CURVE",
"390 -65 LINE",
"390 -65 LINE",
"390 -64 LINE",
"390 -64 LINE",
"391 -64 LINE",
"391 -64 LINE",
"391 -64 LINE",
"391 -64 LINE",
"391 -64 LINE",
"391 -64 LINE",
"392 -64 LINE",
"392 -63 LINE",
"392 -63 LINE",
"392 -63 LINE",
"479 -6 OFFCURVE",
"593 86 OFFCURVE",
"740 250 CURVE",
"872 250 LINE",
"866 244 OFFCURVE",
"863 239 OFFCURVE",
"860 232 CURVE",
"792 139 OFFCURVE",
"673 -22 OFFCURVE",
"581 -2 CURVE",
"584 -11 LINE",
"687 -11 OFFCURVE",
"765 -61 OFFCURVE",
"839 -62 CURVE SMOOTH",
"888 -63 OFFCURVE",
"943 -30 OFFCURVE",
"897 44 CURVE",
"888 42 LINE",
"915 -27 OFFCURVE",
"796 -14 OFFCURVE",
"761 -10 CURVE SMOOTH",
"736 -7 OFFCURVE",
"650 -2 OFFCURVE",
"650 -2 CURVE",
"778 28 OFFCURVE",
"903 150 OFFCURVE",
"964 264 CURVE SMOOTH",
"991 313 OFFCURVE",
"1032 399 OFFCURVE",
"1067 442 CURVE SMOOTH",
"1079 457 OFFCURVE",
"1091 470 OFFCURVE",
"1101 482 CURVE",
"1126 471 OFFCURVE",
"1147 462 OFFCURVE",
"1158 461 CURVE SMOOTH",
"1298 451 OFFCURVE",
"1281 578 OFFCURVE",
"1176 578 CURVE SMOOTH",
"1125 578 OFFCURVE",
"1076 563 OFFCURVE",
"1031 538 CURVE",
"999 555 OFFCURVE",
"971 571 OFFCURVE",
"960 577 CURVE SMOOTH",
"926 596 OFFCURVE",
"868 623 OFFCURVE",
"805 641 CURVE",
"786 651 OFFCURVE",
"783 684 OFFCURVE",
"796 689 CURVE SMOOTH",
"814 696 OFFCURVE",
"779 705 OFFCURVE",
"770 685 CURVE SMOOTH",
"764 672 OFFCURVE",
"770 658 OFFCURVE",
"780 648 CURVE",
"747 656 OFFCURVE",
"714 662 OFFCURVE",
"683 662 CURVE SMOOTH",
"564 662 OFFCURVE",
"484 605 OFFCURVE",
"447 535 CURVE",
"434 519 OFFCURVE",
"423 515 OFFCURVE",
"406 513 CURVE",
"397 542 OFFCURVE",
"361 551 OFFCURVE",
"335 542 CURVE SMOOTH",
"310 533 OFFCURVE",
"298 519 OFFCURVE",
"287 508 CURVE SMOOTH",
"273 493 OFFCURVE",
"238 478 OFFCURVE",
"224 501 CURVE",
"221 499 OFFCURVE",
"217 493 OFFCURVE",
"223 480 CURVE SMOOTH",
"238 445 OFFCURVE",
"311 430 OFFCURVE",
"350 440 CURVE SMOOTH",
"386 450 OFFCURVE",
"408 479 OFFCURVE",
"407 503 CURVE",
"419 504 OFFCURVE",
"427 507 OFFCURVE",
"436 511 CURVE",
"393 402 OFFCURVE",
"448 274 OFFCURVE",
"612 274 CURVE SMOOTH",
"733 274 OFFCURVE",
"800 353 OFFCURVE",
"800 424 CURVE SMOOTH",
"800 480 OFFCURVE",
"771 526 OFFCURVE",
"715 539 CURVE",
"708 560 OFFCURVE",
"690 581 OFFCURVE",
"657 580 CURVE SMOOTH",
"633 579 OFFCURVE",
"602 559 OFFCURVE",
"580 536 CURVE SMOOTH",
"567 523 OFFCURVE",
"542 516 OFFCURVE",
"531 524 CURVE SMOOTH",
"523 530 OFFCURVE",
"519 535 OFFCURVE",
"519 527 CURVE SMOOTH",
"519 508 OFFCURVE",
"533 495 OFFCURVE",
"551 491 CURVE SMOOTH",
"581 485 OFFCURVE",
"623 497 OFFCURVE",
"637 508 CURVE",
"638 510 OFFCURVE",
"640 511 OFFCURVE",
"642 512 CURVE",
"639 506 OFFCURVE",
"639 499 OFFCURVE",
"642 493 CURVE SMOOTH",
"646 486 OFFCURVE",
"652 480 OFFCURVE",
"658 479 CURVE SMOOTH",
"665 477 OFFCURVE",
"668 483 OFFCURVE",
"663 487 CURVE SMOOTH",
"648 497 OFFCURVE",
"660 522 OFFCURVE",
"678 529 CURVE SMOOTH",
"684 531 OFFCURVE",
"690 531 OFFCURVE",
"696 531 CURVE",
"757 523 OFFCURVE",
"784 471 OFFCURVE",
"784 424 CURVE SMOOTH",
"784 370 OFFCURVE",
"737 305 OFFCURVE",
"645 292 CURVE",
"658 297 OFFCURVE",
"669 306 OFFCURVE",
"676 317 CURVE SMOOTH",
"690 341 OFFCURVE",
"681 368 OFFCURVE",
"654 366 CURVE SMOOTH",
"643 365 OFFCURVE",
"639 358 OFFCURVE",
"647 356 CURVE SMOOTH",
"657 353 OFFCURVE",
"659 336 OFFCURVE",
"655 322 CURVE SMOOTH",
"652 313 OFFCURVE",
"643 297 OFFCURVE",
"630 291 CURVE",
"624 290 OFFCURVE",
"618 290 OFFCURVE",
"612 290 CURVE SMOOTH",
"386 290 OFFCURVE",
"422 638 OFFCURVE",
"678 638 CURVE SMOOTH",
"775 638 OFFCURVE",
"898 592 OFFCURVE",
"952 563 CURVE SMOOTH",
"965 556 OFFCURVE",
"987 543 OFFCURVE",
"1013 528 CURVE",
"945 488 OFFCURVE",
"884 429 OFFCURVE",
"834 376 CURVE SMOOTH",
"784 325 OFFCURVE",
"723 255 OFFCURVE",
"656 184 CURVE",
"642 173 OFFCURVE",
"629 169 OFFCURVE",
"614 169 CURVE",
"618 190 OFFCURVE",
"603 212 OFFCURVE",
"584 221 CURVE SMOOTH",
"562 230 OFFCURVE",
"546 229 OFFCURVE",
"533 228 CURVE SMOOTH",
"515 228 OFFCURVE",
"484 239 OFFCURVE",
"489 263 CURVE",
"486 263 OFFCURVE",
"480 261 OFFCURVE",
"476 249 CURVE SMOOTH",
"464 219 OFFCURVE",
"500 165 OFFCURVE",
"531 148 CURVE SMOOTH",
"563 131 OFFCURVE",
"597 138 OFFCURVE",
"609 157 CURVE",
"609 158 LINE",
"619 158 OFFCURVE",
"626 159 OFFCURVE",
"633 161 CURVE",
"512 36 OFFCURVE",
"374 -84 OFFCURVE",
"248 -100 CURVE",
"248 -100 OFFCURVE",
"248 -100 OFFCURVE",
"246 -100 CURVE SMOOTH",
"227 -102 OFFCURVE",
"214 -89 OFFCURVE",
"209 -80 CURVE SMOOTH",
"201 -67 OFFCURVE",
"201 -51 OFFCURVE",
"210 -46 CURVE SMOOTH",
"230 -35 OFFCURVE",
"186 -31 OFFCURVE",
"180 -55 CURVE SMOOTH",
"174 -75 OFFCURVE",
"192 -95 OFFCURVE",
"216 -102 CURVE",
"-69 -97 OFFCURVE",
"39 306 OFFCURVE",
"285 306 CURVE SMOOTH",
"366 306 OFFCURVE",
"391 260 OFFCURVE",
"391 207 CURVE SMOOTH",
"391 135 OFFCURVE",
"310 49 OFFCURVE",
"221 66 CURVE",
"240 76 OFFCURVE",
"246 102 OFFCURVE",
"240 121 CURVE SMOOTH",
"233 142 OFFCURVE",
"222 153 OFFCURVE",
"213 162 CURVE SMOOTH",
"201 174 OFFCURVE",
"190 203 OFFCURVE",
"210 214 CURVE",
"208 216 OFFCURVE",
"202 220 OFFCURVE",
"192 216 CURVE SMOOTH",
"163 204 OFFCURVE",
"148 144 OFFCURVE",
"155 112 CURVE SMOOTH",
"161 86 OFFCURVE",
"179 69 OFFCURVE",
"196 64 CURVE",
"197 63 OFFCURVE",
"199 63 OFFCURVE",
"200 62 CURVE",
"309 22 OFFCURVE",
"416 119 OFFCURVE",
"416 206 CURVE SMOOTH",
"416 266 OFFCURVE",
"377 322 OFFCURVE",
"285 322 CURVE SMOOTH",
"231 322 OFFCURVE",
"161 297 OFFCURVE",
"105 252 CURVE",
"110 262 OFFCURVE",
"113 273 OFFCURVE",
"114 284 CURVE SMOOTH",
"114 319 OFFCURVE",
"89 342 OFFCURVE",
"61 322 CURVE SMOOTH",
"50 315 OFFCURVE",
"50 305 OFFCURVE",
"60 308 CURVE SMOOTH",
"72 311 OFFCURVE",
"84 295 OFFCURVE",
"88 277 CURVE SMOOTH",
"91 266 OFFCURVE",
"89 246 OFFCURVE",
"81 231 CURVE",
"39 189 OFFCURVE",
"10 133 OFFCURVE",
"10 67 CURVE SMOOTH",
"10 -61 OFFCURVE",
"99 -118 OFFCURVE",
"220 -118 CURVE SMOOTH",
"259 -118 OFFCURVE",
"303 -109 OFFCURVE",
"353 -84 CURVE",
"352 -86 OFFCURVE",
"350 -89 OFFCURVE",
"349 -91 CURVE SMOOTH",
"342 -105 OFFCURVE",
"339 -121 OFFCURVE",
"342 -136 CURVE",
"326 -150 OFFCURVE",
"322 -183 OFFCURVE",
"341 -210 CURVE SMOOTH",
"360 -238 OFFCURVE",
"415 -267 OFFCURVE",
"443 -253 CURVE SMOOTH",
"453 -248 OFFCURVE",
"454 -241 OFFCURVE",
"454 -239 CURVE",
"432 -246 OFFCURVE",
"418 -218 OFFCURVE",
"417 -201 CURVE SMOOTH",
"416 -188 OFFCURVE",
"416 -173 OFFCURVE",
"405 -154 CURVE SMOOTH",
"395 -136 OFFCURVE",
"370 -123 OFFCURVE",
"350 -132 CURVE"
);
},
{
closed = 1;
nodes = (
"1179 636 OFFCURVE",
"1275 689 OFFCURVE",
"1300 704 CURVE",
"1303 707 OFFCURVE",
"1306 709 OFFCURVE",
"1306 713 CURVE SMOOTH",
"1306 723 OFFCURVE",
"1293 732 OFFCURVE",
"1284 732 CURVE SMOOTH",
"1270 732 OFFCURVE",
"1182 658 OFFCURVE",
"1158 646 CURVE SMOOTH",
"1155 644 OFFCURVE",
"1150 644 OFFCURVE",
"1150 640 CURVE SMOOTH",
"1150 637 OFFCURVE",
"1153 636 OFFCURVE",
"1156 636 CURVE SMOOTH"
);
}
);
width = 857;
}
);
note = Aacute;
unicode = 00C1;
},
{
color = 11;
glyphname = Acircumflex;
lastChange = "2021-07-08 20:43:58 +0000";
layers = (
{
hints = (
{
horizontal = 1;
place = "{-256, 17}";
type = Stem;
},
{
horizontal = 1;
place = "{-136, 7}";
type = Stem;
},
{
horizontal = 1;
place = "{-2, 21}";
target = up;
type = BottomGhost;
},
{
horizontal = 1;
place = "{53, 13}";
type = Stem;
},
{
horizontal = 1;
place = "{158, 11}";
type = Stem;
},
{
horizontal = 1;
place = "{250, 16}";
type = Stem;
},
{
horizontal = 1;
place = "{306, 16}";
type = Stem;
},
{
horizontal = 1;
place = "{356, 10}";
type = Stem;
},
{
horizontal = 1;
place = "{437, 52}";
type = Stem;
},
{
horizontal = 1;
place = "{562, 16}";
type = Stem;
},
{
horizontal = 1;
place = "{638, 24}";
type = Stem;
},
{
horizontal = 1;
place = "{704, 27}";
type = Stem;
},
{
place = "{10, 36}";
type = Stem;
},
{
place = "{88, 26}";
type = Stem;
},
{
place = "{180, 23}";
type = Stem;
},
{
place = "{328, 22}";
type = Stem;
},
{
place = "{422, 40}";
type = Stem;
},
{
place = "{642, 14}";
type = Stem;
},
{
place = "{784, 16}";
type = Stem;
},
{
place = "{892, 22}";
type = Stem;
},
{
place = "{1227, 32}";
type = Stem;
},
{
horizontal = 1;
place = "{-11, 9}";
type = Stem;
},
{
horizontal = 1;
place = "{-62, 49}";
type = Stem;
},
{
horizontal = 1;
place = "{461, 22}";
type = Stem;
},
{
place = "{780, 8}";
type = Stem;
},
{
horizontal = 1;
place = "{503, 10}";
type = Stem;
},
{
horizontal = 1;
place = "{274, 16}";
type = Stem;
},
{
horizontal = 1;
place = "{531, 49}";
type = Stem;
},
{
horizontal = 1;
place = "{491, 30}";
type = Stem;
},
{
horizontal = 1;
place = "{-118, 16}";
type = Stem;
},
{
place = "{655, 27}";
type = Stem;
},
{
place = "{155, 44}";
type = Stem;
},
{
place = "{391, 25}";
type = Stem;
},
{
horizontal = 1;
place = "{308, 21}";
type = Stem;
},
{
horizontal = 1;
place = "{631, 30}";
type = Stem;
}
);
layerId = "2072D606-CE9C-4455-8FDE-AAFE9455DC77";
paths = (
{
closed = 1;
nodes = (
"1090 549 OFFCURVE",
"1133 562 OFFCURVE",
"1176 562 CURVE SMOOTH",
"1245 562 OFFCURVE",
"1251 468 OFFCURVE",
"1150 483 CURVE SMOOTH",
"1143 484 OFFCURVE",
"1130 489 OFFCURVE",
"1114 497 CURVE",
"1134 519 OFFCURVE",
"1149 534 OFFCURVE",
"1155 541 CURVE",
"1149 548 LINE",
"1132 534 OFFCURVE",
"1115 519 OFFCURVE",
"1099 504 CURVE",
"1083 511 OFFCURVE",
"1066 520 OFFCURVE",
"1049 529 CURVE"
);
},
{
closed = 1;
nodes = (
"1013 421 OFFCURVE",
"948 343 OFFCURVE",
"886 266 CURVE",
"755 266 LINE",
"827 348 OFFCURVE",
"923 459 OFFCURVE",
"1031 519 CURVE",
"1049 509 OFFCURVE",
"1067 499 OFFCURVE",
"1085 490 CURVE"
);
},
{
closed = 1;
nodes = (
"349 -121 OFFCURVE",
"353 -107 OFFCURVE",
"361 -94 CURVE SMOOTH",
"368 -82 OFFCURVE",
"378 -72 OFFCURVE",
"390 -65 CURVE",
"390 -65 LINE",
"390 -65 LINE",
"390 -64 LINE",
"390 -64 LINE",
"391 -64 LINE",
"391 -64 LINE",
"391 -64 LINE",
"391 -64 LINE",
"391 -64 LINE",
"391 -64 LINE",
"392 -64 LINE",
"392 -63 LINE",
"392 -63 LINE",
"392 -63 LINE",
"479 -6 OFFCURVE",
"593 86 OFFCURVE",
"740 250 CURVE",
"872 250 LINE",
"866 244 OFFCURVE",
"863 239 OFFCURVE",
"860 232 CURVE",
"792 139 OFFCURVE",
"673 -22 OFFCURVE",
"581 -2 CURVE",
"584 -11 LINE",
"687 -11 OFFCURVE",
"765 -61 OFFCURVE",
"839 -62 CURVE SMOOTH",
"888 -63 OFFCURVE",
"943 -30 OFFCURVE",
"897 44 CURVE",
"888 42 LINE",
"915 -27 OFFCURVE",
"796 -14 OFFCURVE",
"761 -10 CURVE SMOOTH",
"736 -7 OFFCURVE",
"650 -2 OFFCURVE",
"650 -2 CURVE",
"778 28 OFFCURVE",
"903 150 OFFCURVE",
"964 264 CURVE SMOOTH",
"991 313 OFFCURVE",
"1032 399 OFFCURVE",
"1067 442 CURVE SMOOTH",
"1079 457 OFFCURVE",
"1091 470 OFFCURVE",
"1101 482 CURVE",
"1126 471 OFFCURVE",
"1147 462 OFFCURVE",
"1158 461 CURVE SMOOTH",
"1298 451 OFFCURVE",
"1281 578 OFFCURVE",
"1176 578 CURVE SMOOTH",
"1125 578 OFFCURVE",
"1076 563 OFFCURVE",
"1031 538 CURVE",
"999 555 OFFCURVE",
"971 571 OFFCURVE",
"960 577 CURVE SMOOTH",
"926 596 OFFCURVE",
"868 623 OFFCURVE",
"805 641 CURVE",
"786 651 OFFCURVE",
"783 684 OFFCURVE",
"796 689 CURVE SMOOTH",
"814 696 OFFCURVE",
"779 705 OFFCURVE",
"770 685 CURVE SMOOTH",
"764 672 OFFCURVE",
"770 658 OFFCURVE",
"780 648 CURVE",
"747 656 OFFCURVE",
"714 662 OFFCURVE",
"683 662 CURVE SMOOTH",
"564 662 OFFCURVE",
"484 605 OFFCURVE",
"447 535 CURVE",
"434 519 OFFCURVE",
"423 515 OFFCURVE",
"406 513 CURVE",
"397 542 OFFCURVE",
"361 551 OFFCURVE",
"335 542 CURVE SMOOTH",
"310 533 OFFCURVE",
"298 519 OFFCURVE",
"287 508 CURVE SMOOTH",
"273 493 OFFCURVE",
"238 478 OFFCURVE",
"224 501 CURVE",
"221 499 OFFCURVE",
"217 493 OFFCURVE",
"223 480 CURVE SMOOTH",
"238 445 OFFCURVE",
"311 430 OFFCURVE",
"350 440 CURVE SMOOTH",
"386 450 OFFCURVE",
"408 479 OFFCURVE",
"407 503 CURVE",
"419 504 OFFCURVE",
"427 507 OFFCURVE",
"436 511 CURVE",
"393 402 OFFCURVE",
"448 274 OFFCURVE",
"612 274 CURVE SMOOTH",
"733 274 OFFCURVE",
"800 353 OFFCURVE",
"800 424 CURVE SMOOTH",
"800 480 OFFCURVE",
"771 526 OFFCURVE",
"715 539 CURVE",
"708 560 OFFCURVE",
"690 581 OFFCURVE",
"657 580 CURVE SMOOTH",
"633 579 OFFCURVE",
"602 559 OFFCURVE",
"580 536 CURVE SMOOTH",
"567 523 OFFCURVE",
"542 516 OFFCURVE",
"531 524 CURVE SMOOTH",
"523 530 OFFCURVE",
"519 535 OFFCURVE",
"519 527 CURVE SMOOTH",
"519 508 OFFCURVE",
"533 495 OFFCURVE",
"551 491 CURVE SMOOTH",
"581 485 OFFCURVE",
"623 497 OFFCURVE",
"637 508 CURVE",
"638 510 OFFCURVE",
"640 511 OFFCURVE",
"642 512 CURVE",
"639 506 OFFCURVE",
"639 499 OFFCURVE",
"642 493 CURVE SMOOTH",
"646 486 OFFCURVE",
"652 480 OFFCURVE",
"658 479 CURVE SMOOTH",
"665 477 OFFCURVE",
"668 483 OFFCURVE",
"663 487 CURVE SMOOTH",
"648 497 OFFCURVE",
"660 522 OFFCURVE",
"678 529 CURVE SMOOTH",
"684 531 OFFCURVE",
"690 531 OFFCURVE",
"696 531 CURVE",
"757 523 OFFCURVE",
"784 471 OFFCURVE",
"784 424 CURVE SMOOTH",
"784 370 OFFCURVE",
"737 305 OFFCURVE",
"645 292 CURVE",
"658 297 OFFCURVE",
"669 306 OFFCURVE",
"676 317 CURVE SMOOTH",
"690 341 OFFCURVE",
"681 368 OFFCURVE",
"654 366 CURVE SMOOTH",
"643 365 OFFCURVE",
"639 358 OFFCURVE",
"647 356 CURVE SMOOTH",
"657 353 OFFCURVE",
"659 336 OFFCURVE",
"655 322 CURVE SMOOTH",
"652 313 OFFCURVE",
"643 297 OFFCURVE",
"630 291 CURVE",
"624 290 OFFCURVE",
"618 290 OFFCURVE",
"612 290 CURVE SMOOTH",
"386 290 OFFCURVE",
"422 638 OFFCURVE",
"678 638 CURVE SMOOTH",
"775 638 OFFCURVE",
"898 592 OFFCURVE",
"952 563 CURVE SMOOTH",
"965 556 OFFCURVE",
"987 543 OFFCURVE",
"1013 528 CURVE",
"945 488 OFFCURVE",
"884 429 OFFCURVE",
"834 376 CURVE SMOOTH",
"784 325 OFFCURVE",
"723 255 OFFCURVE",
"656 184 CURVE",
"642 173 OFFCURVE",
"629 169 OFFCURVE",
"614 169 CURVE",
"618 190 OFFCURVE",
"603 212 OFFCURVE",
"584 221 CURVE SMOOTH",
"562 230 OFFCURVE",
"546 229 OFFCURVE",
"533 228 CURVE SMOOTH",
"515 228 OFFCURVE",
"484 239 OFFCURVE",
"489 263 CURVE",
"486 263 OFFCURVE",
"480 261 OFFCURVE",
"476 249 CURVE SMOOTH",
"464 219 OFFCURVE",
"500 165 OFFCURVE",
"531 148 CURVE SMOOTH",
"563 131 OFFCURVE",
"597 138 OFFCURVE",
"609 157 CURVE",
"609 158 LINE",
"619 158 OFFCURVE",
"626 159 OFFCURVE",
"633 161 CURVE",
"512 36 OFFCURVE",
"374 -84 OFFCURVE",
"248 -100 CURVE",
"248 -100 OFFCURVE",
"248 -100 OFFCURVE",
"246 -100 CURVE SMOOTH",
"227 -102 OFFCURVE",
"214 -89 OFFCURVE",
"209 -80 CURVE SMOOTH",
"201 -67 OFFCURVE",
"201 -51 OFFCURVE",
"210 -46 CURVE SMOOTH",
"230 -35 OFFCURVE",
"186 -31 OFFCURVE",
"180 -55 CURVE SMOOTH",
"174 -75 OFFCURVE",
"192 -95 OFFCURVE",
"216 -102 CURVE",
"-69 -97 OFFCURVE",
"39 306 OFFCURVE",
"285 306 CURVE SMOOTH",
"366 306 OFFCURVE",
"391 260 OFFCURVE",
"391 207 CURVE SMOOTH",
"391 135 OFFCURVE",
"310 49 OFFCURVE",
"221 66 CURVE",
"240 76 OFFCURVE",
"246 102 OFFCURVE",
"240 121 CURVE SMOOTH",
"233 142 OFFCURVE",
"222 153 OFFCURVE",
"213 162 CURVE SMOOTH",
"201 174 OFFCURVE",
"190 203 OFFCURVE",
"210 214 CURVE",
"208 216 OFFCURVE",
"202 220 OFFCURVE",
"192 216 CURVE SMOOTH",
"163 204 OFFCURVE",
"148 144 OFFCURVE",
"155 112 CURVE SMOOTH",
"161 86 OFFCURVE",
"179 69 OFFCURVE",
"196 64 CURVE",
"197 63 OFFCURVE",
"199 63 OFFCURVE",
"200 62 CURVE",
"309 22 OFFCURVE",
"416 119 OFFCURVE",
"416 206 CURVE SMOOTH",
"416 266 OFFCURVE",
"377 322 OFFCURVE",
"285 322 CURVE SMOOTH",
"231 322 OFFCURVE",
"161 297 OFFCURVE",
"105 252 CURVE",
"110 262 OFFCURVE",
"113 273 OFFCURVE",
"114 284 CURVE SMOOTH",
"114 319 OFFCURVE",
"89 342 OFFCURVE",
"61 322 CURVE SMOOTH",
"50 315 OFFCURVE",
"50 305 OFFCURVE",
"60 308 CURVE SMOOTH",
"72 311 OFFCURVE",
"84 295 OFFCURVE",
"88 277 CURVE SMOOTH",
"91 266 OFFCURVE",
"89 246 OFFCURVE",
"81 231 CURVE",
"39 189 OFFCURVE",
"10 133 OFFCURVE",
"10 67 CURVE SMOOTH",
"10 -61 OFFCURVE",
"99 -118 OFFCURVE",
"220 -118 CURVE SMOOTH",
"259 -118 OFFCURVE",
"303 -109 OFFCURVE",
"353 -84 CURVE",
"352 -86 OFFCURVE",
"350 -89 OFFCURVE",
"349 -91 CURVE SMOOTH",
"342 -105 OFFCURVE",
"339 -121 OFFCURVE",
"342 -136 CURVE",
"326 -150 OFFCURVE",
"322 -183 OFFCURVE",
"341 -210 CURVE SMOOTH",
"360 -238 OFFCURVE",
"415 -267 OFFCURVE",
"443 -253 CURVE SMOOTH",
"453 -248 OFFCURVE",
"454 -241 OFFCURVE",
"454 -239 CURVE",
"432 -246 OFFCURVE",
"418 -218 OFFCURVE",
"417 -201 CURVE SMOOTH",
"416 -188 OFFCURVE",
"416 -173 OFFCURVE",
"405 -154 CURVE SMOOTH",
"395 -136 OFFCURVE",
"370 -123 OFFCURVE",
"350 -132 CURVE"
);
},
{
closed = 1;
nodes = (
"1225 631 OFFCURVE",
"1248 650 OFFCURVE",
"1269 663 CURVE",
"1270 664 OFFCURVE",
"1274 668 OFFCURVE",
"1274 669 CURVE SMOOTH",
"1274 670 OFFCURVE",
"1273 670 OFFCURVE",
"1272 670 CURVE SMOOTH",
"1265 670 OFFCURVE",
"1243 661 OFFCURVE",
"1225 661 CURVE SMOOTH",
"1164 661 OFFCURVE",
"1164 731 OFFCURVE",
"1140 731 CURVE SMOOTH",
"1134 731 OFFCURVE",
"1130 728 OFFCURVE",
"1125 725 CURVE SMOOTH",
"1098 706 OFFCURVE",
"1070 688 OFFCURVE",
"1041 670 CURVE SMOOTH",
"1033 665 OFFCURVE",
"1010 654 OFFCURVE",
"1004 648 CURVE SMOOTH",
"1003 647 OFFCURVE",
"1002 646 OFFCURVE",
"1002 645 CURVE SMOOTH",
"1002 641 OFFCURVE",
"1008 639 OFFCURVE",
"1011 639 CURVE SMOOTH",
"1019 639 OFFCURVE",
"1101 704 OFFCURVE",
"1113 704 CURVE SMOOTH",
"1142 704 OFFCURVE",
"1148 631 OFFCURVE",
"1198 631 CURVE SMOOTH"
);
}
);
width = 857;
}
);
note = Acircumflex;
unicode = 00C2;
},
{
color = 11;
glyphname = Adieresis;
lastChange = "2021-07-08 20:43:58 +0000";
layers = (
{
hints = (
{
horizontal = 1;
place = "{-63, 52}";
type = Stem;
},
{
horizontal = 1;
place = "{625, 22}";
type = Stem;
},
{
horizontal = 1;
place = "{613, 66}";
type = Stem;
},
{
place = "{1092, 66}";
type = Stem;
},
{
place = "{1221, 66}";
type = Stem;
}
);
layerId = "2072D606-CE9C-4455-8FDE-AAFE9455DC77";
paths = (
{
closed = 1;
nodes = (
"1090 549 OFFCURVE",
"1133 562 OFFCURVE",
"1176 562 CURVE SMOOTH",
"1245 562 OFFCURVE",
"1251 468 OFFCURVE",
"1150 483 CURVE SMOOTH",
"1143 484 OFFCURVE",
"1130 489 OFFCURVE",
"1114 497 CURVE",
"1134 519 OFFCURVE",
"1149 534 OFFCURVE",
"1155 541 CURVE",
"1149 548 LINE",
"1132 534 OFFCURVE",
"1115 519 OFFCURVE",
"1099 504 CURVE",
"1083 511 OFFCURVE",
"1066 520 OFFCURVE",
"1049 529 CURVE"
);
},
{
closed = 1;
nodes = (
"1013 421 OFFCURVE",
"948 343 OFFCURVE",
"886 266 CURVE",
"755 266 LINE",
"827 348 OFFCURVE",
"923 459 OFFCURVE",
"1031 519 CURVE",
"1049 509 OFFCURVE",
"1067 499 OFFCURVE",
"1085 490 CURVE"
);
},
{
closed = 1;
nodes = (
"349 -121 OFFCURVE",
"353 -107 OFFCURVE",
"361 -94 CURVE SMOOTH",
"368 -82 OFFCURVE",
"378 -72 OFFCURVE",
"390 -65 CURVE",
"390 -65 LINE",
"390 -65 LINE",
"390 -64 LINE",
"390 -64 LINE",
"391 -64 LINE",
"391 -64 LINE",
"391 -64 LINE",
"391 -64 LINE",
"391 -64 LINE",
"391 -64 LINE",
"392 -64 LINE",
"392 -63 LINE",
"392 -63 LINE",
"392 -63 LINE",
"479 -6 OFFCURVE",
"593 86 OFFCURVE",
"740 250 CURVE",
"872 250 LINE",
"866 244 OFFCURVE",
"863 239 OFFCURVE",
"860 232 CURVE",
"792 139 OFFCURVE",
"673 -22 OFFCURVE",
"581 -2 CURVE",
"584 -11 LINE",
"687 -11 OFFCURVE",
"765 -61 OFFCURVE",
"839 -62 CURVE SMOOTH",
"888 -63 OFFCURVE",
"943 -30 OFFCURVE",
"897 44 CURVE",
"888 42 LINE",
"915 -27 OFFCURVE",
"796 -14 OFFCURVE",
"761 -10 CURVE SMOOTH",
"736 -7 OFFCURVE",
"650 -2 OFFCURVE",
"650 -2 CURVE",
"778 28 OFFCURVE",
"903 150 OFFCURVE",
"964 264 CURVE SMOOTH",
"991 313 OFFCURVE",
"1032 399 OFFCURVE",
"1067 442 CURVE SMOOTH",
"1079 457 OFFCURVE",
"1091 470 OFFCURVE",
"1101 482 CURVE",
"1126 471 OFFCURVE",
"1147 462 OFFCURVE",
"1158 461 CURVE SMOOTH",
"1298 451 OFFCURVE",
"1281 578 OFFCURVE",
"1176 578 CURVE SMOOTH",
"1125 578 OFFCURVE",
"1076 563 OFFCURVE",
"1031 538 CURVE",
"999 555 OFFCURVE",
"971 571 OFFCURVE",
"960 577 CURVE SMOOTH",
"926 596 OFFCURVE",
"868 623 OFFCURVE",
"805 641 CURVE",
"786 651 OFFCURVE",
"783 684 OFFCURVE",
"796 689 CURVE SMOOTH",
"814 696 OFFCURVE",
"779 705 OFFCURVE",
"770 685 CURVE SMOOTH",
"764 672 OFFCURVE",
"770 658 OFFCURVE",
"780 648 CURVE",
"747 656 OFFCURVE",
"714 662 OFFCURVE",
"683 662 CURVE SMOOTH",
"564 662 OFFCURVE",
"484 605 OFFCURVE",
"447 535 CURVE",
"434 519 OFFCURVE",
"423 515 OFFCURVE",
"406 513 CURVE",
"397 542 OFFCURVE",
"361 551 OFFCURVE",
"335 542 CURVE SMOOTH",
"310 533 OFFCURVE",
"298 519 OFFCURVE",
"287 508 CURVE SMOOTH",
"273 493 OFFCURVE",
"238 478 OFFCURVE",
"224 501 CURVE",
"221 499 OFFCURVE",
"217 493 OFFCURVE",
"223 480 CURVE SMOOTH",
"238 445 OFFCURVE",
"311 430 OFFCURVE",
"350 440 CURVE SMOOTH",
"386 450 OFFCURVE",
"408 479 OFFCURVE",
"407 503 CURVE",
"419 504 OFFCURVE",
"427 507 OFFCURVE",
"436 511 CURVE",
"393 402 OFFCURVE",
"448 274 OFFCURVE",
"612 274 CURVE SMOOTH",
"733 274 OFFCURVE",
"800 353 OFFCURVE",
"800 424 CURVE SMOOTH",
"800 480 OFFCURVE",
"771 526 OFFCURVE",
"715 539 CURVE",
"708 560 OFFCURVE",
"690 581 OFFCURVE",
"657 580 CURVE SMOOTH",
"633 579 OFFCURVE",
"602 559 OFFCURVE",
"580 536 CURVE SMOOTH",
"567 523 OFFCURVE",
"542 516 OFFCURVE",
"531 524 CURVE SMOOTH",
"523 530 OFFCURVE",
"519 535 OFFCURVE",
"519 527 CURVE SMOOTH",
"519 508 OFFCURVE",
"533 495 OFFCURVE",
"551 491 CURVE SMOOTH",
"581 485 OFFCURVE",
"623 497 OFFCURVE",
"637 508 CURVE",
"638 510 OFFCURVE",
"640 511 OFFCURVE",
"642 512 CURVE",
"639 506 OFFCURVE",
"639 499 OFFCURVE",
"642 493 CURVE SMOOTH",
"646 486 OFFCURVE",
"652 480 OFFCURVE",
"658 479 CURVE SMOOTH",
"665 477 OFFCURVE",
"668 483 OFFCURVE",
"663 487 CURVE SMOOTH",
"648 497 OFFCURVE",
"660 522 OFFCURVE",
"678 529 CURVE SMOOTH",
"684 531 OFFCURVE",
"690 531 OFFCURVE",
"696 531 CURVE",
"757 523 OFFCURVE",
"784 471 OFFCURVE",
"784 424 CURVE SMOOTH",
"784 370 OFFCURVE",
"737 305 OFFCURVE",
"645 292 CURVE",
"658 297 OFFCURVE",
"669 306 OFFCURVE",
"676 317 CURVE SMOOTH",
"690 341 OFFCURVE",
"681 368 OFFCURVE",
"654 366 CURVE SMOOTH",
"643 365 OFFCURVE",
"639 358 OFFCURVE",
"647 356 CURVE SMOOTH",
"657 353 OFFCURVE",
"659 336 OFFCURVE",
"655 322 CURVE SMOOTH",
"652 313 OFFCURVE",
"643 297 OFFCURVE",
"630 291 CURVE",
"624 290 OFFCURVE",
"618 290 OFFCURVE",
"612 290 CURVE SMOOTH",
"386 290 OFFCURVE",
"422 638 OFFCURVE",
"678 638 CURVE SMOOTH",
"775 638 OFFCURVE",
"898 592 OFFCURVE",
"952 563 CURVE SMOOTH",
"965 556 OFFCURVE",
"987 543 OFFCURVE",
"1013 528 CURVE",
"945 488 OFFCURVE",
"884 429 OFFCURVE",
"834 376 CURVE SMOOTH",
"784 325 OFFCURVE",
"723 255 OFFCURVE",
"656 184 CURVE",
"642 173 OFFCURVE",
"629 169 OFFCURVE",
"614 169 CURVE",
"618 190 OFFCURVE",
"603 212 OFFCURVE",
"584 221 CURVE SMOOTH",
"562 230 OFFCURVE",
"546 229 OFFCURVE",
"533 228 CURVE SMOOTH",
"515 228 OFFCURVE",
"484 239 OFFCURVE",
"489 263 CURVE",
"486 263 OFFCURVE",
"480 261 OFFCURVE",
"476 249 CURVE SMOOTH",
"464 219 OFFCURVE",
"500 165 OFFCURVE",
"531 148 CURVE SMOOTH",
"563 131 OFFCURVE",
"597 138 OFFCURVE",
"609 157 CURVE",
"609 158 LINE",
"619 158 OFFCURVE",
"626 159 OFFCURVE",
"633 161 CURVE",
"512 36 OFFCURVE",
"374 -84 OFFCURVE",
"248 -100 CURVE",
"248 -100 OFFCURVE",
"248 -100 OFFCURVE",
"246 -100 CURVE SMOOTH",
"227 -102 OFFCURVE",
"214 -89 OFFCURVE",
"209 -80 CURVE SMOOTH",
"201 -67 OFFCURVE",
"201 -51 OFFCURVE",
"210 -46 CURVE SMOOTH",
"230 -35 OFFCURVE",
"186 -31 OFFCURVE",
"180 -55 CURVE SMOOTH",
"174 -75 OFFCURVE",
"192 -95 OFFCURVE",
"216 -102 CURVE",
"-69 -97 OFFCURVE",
"39 306 OFFCURVE",
"285 306 CURVE SMOOTH",
"366 306 OFFCURVE",
"391 260 OFFCURVE",
"391 207 CURVE SMOOTH",
"391 135 OFFCURVE",
"310 49 OFFCURVE",
"221 66 CURVE",
"240 76 OFFCURVE",
"246 102 OFFCURVE",
"240 121 CURVE SMOOTH",
"233 142 OFFCURVE",
"222 153 OFFCURVE",
"213 162 CURVE SMOOTH",
"201 174 OFFCURVE",
"190 203 OFFCURVE",
"210 214 CURVE",
"208 216 OFFCURVE",
"202 220 OFFCURVE",
"192 216 CURVE SMOOTH",
"163 204 OFFCURVE",
"148 144 OFFCURVE",
"155 112 CURVE SMOOTH",
"161 86 OFFCURVE",
"179 69 OFFCURVE",
"196 64 CURVE",
"197 63 OFFCURVE",
"199 63 OFFCURVE",
"200 62 CURVE",
"309 22 OFFCURVE",
"416 119 OFFCURVE",
"416 206 CURVE SMOOTH",
"416 266 OFFCURVE",
"377 322 OFFCURVE",
"285 322 CURVE SMOOTH",
"231 322 OFFCURVE",
"161 297 OFFCURVE",
"105 252 CURVE",
"110 262 OFFCURVE",
"113 273 OFFCURVE",
"114 284 CURVE SMOOTH",
"114 319 OFFCURVE",
"89 342 OFFCURVE",
"61 322 CURVE SMOOTH",
"50 315 OFFCURVE",
"50 305 OFFCURVE",
"60 308 CURVE SMOOTH",
"72 311 OFFCURVE",
"84 295 OFFCURVE",
"88 277 CURVE SMOOTH",
"91 266 OFFCURVE",
"89 246 OFFCURVE",
"81 231 CURVE",
"39 189 OFFCURVE",
"10 133 OFFCURVE",
"10 67 CURVE SMOOTH",
"10 -61 OFFCURVE",
"99 -118 OFFCURVE",
"220 -118 CURVE SMOOTH",
"259 -118 OFFCURVE",
"303 -109 OFFCURVE",
"353 -84 CURVE",
"352 -86 OFFCURVE",
"350 -89 OFFCURVE",
"349 -91 CURVE SMOOTH",
"342 -105 OFFCURVE",
"339 -121 OFFCURVE",
"342 -136 CURVE",
"326 -150 OFFCURVE",
"322 -183 OFFCURVE",
"341 -210 CURVE SMOOTH",
"360 -238 OFFCURVE",
"415 -267 OFFCURVE",
"443 -253 CURVE SMOOTH",
"453 -248 OFFCURVE",
"454 -241 OFFCURVE",
"454 -239 CURVE",
"432 -246 OFFCURVE",
"418 -218 OFFCURVE",
"417 -201 CURVE SMOOTH",
"416 -188 OFFCURVE",
"416 -173 OFFCURVE",
"405 -154 CURVE SMOOTH",
"395 -136 OFFCURVE",
"370 -123 OFFCURVE",
"350 -132 CURVE"
);
},
{
closed = 1;
nodes = (
"1287 666 OFFCURVE",
"1272 679 OFFCURVE",
"1253 679 CURVE SMOOTH",
"1234 679 OFFCURVE",
"1221 665 OFFCURVE",
"1221 646 CURVE SMOOTH",
"1221 626 OFFCURVE",
"1236 613 OFFCURVE",
"1255 613 CURVE SMOOTH",
"1274 613 OFFCURVE",
"1287 627 OFFCURVE",
"1287 646 CURVE SMOOTH"
);
},
{
closed = 1;
nodes = (
"1158 666 OFFCURVE",
"1143 679 OFFCURVE",
"1124 679 CURVE SMOOTH",
"1105 679 OFFCURVE",
"1092 665 OFFCURVE",
"1092 646 CURVE SMOOTH",
"1092 626 OFFCURVE",
"1107 613 OFFCURVE",
"1126 613 CURVE SMOOTH",
"1145 613 OFFCURVE",
"1158 627 OFFCURVE",
"1158 646 CURVE SMOOTH"
);
}
);
width = 857;
}
);
note = Adieresis;
unicode = 00C4;
},
{
color = 11;
glyphname = Agrave;
lastChange = "2021-07-08 20:43:58 +0000";
layers = (
{
hints = (
{
horizontal = 1;
place = "{-256, 17}";
type = Stem;
},
{
horizontal = 1;
place = "{-136, 7}";
type = Stem;
},
{
horizontal = 1;
place = "{-2, 21}";
target = up;
type = BottomGhost;
},
{
horizontal = 1;
place = "{53, 13}";
type = Stem;
},
{
horizontal = 1;
place = "{158, 11}";
type = Stem;
},
{
horizontal = 1;
place = "{250, 16}";
type = Stem;
},
{
horizontal = 1;
place = "{306, 16}";
type = Stem;
},
{
horizontal = 1;
place = "{356, 10}";
type = Stem;
},
{
horizontal = 1;
place = "{437, 52}";
type = Stem;
},
{
horizontal = 1;
place = "{562, 16}";
type = Stem;
},
{
horizontal = 1;
place = "{638, 24}";
type = Stem;
},
{
place = "{10, 36}";
type = Stem;
},
{
place = "{88, 26}";
type = Stem;
},
{
place = "{180, 23}";
type = Stem;
},
{
place = "{328, 22}";
type = Stem;
},
{
place = "{422, 40}";
type = Stem;
},
{
place = "{642, 14}";
type = Stem;
},
{
place = "{784, 16}";
type = Stem;
},
{
place = "{892, 22}";
type = Stem;
},
{
place = "{1227, 32}";
type = Stem;
},
{
horizontal = 1;
place = "{-11, 9}";
type = Stem;
},
{
horizontal = 1;
place = "{-62, 49}";
type = Stem;
},
{
horizontal = 1;
place = "{461, 22}";
type = Stem;
},
{
place = "{780, 8}";
type = Stem;
},
{
horizontal = 1;
place = "{503, 10}";
type = Stem;
},
{
horizontal = 1;
place = "{274, 16}";
type = Stem;
},
{
horizontal = 1;
place = "{531, 49}";
type = Stem;
},
{
horizontal = 1;
place = "{491, 30}";
type = Stem;
},
{
horizontal = 1;
place = "{-118, 16}";
type = Stem;
},
{
place = "{655, 27}";
type = Stem;
},
{
place = "{155, 44}";
type = Stem;
},
{
place = "{391, 25}";
type = Stem;
},
{
horizontal = 1;
place = "{308, 21}";
type = Stem;
}
);
layerId = "2072D606-CE9C-4455-8FDE-AAFE9455DC77";
paths = (
{
closed = 1;
nodes = (
"1185 650 OFFCURVE",
"1181 651 OFFCURVE",
"1178 652 CURVE SMOOTH",
"1153 664 OFFCURVE",
"1066 738 OFFCURVE",
"1052 738 CURVE SMOOTH",
"1043 738 OFFCURVE",
"1030 729 OFFCURVE",
"1030 719 CURVE SMOOTH",
"1030 715 OFFCURVE",
"1033 713 OFFCURVE",
"1036 711 CURVE SMOOTH",
"1061 696 OFFCURVE",
"1157 642 OFFCURVE",
"1180 642 CURVE SMOOTH",
"1182 642 OFFCURVE",
"1185 644 OFFCURVE",
"1185 646 CURVE SMOOTH"
);
},
{
closed = 1;
nodes = (
"1090 549 OFFCURVE",
"1133 562 OFFCURVE",
"1176 562 CURVE SMOOTH",
"1245 562 OFFCURVE",
"1251 468 OFFCURVE",
"1150 483 CURVE SMOOTH",
"1143 484 OFFCURVE",
"1130 489 OFFCURVE",
"1114 497 CURVE",
"1134 519 OFFCURVE",
"1149 534 OFFCURVE",
"1155 541 CURVE",
"1149 548 LINE",
"1132 534 OFFCURVE",
"1115 519 OFFCURVE",
"1099 504 CURVE",
"1083 511 OFFCURVE",
"1066 520 OFFCURVE",
"1049 529 CURVE"
);
},
{
closed = 1;
nodes = (
"1013 421 OFFCURVE",
"948 343 OFFCURVE",
"886 266 CURVE",
"755 266 LINE",
"827 348 OFFCURVE",
"923 459 OFFCURVE",
"1031 519 CURVE",
"1049 509 OFFCURVE",
"1067 499 OFFCURVE",
"1085 490 CURVE"
);
},
{
closed = 1;
nodes = (
"349 -121 OFFCURVE",
"353 -107 OFFCURVE",
"361 -94 CURVE SMOOTH",
"368 -82 OFFCURVE",
"378 -72 OFFCURVE",
"390 -65 CURVE",
"390 -65 LINE",
"390 -65 LINE",
"390 -64 LINE",
"390 -64 LINE",
"391 -64 LINE",
"391 -64 LINE",
"391 -64 LINE",
"391 -64 LINE",
"391 -64 LINE",
"391 -64 LINE",
"392 -64 LINE",
"392 -63 LINE",
"392 -63 LINE",
"392 -63 LINE",
"479 -6 OFFCURVE",
"593 86 OFFCURVE",
"740 250 CURVE",
"872 250 LINE",
"866 244 OFFCURVE",
"863 239 OFFCURVE",
"860 232 CURVE",
"792 139 OFFCURVE",
"673 -22 OFFCURVE",
"581 -2 CURVE",
"584 -11 LINE",
"687 -11 OFFCURVE",
"765 -61 OFFCURVE",
"839 -62 CURVE SMOOTH",
"888 -63 OFFCURVE",
"943 -30 OFFCURVE",
"897 44 CURVE",
"888 42 LINE",
"915 -27 OFFCURVE",
"796 -14 OFFCURVE",
"761 -10 CURVE SMOOTH",
"736 -7 OFFCURVE",
"650 -2 OFFCURVE",
"650 -2 CURVE",
"778 28 OFFCURVE",
"903 150 OFFCURVE",
"964 264 CURVE SMOOTH",
"991 313 OFFCURVE",
"1032 399 OFFCURVE",
"1067 442 CURVE SMOOTH",
"1079 457 OFFCURVE",
"1091 470 OFFCURVE",
"1101 482 CURVE",
"1126 471 OFFCURVE",
"1147 462 OFFCURVE",
"1158 461 CURVE SMOOTH",
"1298 451 OFFCURVE",
"1281 578 OFFCURVE",
"1176 578 CURVE SMOOTH",
"1125 578 OFFCURVE",
"1076 563 OFFCURVE",
"1031 538 CURVE",
"999 555 OFFCURVE",
"971 571 OFFCURVE",
"960 577 CURVE SMOOTH",
"926 596 OFFCURVE",
"868 623 OFFCURVE",
"805 641 CURVE",
"786 651 OFFCURVE",
"783 684 OFFCURVE",
"796 689 CURVE SMOOTH",
"814 696 OFFCURVE",
"779 705 OFFCURVE",
"770 685 CURVE SMOOTH",
"764 672 OFFCURVE",
"770 658 OFFCURVE",
"780 648 CURVE",
"747 656 OFFCURVE",
"714 662 OFFCURVE",
"683 662 CURVE SMOOTH",
"564 662 OFFCURVE",
"484 605 OFFCURVE",
"447 535 CURVE",
"434 519 OFFCURVE",
"423 515 OFFCURVE",
"406 513 CURVE",
"397 542 OFFCURVE",
"361 551 OFFCURVE",
"335 542 CURVE SMOOTH",
"310 533 OFFCURVE",
"298 519 OFFCURVE",
"287 508 CURVE SMOOTH",
"273 493 OFFCURVE",
"238 478 OFFCURVE",
"224 501 CURVE",
"221 499 OFFCURVE",
"217 493 OFFCURVE",
"223 480 CURVE SMOOTH",
"238 445 OFFCURVE",
"311 430 OFFCURVE",
"350 440 CURVE SMOOTH",
"386 450 OFFCURVE",
"408 479 OFFCURVE",
"407 503 CURVE",
"419 504 OFFCURVE",
"427 507 OFFCURVE",
"436 511 CURVE",
"393 402 OFFCURVE",
"448 274 OFFCURVE",
"612 274 CURVE SMOOTH",
"733 274 OFFCURVE",
"800 353 OFFCURVE",
"800 424 CURVE SMOOTH",
"800 480 OFFCURVE",
"771 526 OFFCURVE",
"715 539 CURVE",
"708 560 OFFCURVE",
"690 581 OFFCURVE",
"657 580 CURVE SMOOTH",
"633 579 OFFCURVE",
"602 559 OFFCURVE",
"580 536 CURVE SMOOTH",
"567 523 OFFCURVE",
"542 516 OFFCURVE",
"531 524 CURVE SMOOTH",
"523 530 OFFCURVE",
"519 535 OFFCURVE",
"519 527 CURVE SMOOTH",
"519 508 OFFCURVE",
"533 495 OFFCURVE",
"551 491 CURVE SMOOTH",
"581 485 OFFCURVE",
"623 497 OFFCURVE",
"637 508 CURVE",
"638 510 OFFCURVE",
"640 511 OFFCURVE",
"642 512 CURVE",
"639 506 OFFCURVE",
"639 499 OFFCURVE",
"642 493 CURVE SMOOTH",
"646 486 OFFCURVE",
"652 480 OFFCURVE",
"658 479 CURVE SMOOTH",
"665 477 OFFCURVE",
"668 483 OFFCURVE",
"663 487 CURVE SMOOTH",
"648 497 OFFCURVE",
"660 522 OFFCURVE",
"678 529 CURVE SMOOTH",
"684 531 OFFCURVE",
"690 531 OFFCURVE",
"696 531 CURVE",
"757 523 OFFCURVE",
"784 471 OFFCURVE",
"784 424 CURVE SMOOTH",
"784 370 OFFCURVE",
"737 305 OFFCURVE",
"645 292 CURVE",
"658 297 OFFCURVE",
"669 306 OFFCURVE",
"676 317 CURVE SMOOTH",
"690 341 OFFCURVE",
"681 368 OFFCURVE",
"654 366 CURVE SMOOTH",
"643 365 OFFCURVE",
"639 358 OFFCURVE",
"647 356 CURVE SMOOTH",
"657 353 OFFCURVE",
"659 336 OFFCURVE",
"655 322 CURVE SMOOTH",
"652 313 OFFCURVE",
"643 297 OFFCURVE",
"630 291 CURVE",
"624 290 OFFCURVE",
"618 290 OFFCURVE",
"612 290 CURVE SMOOTH",
"386 290 OFFCURVE",
"422 638 OFFCURVE",
"678 638 CURVE SMOOTH",
"775 638 OFFCURVE",
"898 592 OFFCURVE",
"952 563 CURVE SMOOTH",
"965 556 OFFCURVE",
"987 543 OFFCURVE",
"1013 528 CURVE",
"945 488 OFFCURVE",
"884 429 OFFCURVE",
"834 376 CURVE SMOOTH",
"784 325 OFFCURVE",
"723 255 OFFCURVE",
"656 184 CURVE",
"642 173 OFFCURVE",
"629 169 OFFCURVE",
"614 169 CURVE",
"618 190 OFFCURVE",
"603 212 OFFCURVE",
"584 221 CURVE SMOOTH",
"562 230 OFFCURVE",
"546 229 OFFCURVE",
"533 228 CURVE SMOOTH",
"515 228 OFFCURVE",
"484 239 OFFCURVE",
"489 263 CURVE",
"486 263 OFFCURVE",
"480 261 OFFCURVE",
"476 249 CURVE SMOOTH",
"464 219 OFFCURVE",
"500 165 OFFCURVE",
"531 148 CURVE SMOOTH",
"563 131 OFFCURVE",
"597 138 OFFCURVE",
"609 157 CURVE",
"609 158 LINE",
"619 158 OFFCURVE",
"626 159 OFFCURVE",
"633 161 CURVE",
"512 36 OFFCURVE",
"374 -84 OFFCURVE",
"248 -100 CURVE",
"248 -100 OFFCURVE",
"248 -100 OFFCURVE",
"246 -100 CURVE SMOOTH",
"227 -102 OFFCURVE",
"214 -89 OFFCURVE",
"209 -80 CURVE SMOOTH",
"201 -67 OFFCURVE",
"201 -51 OFFCURVE",
"210 -46 CURVE SMOOTH",
"230 -35 OFFCURVE",
"186 -31 OFFCURVE",
"180 -55 CURVE SMOOTH",
"174 -75 OFFCURVE",
"192 -95 OFFCURVE",
"216 -102 CURVE",
"-69 -97 OFFCURVE",
"39 306 OFFCURVE",
"285 306 CURVE SMOOTH",
"366 306 OFFCURVE",
"391 260 OFFCURVE",
"391 207 CURVE SMOOTH",
"391 135 OFFCURVE",
"310 49 OFFCURVE",
"221 66 CURVE",
"240 76 OFFCURVE",
"246 102 OFFCURVE",
"240 121 CURVE SMOOTH",
"233 142 OFFCURVE",
"222 153 OFFCURVE",
"213 162 CURVE SMOOTH",
"201 174 OFFCURVE",
"190 203 OFFCURVE",
"210 214 CURVE",
"208 216 OFFCURVE",
"202 220 OFFCURVE",
"192 216 CURVE SMOOTH",
"163 204 OFFCURVE",
"148 144 OFFCURVE",
"155 112 CURVE SMOOTH",
"161 86 OFFCURVE",
"179 69 OFFCURVE",
"196 64 CURVE",
"197 63 OFFCURVE",
"199 63 OFFCURVE",
"200 62 CURVE",
"309 22 OFFCURVE",
"416 119 OFFCURVE",
"416 206 CURVE SMOOTH",
"416 266 OFFCURVE",
"377 322 OFFCURVE",
"285 322 CURVE SMOOTH",
"231 322 OFFCURVE",
"161 297 OFFCURVE",
"105 252 CURVE",
"110 262 OFFCURVE",
"113 273 OFFCURVE",
"114 284 CURVE SMOOTH",
"114 319 OFFCURVE",
"89 342 OFFCURVE",
"61 322 CURVE SMOOTH",
"50 315 OFFCURVE",
"50 305 OFFCURVE",
"60 308 CURVE SMOOTH",
"72 311 OFFCURVE",
"84 295 OFFCURVE",
"88 277 CURVE SMOOTH",
"91 266 OFFCURVE",
"89 246 OFFCURVE",
"81 231 CURVE",
"39 189 OFFCURVE",
"10 133 OFFCURVE",
"10 67 CURVE SMOOTH",
"10 -61 OFFCURVE",
"99 -118 OFFCURVE",
"220 -118 CURVE SMOOTH",
"259 -118 OFFCURVE",
"303 -109 OFFCURVE",
"353 -84 CURVE",
"352 -86 OFFCURVE",
"350 -89 OFFCURVE",
"349 -91 CURVE SMOOTH",
"342 -105 OFFCURVE",
"339 -121 OFFCURVE",
"342 -136 CURVE",
"326 -150 OFFCURVE",
"322 -183 OFFCURVE",
"341 -210 CURVE SMOOTH",
"360 -238 OFFCURVE",
"415 -267 OFFCURVE",
"443 -253 CURVE SMOOTH",
"453 -248 OFFCURVE",
"454 -241 OFFCURVE",
"454 -239 CURVE",
"432 -246 OFFCURVE",
"418 -218 OFFCURVE",
"417 -201 CURVE SMOOTH",
"416 -188 OFFCURVE",
"416 -173 OFFCURVE",
"405 -154 CURVE SMOOTH",
"395 -136 OFFCURVE",
"370 -123 OFFCURVE",
"350 -132 CURVE"
);
}
);
width = 857;
}
);
note = Agrave;
unicode = 00C0;
},
{
color = 11;
glyphname = Aring;
lastChange = "2021-07-08 20:43:58 +0000";
layers = (
{
hints = (
{
horizontal = 1;
place = "{-118, 17}";
type = Stem;
},
{
horizontal = 1;
place = "{-62, 48}";
type = Stem;
},
{
horizontal = 1;
place = "{53, 11}";
type = Stem;
},
{
horizontal = 1;
place = "{249, 17}";
type = Stem;
},
{
horizontal = 1;
place = "{481, -20}";
target = down;
type = TopGhost;
},
{
horizontal = 1;
place = "{561, 24}";
type = Stem;
},
{
place = "{10, 36}";
type = Stem;
},
{
place = "{391, 25}";
type = Stem;
},
{
place = "{783, 17}";
type = Stem;
},
{
place = "{892, 22}";
type = Stem;
},
{
place = "{1134, 17}";
type = Stem;
},
{
place = "{1243, 19}";
type = Stem;
}
);
layerId = "2072D606-CE9C-4455-8FDE-AAFE9455DC77";
paths = (
{
closed = 1;
nodes = (
"1090 549 OFFCURVE",
"1133 562 OFFCURVE",
"1176 562 CURVE SMOOTH",
"1245 562 OFFCURVE",
"1251 468 OFFCURVE",
"1150 483 CURVE SMOOTH",
"1143 484 OFFCURVE",
"1130 489 OFFCURVE",
"1114 497 CURVE",
"1134 519 OFFCURVE",
"1149 534 OFFCURVE",
"1155 541 CURVE",
"1149 548 LINE",
"1132 534 OFFCURVE",
"1115 519 OFFCURVE",
"1099 504 CURVE",
"1083 511 OFFCURVE",
"1066 520 OFFCURVE",
"1049 529 CURVE"
);
},
{
closed = 1;
nodes = (
"1013 421 OFFCURVE",
"948 343 OFFCURVE",
"886 266 CURVE",
"755 266 LINE",
"827 348 OFFCURVE",
"923 459 OFFCURVE",
"1031 519 CURVE",
"1049 509 OFFCURVE",
"1067 499 OFFCURVE",
"1085 490 CURVE"
);
},
{
closed = 1;
nodes = (
"1262 667 OFFCURVE",
"1233 696 OFFCURVE",
"1198 696 CURVE SMOOTH",
"1163 696 OFFCURVE",
"1134 667 OFFCURVE",
"1134 632 CURVE SMOOTH",
"1134 609 OFFCURVE",
"1146 589 OFFCURVE",
"1164 578 CURVE",
"1117 576 OFFCURVE",
"1073 561 OFFCURVE",
"1031 538 CURVE",
"999 555 OFFCURVE",
"971 571 OFFCURVE",
"960 577 CURVE SMOOTH",
"926 596 OFFCURVE",
"868 623 OFFCURVE",
"805 641 CURVE",
"786 651 OFFCURVE",
"783 684 OFFCURVE",
"796 689 CURVE SMOOTH",
"814 696 OFFCURVE",
"779 705 OFFCURVE",
"770 685 CURVE SMOOTH",
"764 672 OFFCURVE",
"770 658 OFFCURVE",
"780 648 CURVE",
"747 656 OFFCURVE",
"714 662 OFFCURVE",
"683 662 CURVE SMOOTH",
"564 662 OFFCURVE",
"484 605 OFFCURVE",
"447 535 CURVE",
"434 519 OFFCURVE",
"423 515 OFFCURVE",
"406 513 CURVE",
"397 542 OFFCURVE",
"361 551 OFFCURVE",
"335 542 CURVE SMOOTH",
"310 533 OFFCURVE",
"298 519 OFFCURVE",
"287 508 CURVE SMOOTH",
"273 493 OFFCURVE",
"238 478 OFFCURVE",
"224 501 CURVE",
"221 499 OFFCURVE",
"217 493 OFFCURVE",
"223 480 CURVE SMOOTH",
"238 445 OFFCURVE",
"311 430 OFFCURVE",
"350 440 CURVE SMOOTH",
"386 450 OFFCURVE",
"408 479 OFFCURVE",
"407 503 CURVE",
"419 504 OFFCURVE",
"427 507 OFFCURVE",
"436 511 CURVE",
"393 402 OFFCURVE",
"448 274 OFFCURVE",
"612 274 CURVE SMOOTH",
"733 274 OFFCURVE",
"800 353 OFFCURVE",
"800 424 CURVE SMOOTH",
"800 480 OFFCURVE",
"771 526 OFFCURVE",
"715 539 CURVE",
"708 560 OFFCURVE",
"690 581 OFFCURVE",
"657 580 CURVE SMOOTH",
"633 579 OFFCURVE",
"602 559 OFFCURVE",
"580 536 CURVE SMOOTH",
"567 523 OFFCURVE",
"542 516 OFFCURVE",
"531 524 CURVE SMOOTH",
"523 530 OFFCURVE",
"519 535 OFFCURVE",
"519 527 CURVE SMOOTH",
"519 508 OFFCURVE",
"533 495 OFFCURVE",
"551 491 CURVE SMOOTH",
"581 485 OFFCURVE",
"623 497 OFFCURVE",
"637 508 CURVE",
"638 510 OFFCURVE",
"640 511 OFFCURVE",
"642 512 CURVE",
"639 506 OFFCURVE",
"639 499 OFFCURVE",
"642 493 CURVE SMOOTH",
"646 486 OFFCURVE",
"652 480 OFFCURVE",
"658 479 CURVE SMOOTH",
"665 477 OFFCURVE",
"668 483 OFFCURVE",
"663 487 CURVE SMOOTH",
"648 497 OFFCURVE",
"660 522 OFFCURVE",
"678 529 CURVE SMOOTH",
"684 531 OFFCURVE",
"690 531 OFFCURVE",
"696 531 CURVE",
"757 523 OFFCURVE",
"784 471 OFFCURVE",
"784 424 CURVE SMOOTH",
"784 370 OFFCURVE",
"737 305 OFFCURVE",
"645 292 CURVE",
"658 297 OFFCURVE",
"669 306 OFFCURVE",
"676 317 CURVE SMOOTH",
"690 341 OFFCURVE",
"681 368 OFFCURVE",
"654 366 CURVE SMOOTH",
"643 365 OFFCURVE",
"639 358 OFFCURVE",
"647 356 CURVE SMOOTH",
"657 353 OFFCURVE",
"659 336 OFFCURVE",
"655 322 CURVE SMOOTH",
"652 313 OFFCURVE",
"643 297 OFFCURVE",
"630 291 CURVE",
"624 290 OFFCURVE",
"618 290 OFFCURVE",
"612 290 CURVE SMOOTH",
"386 290 OFFCURVE",
"422 638 OFFCURVE",
"678 638 CURVE SMOOTH",
"775 638 OFFCURVE",
"898 592 OFFCURVE",
"952 563 CURVE SMOOTH",
"965 556 OFFCURVE",
"987 543 OFFCURVE",
"1013 528 CURVE",
"945 488 OFFCURVE",
"884 429 OFFCURVE",
"834 376 CURVE SMOOTH",
"784 325 OFFCURVE",
"723 255 OFFCURVE",
"656 184 CURVE",
"642 173 OFFCURVE",
"629 169 OFFCURVE",
"614 169 CURVE",
"618 190 OFFCURVE",
"603 212 OFFCURVE",
"584 221 CURVE SMOOTH",
"562 230 OFFCURVE",
"546 229 OFFCURVE",
"533 228 CURVE SMOOTH",
"515 228 OFFCURVE",
"484 239 OFFCURVE",
"489 263 CURVE",
"486 263 OFFCURVE",
"480 261 OFFCURVE",
"476 249 CURVE SMOOTH",
"464 219 OFFCURVE",
"500 165 OFFCURVE",
"531 148 CURVE SMOOTH",
"563 131 OFFCURVE",
"597 138 OFFCURVE",
"609 157 CURVE",
"609 158 LINE",
"619 158 OFFCURVE",
"626 159 OFFCURVE",
"633 161 CURVE",
"512 36 OFFCURVE",
"374 -84 OFFCURVE",
"248 -100 CURVE",
"248 -100 OFFCURVE",
"248 -100 OFFCURVE",
"246 -100 CURVE SMOOTH",
"227 -102 OFFCURVE",
"214 -89 OFFCURVE",
"209 -80 CURVE SMOOTH",
"201 -67 OFFCURVE",
"201 -51 OFFCURVE",
"210 -46 CURVE SMOOTH",
"230 -35 OFFCURVE",
"186 -31 OFFCURVE",
"180 -55 CURVE SMOOTH",
"174 -75 OFFCURVE",
"192 -95 OFFCURVE",
"216 -102 CURVE",
"-69 -97 OFFCURVE",
"39 306 OFFCURVE",
"285 306 CURVE SMOOTH",
"366 306 OFFCURVE",
"391 260 OFFCURVE",
"391 207 CURVE SMOOTH",
"391 135 OFFCURVE",
"310 49 OFFCURVE",
"221 66 CURVE",
"240 76 OFFCURVE",
"246 102 OFFCURVE",
"240 121 CURVE SMOOTH",
"233 142 OFFCURVE",
"222 153 OFFCURVE",
"213 162 CURVE SMOOTH",
"201 174 OFFCURVE",
"190 203 OFFCURVE",
"210 214 CURVE",
"208 216 OFFCURVE",
"202 220 OFFCURVE",
"192 216 CURVE SMOOTH",
"163 204 OFFCURVE",
"148 144 OFFCURVE",
"155 112 CURVE SMOOTH",
"161 86 OFFCURVE",
"179 69 OFFCURVE",
"196 64 CURVE",
"197 63 OFFCURVE",
"199 63 OFFCURVE",
"200 62 CURVE",
"309 22 OFFCURVE",
"416 119 OFFCURVE",
"416 206 CURVE SMOOTH",
"416 266 OFFCURVE",
"377 322 OFFCURVE",
"285 322 CURVE SMOOTH",
"231 322 OFFCURVE",
"161 297 OFFCURVE",
"105 252 CURVE",
"110 262 OFFCURVE",
"113 273 OFFCURVE",
"114 284 CURVE SMOOTH",
"114 319 OFFCURVE",
"89 342 OFFCURVE",
"61 322 CURVE SMOOTH",
"50 315 OFFCURVE",
"50 305 OFFCURVE",
"60 308 CURVE SMOOTH",
"72 311 OFFCURVE",
"84 295 OFFCURVE",
"88 277 CURVE SMOOTH",
"91 266 OFFCURVE",
"89 246 OFFCURVE",
"81 231 CURVE",
"39 189 OFFCURVE",
"10 133 OFFCURVE",
"10 67 CURVE SMOOTH",
"10 -61 OFFCURVE",
"99 -118 OFFCURVE",
"220 -118 CURVE SMOOTH",
"259 -118 OFFCURVE",
"303 -109 OFFCURVE",
"353 -84 CURVE",
"352 -86 OFFCURVE",
"350 -89 OFFCURVE",
"349 -91 CURVE SMOOTH",
"342 -105 OFFCURVE",
"339 -121 OFFCURVE",
"342 -136 CURVE",
"326 -150 OFFCURVE",
"322 -183 OFFCURVE",
"341 -210 CURVE SMOOTH",
"360 -238 OFFCURVE",
"415 -267 OFFCURVE",
"443 -253 CURVE SMOOTH",
"453 -248 OFFCURVE",
"454 -241 OFFCURVE",
"454 -239 CURVE",
"432 -246 OFFCURVE",
"418 -218 OFFCURVE",
"417 -201 CURVE SMOOTH",
"416 -188 OFFCURVE",
"416 -173 OFFCURVE",
"405 -154 CURVE SMOOTH",
"395 -136 OFFCURVE",
"370 -123 OFFCURVE",
"350 -132 CURVE",
"349 -121 OFFCURVE",
"353 -107 OFFCURVE",
"361 -94 CURVE SMOOTH",
"368 -82 OFFCURVE",
"378 -72 OFFCURVE",
"390 -65 CURVE",
"390 -65 LINE",
"390 -65 LINE",
"390 -64 LINE",
"390 -64 LINE",
"391 -64 LINE",
"391 -64 LINE",
"391 -64 LINE",
"391 -64 LINE",
"391 -64 LINE",
"391 -64 LINE",
"391 -64 LINE",
"392 -63 LINE",
"392 -63 LINE",
"479 -6 OFFCURVE",
"593 86 OFFCURVE",
"740 250 CURVE",
"872 250 LINE",
"866 244 OFFCURVE",
"863 239 OFFCURVE",
"860 232 CURVE",
"792 139 OFFCURVE",
"673 -22 OFFCURVE",
"581 -2 CURVE",
"584 -11 LINE",
"687 -11 OFFCURVE",
"765 -61 OFFCURVE",
"839 -62 CURVE SMOOTH",
"888 -63 OFFCURVE",
"943 -30 OFFCURVE",
"897 44 CURVE",
"888 42 LINE",
"915 -27 OFFCURVE",
"796 -14 OFFCURVE",
"761 -10 CURVE SMOOTH",
"736 -7 OFFCURVE",
"650 -2 OFFCURVE",
"650 -2 CURVE",
"778 28 OFFCURVE",
"903 150 OFFCURVE",
"964 264 CURVE SMOOTH",
"991 313 OFFCURVE",
"1032 399 OFFCURVE",
"1067 442 CURVE SMOOTH",
"1079 457 OFFCURVE",
"1091 470 OFFCURVE",
"1101 482 CURVE",
"1126 471 OFFCURVE",
"1147 462 OFFCURVE",
"1158 461 CURVE SMOOTH",
"1277 452 OFFCURVE",
"1282 544 OFFCURVE",
"1217 571 CURVE",
"1243 579 OFFCURVE",
"1262 603 OFFCURVE",
"1262 632 CURVE SMOOTH"
);
},
{
closed = 1;
nodes = (
"1243 606 OFFCURVE",
"1222 585 OFFCURVE",
"1197 585 CURVE SMOOTH",
"1172 585 OFFCURVE",
"1151 606 OFFCURVE",
"1151 632 CURVE SMOOTH",
"1151 657 OFFCURVE",
"1172 678 OFFCURVE",
"1197 678 CURVE SMOOTH",
"1222 678 OFFCURVE",
"1243 657 OFFCURVE",
"1243 632 CURVE SMOOTH"
);
}
);
width = 857;
}
);
note = Aring;
unicode = 00C5;
},
{
color = 11;
glyphname = Atilde;
lastChange = "2021-07-08 20:43:58 +0000";
layers = (
{
hints = (
{
horizontal = 1;
place = "{-63, 52}";
type = Stem;
},
{
horizontal = 1;
place = "{625, 22}";
type = Stem;
}
);
layerId = "2072D606-CE9C-4455-8FDE-AAFE9455DC77";
paths = (
{
closed = 1;
nodes = (
"1090 549 OFFCURVE",
"1133 562 OFFCURVE",
"1176 562 CURVE SMOOTH",
"1245 562 OFFCURVE",
"1251 468 OFFCURVE",
"1150 483 CURVE SMOOTH",
"1143 484 OFFCURVE",
"1130 489 OFFCURVE",
"1114 497 CURVE",
"1134 519 OFFCURVE",
"1149 534 OFFCURVE",
"1155 541 CURVE",
"1149 548 LINE",
"1132 534 OFFCURVE",
"1115 519 OFFCURVE",
"1099 504 CURVE",
"1083 511 OFFCURVE",
"1066 520 OFFCURVE",
"1049 529 CURVE"
);
},
{
closed = 1;
nodes = (
"1013 421 OFFCURVE",
"948 343 OFFCURVE",
"886 266 CURVE",
"755 266 LINE",
"827 348 OFFCURVE",
"923 459 OFFCURVE",
"1031 519 CURVE",
"1049 509 OFFCURVE",
"1067 499 OFFCURVE",
"1085 490 CURVE"
);
},
{
closed = 1;
nodes = (
"349 -121 OFFCURVE",
"353 -107 OFFCURVE",
"361 -94 CURVE SMOOTH",
"368 -82 OFFCURVE",
"378 -72 OFFCURVE",
"390 -65 CURVE",
"390 -65 LINE",
"390 -65 LINE",
"390 -64 LINE",
"390 -64 LINE",
"391 -64 LINE",
"391 -64 LINE",
"391 -64 LINE",
"391 -64 LINE",
"391 -64 LINE",
"391 -64 LINE",
"392 -64 LINE",
"392 -63 LINE",
"392 -63 LINE",
"392 -63 LINE",
"479 -6 OFFCURVE",
"593 86 OFFCURVE",
"740 250 CURVE",
"872 250 LINE",
"866 244 OFFCURVE",
"863 239 OFFCURVE",
"860 232 CURVE",
"792 139 OFFCURVE",
"673 -22 OFFCURVE",
"581 -2 CURVE",
"584 -11 LINE",
"687 -11 OFFCURVE",
"765 -61 OFFCURVE",
"839 -62 CURVE SMOOTH",
"888 -63 OFFCURVE",
"943 -30 OFFCURVE",
"897 44 CURVE",
"888 42 LINE",
"915 -27 OFFCURVE",
"796 -14 OFFCURVE",
"761 -10 CURVE SMOOTH",
"736 -7 OFFCURVE",
"650 -2 OFFCURVE",
"650 -2 CURVE",
"778 28 OFFCURVE",
"903 150 OFFCURVE",
"964 264 CURVE SMOOTH",
"991 313 OFFCURVE",
"1032 399 OFFCURVE",
"1067 442 CURVE SMOOTH",
"1079 457 OFFCURVE",
"1091 470 OFFCURVE",
"1101 482 CURVE",
"1126 471 OFFCURVE",
"1147 462 OFFCURVE",
"1158 461 CURVE SMOOTH",
"1298 451 OFFCURVE",
"1281 578 OFFCURVE",
"1176 578 CURVE SMOOTH",
"1125 578 OFFCURVE",
"1076 563 OFFCURVE",
"1031 538 CURVE",
"999 555 OFFCURVE",
"971 571 OFFCURVE",
"960 577 CURVE SMOOTH",
"926 596 OFFCURVE",
"868 623 OFFCURVE",
"805 641 CURVE",
"786 651 OFFCURVE",
"783 684 OFFCURVE",
"796 689 CURVE SMOOTH",
"814 696 OFFCURVE",
"779 705 OFFCURVE",
"770 685 CURVE SMOOTH",
"764 672 OFFCURVE",
"770 658 OFFCURVE",
"780 648 CURVE",
"747 656 OFFCURVE",
"714 662 OFFCURVE",
"683 662 CURVE SMOOTH",
"564 662 OFFCURVE",
"484 605 OFFCURVE",
"447 535 CURVE",
"434 519 OFFCURVE",
"423 515 OFFCURVE",
"406 513 CURVE",
"397 542 OFFCURVE",
"361 551 OFFCURVE",
"335 542 CURVE SMOOTH",
"310 533 OFFCURVE",
"298 519 OFFCURVE",
"287 508 CURVE SMOOTH",
"273 493 OFFCURVE",
"238 478 OFFCURVE",
"224 501 CURVE",
"221 499 OFFCURVE",
"217 493 OFFCURVE",
"223 480 CURVE SMOOTH",
"238 445 OFFCURVE",
"311 430 OFFCURVE",
"350 440 CURVE SMOOTH",
"386 450 OFFCURVE",
"408 479 OFFCURVE",
"407 503 CURVE",
"419 504 OFFCURVE",
"427 507 OFFCURVE",
"436 511 CURVE",
"393 402 OFFCURVE",
"448 274 OFFCURVE",
"612 274 CURVE SMOOTH",
"733 274 OFFCURVE",
"800 353 OFFCURVE",
"800 424 CURVE SMOOTH",
"800 480 OFFCURVE",
"771 526 OFFCURVE",
"715 539 CURVE",
"708 560 OFFCURVE",
"690 581 OFFCURVE",
"657 580 CURVE SMOOTH",
"633 579 OFFCURVE",
"602 559 OFFCURVE",
"580 536 CURVE SMOOTH",
"567 523 OFFCURVE",
"542 516 OFFCURVE",
"531 524 CURVE SMOOTH",
"523 530 OFFCURVE",
"519 535 OFFCURVE",
"519 527 CURVE SMOOTH",
"519 508 OFFCURVE",
"533 495 OFFCURVE",
"551 491 CURVE SMOOTH",
"581 485 OFFCURVE",
"623 497 OFFCURVE",
"637 508 CURVE",
"638 510 OFFCURVE",
"640 511 OFFCURVE",
"642 512 CURVE",
"639 506 OFFCURVE",
"639 499 OFFCURVE",
"642 493 CURVE SMOOTH",
"646 486 OFFCURVE",
"652 480 OFFCURVE",
"658 479 CURVE SMOOTH",
"665 477 OFFCURVE",
"668 483 OFFCURVE",
"663 487 CURVE SMOOTH",
"648 497 OFFCURVE",
"660 522 OFFCURVE",
"678 529 CURVE SMOOTH",
"684 531 OFFCURVE",
"690 531 OFFCURVE",
"696 531 CURVE",
"757 523 OFFCURVE",
"784 471 OFFCURVE",
"784 424 CURVE SMOOTH",
"784 370 OFFCURVE",
"737 305 OFFCURVE",
"645 292 CURVE",
"658 297 OFFCURVE",
"669 306 OFFCURVE",
"676 317 CURVE SMOOTH",
"690 341 OFFCURVE",
"681 368 OFFCURVE",
"654 366 CURVE SMOOTH",
"643 365 OFFCURVE",
"639 358 OFFCURVE",
"647 356 CURVE SMOOTH",
"657 353 OFFCURVE",
"659 336 OFFCURVE",
"655 322 CURVE SMOOTH",
"652 313 OFFCURVE",
"643 297 OFFCURVE",
"630 291 CURVE",
"624 290 OFFCURVE",
"618 290 OFFCURVE",
"612 290 CURVE SMOOTH",
"386 290 OFFCURVE",
"422 638 OFFCURVE",
"678 638 CURVE SMOOTH",
"775 638 OFFCURVE",
"898 592 OFFCURVE",
"952 563 CURVE SMOOTH",
"965 556 OFFCURVE",
"987 543 OFFCURVE",
"1013 528 CURVE",
"945 488 OFFCURVE",
"884 429 OFFCURVE",
"834 376 CURVE SMOOTH",
"784 325 OFFCURVE",
"723 255 OFFCURVE",
"656 184 CURVE",
"642 173 OFFCURVE",
"629 169 OFFCURVE",
"614 169 CURVE",
"618 190 OFFCURVE",
"603 212 OFFCURVE",
"584 221 CURVE SMOOTH",
"562 230 OFFCURVE",
"546 229 OFFCURVE",
"533 228 CURVE SMOOTH",
"515 228 OFFCURVE",
"484 239 OFFCURVE",
"489 263 CURVE",
"486 263 OFFCURVE",
"480 261 OFFCURVE",
"476 249 CURVE SMOOTH",
"464 219 OFFCURVE",
"500 165 OFFCURVE",
"531 148 CURVE SMOOTH",
"563 131 OFFCURVE",
"597 138 OFFCURVE",
"609 157 CURVE",
"609 158 LINE",
"619 158 OFFCURVE",
"626 159 OFFCURVE",
"633 161 CURVE",
"512 36 OFFCURVE",
"374 -84 OFFCURVE",
"248 -100 CURVE",
"248 -100 OFFCURVE",
"248 -100 OFFCURVE",
"246 -100 CURVE SMOOTH",
"227 -102 OFFCURVE",
"214 -89 OFFCURVE",
"209 -80 CURVE SMOOTH",
"201 -67 OFFCURVE",
"201 -51 OFFCURVE",
"210 -46 CURVE SMOOTH",
"230 -35 OFFCURVE",
"186 -31 OFFCURVE",
"180 -55 CURVE SMOOTH",
"174 -75 OFFCURVE",
"192 -95 OFFCURVE",
"216 -102 CURVE",
"-69 -97 OFFCURVE",
"39 306 OFFCURVE",
"285 306 CURVE SMOOTH",
"366 306 OFFCURVE",
"391 260 OFFCURVE",
"391 207 CURVE SMOOTH",
"391 135 OFFCURVE",
"310 49 OFFCURVE",
"221 66 CURVE",
"240 76 OFFCURVE",
"246 102 OFFCURVE",
"240 121 CURVE SMOOTH",
"233 142 OFFCURVE",
"222 153 OFFCURVE",
"213 162 CURVE SMOOTH",
"201 174 OFFCURVE",
"190 203 OFFCURVE",
"210 214 CURVE",
"208 216 OFFCURVE",
"202 220 OFFCURVE",
"192 216 CURVE SMOOTH",
"163 204 OFFCURVE",
"148 144 OFFCURVE",
"155 112 CURVE SMOOTH",
"161 86 OFFCURVE",
"179 69 OFFCURVE",
"196 64 CURVE",
"197 63 OFFCURVE",
"199 63 OFFCURVE",
"200 62 CURVE",
"309 22 OFFCURVE",
"416 119 OFFCURVE",
"416 206 CURVE SMOOTH",
"416 266 OFFCURVE",
"377 322 OFFCURVE",
"285 322 CURVE SMOOTH",
"231 322 OFFCURVE",
"161 297 OFFCURVE",
"105 252 CURVE",
"110 262 OFFCURVE",
"113 273 OFFCURVE",
"114 284 CURVE SMOOTH",
"114 319 OFFCURVE",
"89 342 OFFCURVE",
"61 322 CURVE SMOOTH",
"50 315 OFFCURVE",
"50 305 OFFCURVE",
"60 308 CURVE SMOOTH",
"72 311 OFFCURVE",
"84 295 OFFCURVE",
"88 277 CURVE SMOOTH",
"91 266 OFFCURVE",
"89 246 OFFCURVE",
"81 231 CURVE",
"39 189 OFFCURVE",
"10 133 OFFCURVE",
"10 67 CURVE SMOOTH",
"10 -61 OFFCURVE",
"99 -118 OFFCURVE",
"220 -118 CURVE SMOOTH",
"259 -118 OFFCURVE",
"303 -109 OFFCURVE",
"353 -84 CURVE",
"352 -86 OFFCURVE",
"350 -89 OFFCURVE",
"349 -91 CURVE SMOOTH",
"342 -105 OFFCURVE",
"339 -121 OFFCURVE",
"342 -136 CURVE",
"326 -150 OFFCURVE",
"322 -183 OFFCURVE",
"341 -210 CURVE SMOOTH",
"360 -238 OFFCURVE",
"415 -267 OFFCURVE",
"443 -253 CURVE SMOOTH",
"453 -248 OFFCURVE",
"454 -241 OFFCURVE",
"454 -239 CURVE",
"432 -246 OFFCURVE",
"418 -218 OFFCURVE",
"417 -201 CURVE SMOOTH",
"416 -188 OFFCURVE",
"416 -173 OFFCURVE",
"405 -154 CURVE SMOOTH",
"395 -136 OFFCURVE",
"370 -123 OFFCURVE",
"350 -132 CURVE"
);
},
{
closed = 1;
nodes = (
"1257 710 OFFCURVE",
"1242 675 OFFCURVE",
"1223 675 CURVE",
"1178 665 OFFCURVE",
"1135 737 OFFCURVE",
"1096 726 CURVE SMOOTH",
"1065 717 OFFCURVE",
"1037 673 OFFCURVE",
"1049 673 CURVE",
"1061 677 OFFCURVE",
"1058 699 OFFCURVE",
"1086 699 CURVE SMOOTH",
"1132 699 OFFCURVE",
"1165 639 OFFCURVE",
"1205 648 CURVE SMOOTH",
"1204 648 LINE",
"1232 656 OFFCURVE",
"1261 690 OFFCURVE",
"1261 700 CURVE"
);
}
);
width = 857;
}
);
note = Atilde;
unicode = 00C3;
},
{
glyphname = AE;
lastChange = "2021-04-20 17:37:48 +0000";
layers = (
{
hints = (
{
horizontal = 1;
place = "{-109, 23}";
type = Stem;
},
{
horizontal = 1;
place = "{245, 12}";
type = Stem;
},
{
horizontal = 1;
place = "{260, 15}";
type = Stem;
},
{
horizontal = 1;
place = "{365, 17}";
type = Stem;
},
{
horizontal = 1;
place = "{437, 12}";
type = Stem;
},
{
horizontal = 1;
place = "{586, 11}";
type = Stem;
},
{
place = "{24, 31}";
type = Stem;
},
{
place = "{370, 20}";
type = Stem;
},
{
place = "{397, 31}";
type = Stem;
},
{
place = "{721, 13}";
type = Stem;
},
{
place = "{1174, 21}";
type = Stem;
},
{
place = "{1322, 37}";
type = Stem;
},
{
place = "{1365, 20}";
type = Stem;
}
);
layerId = "2072D606-CE9C-4455-8FDE-AAFE9455DC77";
paths = (
{
closed = 1;
nodes = (
"1175 455 OFFCURVE",
"1151 445 OFFCURVE",
"1126 445 CURVE SMOOTH",
"1077 445 OFFCURVE",
"1012 474 OFFCURVE",
"967 494 CURVE",
"995 512 OFFCURVE",
"1066 530 OFFCURVE",
"1099 530 CURVE SMOOTH",
"1125 530 OFFCURVE",
"1175 517 OFFCURVE",
"1175 484 CURVE SMOOTH"
);
},
{
closed = 1;
nodes = (
"1063 375 OFFCURVE",
"1013 360 OFFCURVE",
"968 335 CURVE",
"991 374 OFFCURVE",
"1018 411 OFFCURVE",
"1050 444 CURVE",
"1062 439 OFFCURVE",
"1073 435 OFFCURVE",
"1086 432 CURVE",
"1088 409 OFFCURVE",
"1098 396 OFFCURVE",
"1114 380 CURVE"
);
},
{
closed = 1;
nodes = (
"874 247 LINE",
"724 247 LINE",
"775 320 OFFCURVE",
"880 440 OFFCURVE",
"954 486 CURVE",
"984 473 OFFCURVE",
"1012 459 OFFCURVE",
"1043 448 CURVE",
"968 382 OFFCURVE",
"927 335 OFFCURVE",
"875 248 CURVE"
);
},
{
closed = 1;
nodes = (
"398 -116 OFFCURVE",
"402 -102 OFFCURVE",
"410 -89 CURVE SMOOTH",
"418 -76 OFFCURVE",
"430 -65 OFFCURVE",
"441 -57 CURVE",
"444 -56 OFFCURVE",
"445 -54 OFFCURVE",
"445 -53 CURVE",
"495 -23 OFFCURVE",
"539 17 OFFCURVE",
"580 61 CURVE",
"579 59 OFFCURVE",
"579 57 OFFCURVE",
"578 55 CURVE SMOOTH",
"571 37 OFFCURVE",
"571 16 OFFCURVE",
"578 0 CURVE SMOOTH",
"591 -32 OFFCURVE",
"624 -42 OFFCURVE",
"642 -13 CURVE SMOOTH",
"649 -2 OFFCURVE",
"644 7 OFFCURVE",
"637 0 CURVE SMOOTH",
"627 -8 OFFCURVE",
"609 3 OFFCURVE",
"598 17 CURVE SMOOTH",
"590 27 OFFCURVE",
"583 50 OFFCURVE",
"587 68 CURVE",
"635 121 OFFCURVE",
"677 180 OFFCURVE",
"716 236 CURVE",
"868 236 LINE",
"846 198 OFFCURVE",
"830 160 OFFCURVE",
"830 114 CURVE SMOOTH",
"830 -10 OFFCURVE",
"933 -74 OFFCURVE",
"1049 -74 CURVE SMOOTH",
"1177 -74 OFFCURVE",
"1360 3 OFFCURVE",
"1360 154 CURVE SMOOTH",
"1360 215 OFFCURVE",
"1324 257 OFFCURVE",
"1262 257 CURVE SMOOTH",
"1225 257 OFFCURVE",
"1188 243 OFFCURVE",
"1175 205 CURVE SMOOTH",
"1174 201 OFFCURVE",
"1171 191 OFFCURVE",
"1171 187 CURVE SMOOTH",
"1171 183 OFFCURVE",
"1173 170 OFFCURVE",
"1179 170 CURVE SMOOTH",
"1184 170 OFFCURVE",
"1182 184 OFFCURVE",
"1182 187 CURVE SMOOTH",
"1182 224 OFFCURVE",
"1218 245 OFFCURVE",
"1252 245 CURVE SMOOTH",
"1302 245 OFFCURVE",
"1322 209 OFFCURVE",
"1322 162 CURVE SMOOTH",
"1322 31 OFFCURVE",
"1186 -60 OFFCURVE",
"1064 -60 CURVE SMOOTH",
"962 -60 OFFCURVE",
"888 7 OFFCURVE",
"888 111 CURVE SMOOTH",
"888 144 OFFCURVE",
"897 178 OFFCURVE",
"910 208 CURVE SMOOTH",
"951 300 OFFCURVE",
"1036 347 OFFCURVE",
"1131 365 CURVE",
"1159 343 OFFCURVE",
"1197 331 OFFCURVE",
"1232 331 CURVE SMOOTH",
"1245 331 OFFCURVE",
"1269 334 OFFCURVE",
"1269 351 CURVE SMOOTH",
"1269 382 OFFCURVE",
"1180 382 OFFCURVE",
"1158 382 CURVE SMOOTH",
"1149 382 OFFCURVE",
"1141 382 OFFCURVE",
"1133 381 CURVE",
"1122 396 OFFCURVE",
"1118 406 OFFCURVE",
"1118 426 CURVE",
"1152 424 OFFCURVE",
"1196 441 OFFCURVE",
"1196 482 CURVE SMOOTH",
"1196 505 OFFCURVE",
"1174 525 OFFCURVE",
"1154 534 CURVE",
"1186 571 OFFCURVE",
"1230 586 OFFCURVE",
"1277 586 CURVE SMOOTH",
"1320 586 OFFCURVE",
"1365 566 OFFCURVE",
"1365 517 CURVE SMOOTH",
"1365 475 OFFCURVE",
"1323 449 OFFCURVE",
"1285 449 CURVE SMOOTH",
"1275 449 OFFCURVE",
"1265 458 OFFCURVE",
"1265 468 CURVE SMOOTH",
"1265 473 OFFCURVE",
"1269 477 OFFCURVE",
"1269 480 CURVE SMOOTH",
"1269 482 OFFCURVE",
"1267 484 OFFCURVE",
"1265 484 CURVE SMOOTH",
"1263 484 OFFCURVE",
"1261 481 OFFCURVE",
"1261 478 CURVE",
"1260 475 OFFCURVE",
"1259 472 OFFCURVE",
"1259 469 CURVE SMOOTH",
"1259 447 OFFCURVE",
"1288 438 OFFCURVE",
"1306 438 CURVE SMOOTH",
"1348 438 OFFCURVE",
"1385 476 OFFCURVE",
"1385 518 CURVE SMOOTH",
"1385 584 OFFCURVE",
"1323 597 OFFCURVE",
"1270 597 CURVE SMOOTH",
"1218 597 OFFCURVE",
"1155 581 OFFCURVE",
"1120 541 CURVE",
"1070 544 OFFCURVE",
"1000 530 OFFCURVE",
"959 498 CURVE",
"942 510 OFFCURVE",
"922 519 OFFCURVE",
"904 528 CURVE SMOOTH",
"844 558 OFFCURVE",
"777 584 OFFCURVE",
"709 599 CURVE",
"694 611 OFFCURVE",
"692 639 OFFCURVE",
"704 644 CURVE SMOOTH",
"722 651 OFFCURVE",
"687 660 OFFCURVE",
"678 640 CURVE SMOOTH",
"672 627 OFFCURVE",
"678 613 OFFCURVE",
"688 603 CURVE",
"673 606 OFFCURVE",
"658 608 OFFCURVE",
"643 609 CURVE SMOOTH",
"636 610 OFFCURVE",
"628 610 OFFCURVE",
"621 610 CURVE SMOOTH",
"511 610 OFFCURVE",
"397 541 OFFCURVE",
"397 421 CURVE SMOOTH",
"397 325 OFFCURVE",
"473 260 OFFCURVE",
"566 260 CURVE SMOOTH",
"586 260 OFFCURVE",
"605 262 OFFCURVE",
"624 267 CURVE SMOOTH",
"678 281 OFFCURVE",
"735 328 OFFCURVE",
"735 388 CURVE SMOOTH",
"735 408 OFFCURVE",
"727 425 OFFCURVE",
"712 437 CURVE",
"707 459 OFFCURVE",
"689 481 OFFCURVE",
"654 480 CURVE SMOOTH",
"630 480 OFFCURVE",
"599 460 OFFCURVE",
"577 436 CURVE SMOOTH",
"564 424 OFFCURVE",
"539 416 OFFCURVE",
"528 425 CURVE SMOOTH",
"520 430 OFFCURVE",
"516 436 OFFCURVE",
"516 427 CURVE SMOOTH",
"516 409 OFFCURVE",
"530 396 OFFCURVE",
"548 392 CURVE SMOOTH",
"578 386 OFFCURVE",
"620 398 OFFCURVE",
"634 409 CURVE SMOOTH",
"635 410 OFFCURVE",
"637 412 OFFCURVE",
"639 413 CURVE",
"636 407 OFFCURVE",
"636 400 OFFCURVE",
"639 394 CURVE SMOOTH",
"643 386 OFFCURVE",
"649 381 OFFCURVE",
"655 379 CURVE SMOOTH",
"662 378 OFFCURVE",
"665 384 OFFCURVE",
"660 387 CURVE SMOOTH",
"645 398 OFFCURVE",
"657 422 OFFCURVE",
"675 430 CURVE",
"687 432 OFFCURVE",
"698 432 OFFCURVE",
"708 430 CURVE",
"717 420 OFFCURVE",
"721 408 OFFCURVE",
"721 394 CURVE SMOOTH",
"721 337 OFFCURVE",
"657 283 OFFCURVE",
"603 276 CURVE SMOOTH",
"594 275 OFFCURVE",
"584 275 OFFCURVE",
"574 275 CURVE SMOOTH",
"519 275 OFFCURVE",
"469 294 OFFCURVE",
"444 346 CURVE SMOOTH",
"434 367 OFFCURVE",
"428 390 OFFCURVE",
"428 413 CURVE SMOOTH",
"428 523 OFFCURVE",
"552 573 OFFCURVE",
"645 573 CURVE SMOOTH",
"675 573 OFFCURVE",
"705 568 OFFCURVE",
"734 561 CURVE SMOOTH",
"804 541 OFFCURVE",
"877 519 OFFCURVE",
"944 490 CURVE",
"857 440 OFFCURVE",
"737 287 OFFCURVE",
"679 209 CURVE SMOOTH",
"583 79 OFFCURVE",
"438 -86 OFFCURVE",
"262 -86 CURVE SMOOTH",
"144 -86 OFFCURVE",
"56 -16 OFFCURVE",
"56 106 CURVE SMOOTH",
"56 216 OFFCURVE",
"132 294 OFFCURVE",
"243 294 CURVE SMOOTH",
"313 294 OFFCURVE",
"370 248 OFFCURVE",
"370 175 CURVE SMOOTH",
"370 102 OFFCURVE",
"323 56 OFFCURVE",
"251 56 CURVE SMOOTH",
"244 56 OFFCURVE",
"224 58 OFFCURVE",
"214 61 CURVE",
"229 75 OFFCURVE",
"226 100 OFFCURVE",
"213 115 CURVE SMOOTH",
"201 131 OFFCURVE",
"188 136 OFFCURVE",
"178 140 CURVE SMOOTH",
"164 146 OFFCURVE",
"144 167 OFFCURVE",
"157 183 CURVE",
"155 184 OFFCURVE",
"149 185 OFFCURVE",
"141 178 CURVE SMOOTH",
"121 159 OFFCURVE",
"129 103 OFFCURVE",
"146 79 CURVE SMOOTH",
"163 56 OFFCURVE",
"189 48 OFFCURVE",
"206 55 CURVE",
"217 50 OFFCURVE",
"244 48 OFFCURVE",
"255 48 CURVE SMOOTH",
"331 48 OFFCURVE",
"390 92 OFFCURVE",
"390 173 CURVE SMOOTH",
"390 238 OFFCURVE",
"342 281 OFFCURVE",
"285 297 CURVE",
"285 298 OFFCURVE",
"283 299 OFFCURVE",
"281 299 CURVE SMOOTH",
"255 304 OFFCURVE",
"237 314 OFFCURVE",
"222 329 CURVE",
"242 340 OFFCURVE",
"248 368 OFFCURVE",
"241 388 CURVE SMOOTH",
"233 410 OFFCURVE",
"221 421 OFFCURVE",
"211 430 CURVE SMOOTH",
"198 443 OFFCURVE",
"185 473 OFFCURVE",
"205 485 CURVE",
"203 487 OFFCURVE",
"197 491 OFFCURVE",
"186 486 CURVE SMOOTH",
"156 473 OFFCURVE",
"143 409 OFFCURVE",
"152 375 CURVE SMOOTH",
"161 341 OFFCURVE",
"190 322 OFFCURVE",
"211 326 CURVE",
"212 325 OFFCURVE",
"212 324 OFFCURVE",
"213 323 CURVE SMOOTH",
"221 314 OFFCURVE",
"230 309 OFFCURVE",
"239 305 CURVE",
"233 305 LINE SMOOTH",
"117 306 OFFCURVE",
"24 213 OFFCURVE",
"24 97 CURVE SMOOTH",
"24 -32 OFFCURVE",
"125 -109 OFFCURVE",
"248 -109 CURVE SMOOTH",
"306 -109 OFFCURVE",
"358 -96 OFFCURVE",
"406 -73 CURVE",
"403 -77 OFFCURVE",
"400 -81 OFFCURVE",
"398 -86 CURVE",
"390 -99 OFFCURVE",
"387 -115 OFFCURVE",
"391 -131 CURVE",
"375 -144 OFFCURVE",
"371 -177 OFFCURVE",
"390 -205 CURVE SMOOTH",
"409 -233 OFFCURVE",
"464 -261 OFFCURVE",
"491 -248 CURVE SMOOTH",
"502 -242 OFFCURVE",
"503 -236 OFFCURVE",
"503 -234 CURVE",
"481 -240 OFFCURVE",
"467 -213 OFFCURVE",
"466 -196 CURVE SMOOTH",
"465 -183 OFFCURVE",
"465 -168 OFFCURVE",
"454 -149 CURVE SMOOTH",
"443 -131 OFFCURVE",
"419 -118 OFFCURVE",
"399 -126 CURVE"
);
}
);
width = 1366;
}
);
note = AE;
unicode = 00C6;
},
{
glyphname = B;
lastChange = "2021-04-20 17:37:48 +0000";
layers = (
{
hints = (
{
horizontal = 1;
place = "{621, -20}";
target = down;
type = TopGhost;
}
);
layerId = "2072D606-CE9C-4455-8FDE-AAFE9455DC77";
paths = (
{
closed = 1;
nodes = (
"750 558 LINE",
"837 468 OFFCURVE",
"767 332 OFFCURVE",
"560 319 CURVE",
"623 417 OFFCURVE",
"690 515 OFFCURVE",
"744 554 CURVE SMOOTH"
);
},
{
closed = 1;
nodes = (
"360 324 OFFCURVE",
"355 319 OFFCURVE",
"350 314 CURVE SMOOTH",
"301 267 OFFCURVE",
"251 242 OFFCURVE",
"206 235 CURVE",
"228 301 OFFCURVE",
"290 347 OFFCURVE",
"364 329 CURVE"
);
},
{
closed = 1;
nodes = (
"73 243 OFFCURVE",
"20 330 OFFCURVE",
"74 442 CURVE SMOOTH",
"149 597 OFFCURVE",
"330 637 OFFCURVE",
"489 638 CURVE SMOOTH",
"607 639 OFFCURVE",
"689 611 OFFCURVE",
"736 572 CURVE",
"734 570 LINE",
"641 502 OFFCURVE",
"553 392 OFFCURVE",
"500 314 CURVE SMOOTH",
"476 277 LINE",
"456 298 OFFCURVE",
"433 316 OFFCURVE",
"408 329 CURVE SMOOTH",
"401 332 OFFCURVE",
"395 335 OFFCURVE",
"388 338 CURVE",
"402 360 OFFCURVE",
"411 384 OFFCURVE",
"415 408 CURVE",
"416 409 OFFCURVE",
"417 411 OFFCURVE",
"418 413 CURVE",
"420 433 OFFCURVE",
"426 449 OFFCURVE",
"446 465 CURVE",
"466 453 OFFCURVE",
"496 456 OFFCURVE",
"514 468 CURVE SMOOTH",
"551 492 OFFCURVE",
"545 516 OFFCURVE",
"568 526 CURVE SMOOTH",
"577 530 OFFCURVE",
"595 530 OFFCURVE",
"607 527 CURVE",
"608 530 OFFCURVE",
"609 535 OFFCURVE",
"600 544 CURVE SMOOTH",
"575 565 OFFCURVE",
"500 558 OFFCURVE",
"467 540 CURVE SMOOTH",
"433 522 OFFCURVE",
"423 491 OFFCURVE",
"436 474 CURVE",
"429 465 OFFCURVE",
"422 457 OFFCURVE",
"417 448 CURVE",
"414 482 OFFCURVE",
"399 512 OFFCURVE",
"370 529 CURVE",
"360 539 OFFCURVE",
"345 580 OFFCURVE",
"364 577 CURVE SMOOTH",
"375 576 OFFCURVE",
"379 579 OFFCURVE",
"367 586 CURVE SMOOTH",
"356 592 OFFCURVE",
"330 584 OFFCURVE",
"331 568 CURVE SMOOTH",
"332 555 OFFCURVE",
"340 546 OFFCURVE",
"347 539 CURVE",
"333 543 OFFCURVE",
"316 545 OFFCURVE",
"297 544 CURVE SMOOTH",
"256 543 OFFCURVE",
"222 502 OFFCURVE",
"226 442 CURVE SMOOTH",
"228 425 OFFCURVE",
"216 401 OFFCURVE",
"202 398 CURVE SMOOTH",
"193 397 OFFCURVE",
"186 397 OFFCURVE",
"193 391 CURVE SMOOTH",
"206 379 OFFCURVE",
"224 383 OFFCURVE",
"238 393 CURVE SMOOTH",
"263 411 OFFCURVE",
"279 453 OFFCURVE",
"280 470 CURVE SMOOTH",
"281 507 OFFCURVE",
"305 519 OFFCURVE",
"320 528 CURVE SMOOTH",
"325 531 OFFCURVE",
"328 533 OFFCURVE",
"328 535 CURVE",
"399 525 OFFCURVE",
"430 425 OFFCURVE",
"374 343 CURVE",
"264 381 OFFCURVE",
"178 321 OFFCURVE",
"162 234 CURVE"
);
},
{
closed = 1;
nodes = (
"576 308 OFFCURVE",
"586 308 OFFCURVE",
"595 308 CURVE SMOOTH",
"810 296 OFFCURVE",
"748 -36 OFFCURVE",
"462 -36 CURVE SMOOTH",
"422 -36 OFFCURVE",
"381 -27 OFFCURVE",
"342 -10 CURVE",
"377 32 OFFCURVE",
"411 79 OFFCURVE",
"444 132 CURVE SMOOTH",
"460 157 OFFCURVE",
"478 186 OFFCURVE",
"497 218 CURVE",
"509 194 OFFCURVE",
"515 169 OFFCURVE",
"515 143 CURVE SMOOTH",
"515 102 OFFCURVE",
"497 58 OFFCURVE",
"452 48 CURVE",
"454 43 LINE",
"497 47 OFFCURVE",
"530 94 OFFCURVE",
"530 144 CURVE SMOOTH",
"530 148 OFFCURVE",
"530 153 OFFCURVE",
"530 157 CURVE",
"531 156 LINE",
"533 151 OFFCURVE",
"556 134 OFFCURVE",
"572 135 CURVE SMOOTH",
"600 137 OFFCURVE",
"602 159 OFFCURVE",
"598 170 CURVE SMOOTH",
"596 176 OFFCURVE",
"587 177 OFFCURVE",
"584 167 CURVE SMOOTH",
"580 151 OFFCURVE",
"542 156 OFFCURVE",
"530 164 CURVE",
"530 163 OFFCURVE",
"529 163 OFFCURVE",
"529 163 CURVE",
"526 187 OFFCURVE",
"518 211 OFFCURVE",
"506 233 CURVE",
"521 257 OFFCURVE",
"537 282 OFFCURVE",
"552 307 CURVE",
"557 307 OFFCURVE",
"561 308 OFFCURVE",
"565 308 CURVE SMOOTH"
);
},
{
closed = 1;
nodes = (
"46 -17 OFFCURVE",
"14 -21 OFFCURVE",
"2 -41 CURVE",
"-34 -40 OFFCURVE",
"-76 -67 OFFCURVE",
"-84 -102 CURVE SMOOTH",
"-98 -166 OFFCURVE",
"-45 -201 OFFCURVE",
"5 -203 CURVE SMOOTH",
"120 -210 OFFCURVE",
"230 -141 OFFCURVE",
"333 -21 CURVE",
"358 -32 OFFCURVE",
"384 -40 OFFCURVE",
"410 -45 CURVE",
"401 -48 OFFCURVE",
"392 -52 OFFCURVE",
"384 -59 CURVE",
"383 -59 LINE",
"358 -39 OFFCURVE",
"331 -69 OFFCURVE",
"324 -81 CURVE SMOOTH",
"317 -94 OFFCURVE",
"303 -128 OFFCURVE",
"316 -150 CURVE",
"319 -140 OFFCURVE",
"333 -111 OFFCURVE",
"373 -108 CURVE SMOOTH",
"390 -107 OFFCURVE",
"399 -82 OFFCURVE",
"390 -66 CURVE",
"403 -56 OFFCURVE",
"421 -50 OFFCURVE",
"442 -49 CURVE",
"450 -50 OFFCURVE",
"458 -50 OFFCURVE",
"466 -50 CURVE SMOOTH",
"800 -50 OFFCURVE",
"863 267 OFFCURVE",
"637 312 CURVE",
"819 338 OFFCURVE",
"888 485 OFFCURVE",
"780 577 CURVE",
"854 619 OFFCURVE",
"906 605 OFFCURVE",
"926 583 CURVE",
"932 587 LINE",
"924 612 OFFCURVE",
"846 632 OFFCURVE",
"765 589 CURVE",
"710 628 OFFCURVE",
"620 654 OFFCURVE",
"489 653 CURVE SMOOTH",
"374 652 OFFCURVE",
"230 637 OFFCURVE",
"129 568 CURVE",
"127 568 OFFCURVE",
"124 567 OFFCURVE",
"119 564 CURVE",
"102 560 OFFCURVE",
"56 570 OFFCURVE",
"58 590 CURVE SMOOTH",
"60 603 OFFCURVE",
"54 601 OFFCURVE",
"50 597 CURVE SMOOTH",
"41 586 OFFCURVE",
"39 559 OFFCURVE",
"56 549 CURVE SMOOTH",
"69 541 OFFCURVE",
"89 543 OFFCURVE",
"104 549 CURVE",
"76 525 OFFCURVE",
"52 496 OFFCURVE",
"34 460 CURVE SMOOTH",
"-26 335 OFFCURVE",
"49 231 OFFCURVE",
"160 221 CURVE",
"157 188 OFFCURVE",
"163 151 OFFCURVE",
"181 115 CURVE",
"167 120 OFFCURVE",
"154 124 OFFCURVE",
"138 122 CURVE",
"115 150 OFFCURVE",
"54 125 OFFCURVE",
"40 111 CURVE SMOOTH",
"26 97 OFFCURVE",
"-5 56 OFFCURVE",
"3 22 CURVE",
"12 35 OFFCURVE",
"40 64 OFFCURVE",
"97 56 CURVE SMOOTH",
"132 51 OFFCURVE",
"154 85 OFFCURVE",
"144 112 CURVE",
"160 113 OFFCURVE",
"174 106 OFFCURVE",
"194 92 CURVE SMOOTH",
"195 91 LINE SMOOTH",
"209 71 OFFCURVE",
"226 51 OFFCURVE",
"248 32 CURVE SMOOTH",
"258 23 OFFCURVE",
"268 15 OFFCURVE",
"279 8 CURVE",
"184 -106 OFFCURVE",
"86 -193 OFFCURVE",
"6 -189 CURVE SMOOTH",
"-39 -186 OFFCURVE",
"-76 -156 OFFCURVE",
"-64 -106 CURVE SMOOTH",
"-58 -76 OFFCURVE",
"-24 -48 OFFCURVE",
"3 -49 CURVE SMOOTH",
"4 -49 LINE",
"14 -52 OFFCURVE",
"29 -61 OFFCURVE",
"32 -86 CURVE SMOOTH",
"33 -98 OFFCURVE",
"42 -116 OFFCURVE",
"58 -122 CURVE SMOOTH",
"67 -126 OFFCURVE",
"82 -123 OFFCURVE",
"90 -111 CURVE SMOOTH",
"93 -105 OFFCURVE",
"88 -105 OFFCURVE",
"83 -108 CURVE SMOOTH",
"74 -114 OFFCURVE",
"64 -100 OFFCURVE",
"66 -87 CURVE SMOOTH",
"68 -75 OFFCURVE",
"67 -65 OFFCURVE",
"66 -57 CURVE",
"71 -59 OFFCURVE",
"77 -61 OFFCURVE",
"81 -61 CURVE SMOOTH",
"105 -59 OFFCURVE",
"107 -40 OFFCURVE",
"104 -31 CURVE SMOOTH",
"102 -26 OFFCURVE",
"94 -25 OFFCURVE",
"92 -34 CURVE SMOOTH",
"90 -43 OFFCURVE",
"73 -44 OFFCURVE",
"60 -41 CURVE"
);
},
{
closed = 1;
nodes = (
"312 263 OFFCURVE",
"337 280 OFFCURVE",
"361 304 CURVE SMOOTH",
"367 310 OFFCURVE",
"374 317 OFFCURVE",
"379 325 CURVE",
"385 323 OFFCURVE",
"392 320 OFFCURVE",
"398 317 CURVE SMOOTH",
"424 305 OFFCURVE",
"448 286 OFFCURVE",
"467 264 CURVE",
"413 184 OFFCURVE",
"352 96 OFFCURVE",
"289 20 CURVE",
"280 26 OFFCURVE",
"272 33 OFFCURVE",
"264 40 CURVE SMOOTH",
"203 95 OFFCURVE",
"188 164 OFFCURVE",
"203 222 CURVE",
"222 224 OFFCURVE",
"242 229 OFFCURVE",
"262 238 CURVE",
"279 242 OFFCURVE",
"295 242 OFFCURVE",
"309 238 CURVE",
"307 234 OFFCURVE",
"306 231 OFFCURVE",
"306 226 CURVE SMOOTH",
"306 211 OFFCURVE",
"318 204 OFFCURVE",
"326 202 CURVE SMOOTH",
"335 199 OFFCURVE",
"345 195 OFFCURVE",
"349 188 CURVE SMOOTH",
"355 177 OFFCURVE",
"355 166 OFFCURVE",
"355 160 CURVE",
"370 175 OFFCURVE",
"370 207 OFFCURVE",
"367 219 CURVE SMOOTH",
"358 252 OFFCURVE",
"328 258 OFFCURVE",
"314 244 CURVE",
"305 248 OFFCURVE",
"296 250 OFFCURVE",
"288 250 CURVE"
);
}
);
width = 722;
}
);
note = B;
unicode = 0042;
},
{
glyphname = C;
lastChange = "2021-04-20 17:37:48 +0000";
layers = (
{
hints = (
{
horizontal = 1;
place = "{594, 14}";
type = Stem;
},
{
horizontal = 1;
place = "{653, 22}";
type = Stem;
}
);
layerId = "2072D606-CE9C-4455-8FDE-AAFE9455DC77";
paths = (
{
closed = 1;
nodes = (
"558 388 OFFCURVE",
"409 390 OFFCURVE",
"309 428 CURVE",
"380 499 OFFCURVE",
"545 594 OFFCURVE",
"650 592 CURVE SMOOTH",
"808 589 OFFCURVE",
"794 470 OFFCURVE",
"661 424 CURVE SMOOTH"
);
},
{
closed = 1;
nodes = (
"334 156 OFFCURVE",
"350 184 OFFCURVE",
"369 210 CURVE SMOOTH",
"483 360 OFFCURVE",
"613 253 OFFCURVE",
"524 116 CURVE SMOOTH",
"474 38 OFFCURVE",
"377 -38 OFFCURVE",
"284 -54 CURVE",
"286 -11 OFFCURVE",
"292 32 OFFCURVE",
"304 74 CURVE",
"332 78 OFFCURVE",
"360 89 OFFCURVE",
"369 107 CURVE SMOOTH",
"374 118 OFFCURVE",
"371 124 OFFCURVE",
"369 126 CURVE",
"358 110 OFFCURVE",
"336 117 OFFCURVE",
"322 127 CURVE"
);
},
{
closed = 1;
nodes = (
"204 117 OFFCURVE",
"222 87 OFFCURVE",
"256 77 CURVE SMOOTH",
"265 74 OFFCURVE",
"275 73 OFFCURVE",
"287 73 CURVE",
"274 27 OFFCURVE",
"267 -19 OFFCURVE",
"266 -56 CURVE",
"155 -64 OFFCURVE",
"90 26 OFFCURVE",
"159 196 CURVE SMOOTH",
"163 207 OFFCURVE",
"168 218 OFFCURVE",
"173 229 CURVE",
"172 218 OFFCURVE",
"171 206 OFFCURVE",
"173 197 CURVE SMOOTH",
"177 173 OFFCURVE",
"197 146 OFFCURVE",
"210 145 CURVE SMOOTH",
"211 145 LINE",
"210 143 OFFCURVE",
"209 141 OFFCURVE",
"209 139 CURVE"
);
},
{
closed = 1;
nodes = (
"245 -193 LINE",
"262 -185 OFFCURVE",
"272 -168 OFFCURVE",
"276 -150 CURVE",
"287 -181 OFFCURVE",
"306 -209 OFFCURVE",
"336 -207 CURVE",
"336 -198 LINE",
"287 -194 OFFCURVE",
"280 -112 OFFCURVE",
"282 -75 CURVE",
"305 -73 OFFCURVE",
"328 -67 OFFCURVE",
"351 -59 CURVE SMOOTH",
"362 -56 OFFCURVE",
"375 -55 OFFCURVE",
"386 -56 CURVE SMOOTH",
"405 -57 OFFCURVE",
"423 -64 OFFCURVE",
"432 -73 CURVE",
"409 -87 OFFCURVE",
"404 -121 OFFCURVE",
"415 -145 CURVE SMOOTH",
"426 -171 OFFCURVE",
"441 -182 OFFCURVE",
"453 -192 CURVE SMOOTH",
"470 -206 OFFCURVE",
"488 -241 OFFCURVE",
"465 -258 CURVE",
"468 -260 OFFCURVE",
"475 -264 OFFCURVE",
"488 -257 CURVE SMOOTH",
"522 -239 OFFCURVE",
"533 -162 OFFCURVE",
"519 -122 CURVE SMOOTH",
"505 -82 OFFCURVE",
"469 -61 OFFCURVE",
"443 -68 CURVE",
"443 -68 LINE",
"430 -53 OFFCURVE",
"411 -44 OFFCURVE",
"392 -42 CURVE",
"391 -41 LINE",
"452 -10 OFFCURVE",
"506 39 OFFCURVE",
"544 93 CURVE SMOOTH",
"659 260 OFFCURVE",
"488 390 OFFCURVE",
"357 222 CURVE SMOOTH",
"338 198 OFFCURVE",
"323 169 OFFCURVE",
"310 138 CURVE",
"301 148 OFFCURVE",
"291 158 OFFCURVE",
"273 165 CURVE SMOOTH",
"253 173 OFFCURVE",
"226 169 OFFCURVE",
"214 151 CURVE",
"210 153 LINE SMOOTH",
"197 161 OFFCURVE",
"187 182 OFFCURVE",
"184 206 CURVE SMOOTH",
"182 225 OFFCURVE",
"186 246 OFFCURVE",
"192 264 CURVE",
"192 266 OFFCURVE",
"193 267 OFFCURVE",
"193 268 CURVE",
"222 323 OFFCURVE",
"259 374 OFFCURVE",
"298 415 CURVE",
"313 410 OFFCURVE",
"330 404 OFFCURVE",
"348 400 CURVE",
"327 396 OFFCURVE",
"310 382 OFFCURVE",
"311 364 CURVE SMOOTH",
"311 339 OFFCURVE",
"354 333 OFFCURVE",
"338 348 CURVE SMOOTH",
"330 355 OFFCURVE",
"334 371 OFFCURVE",
"345 381 CURVE",
"350 387 OFFCURVE",
"360 393 OFFCURVE",
"372 394 CURVE",
"470 372 OFFCURVE",
"583 368 OFFCURVE",
"672 401 CURVE SMOOTH",
"842 463 OFFCURVE",
"831 612 OFFCURVE",
"636 612 CURVE SMOOTH",
"497 612 OFFCURVE",
"360 545 OFFCURVE",
"255 447 CURVE",
"192 473 OFFCURVE",
"145 503 OFFCURVE",
"117 533 CURVE SMOOTH",
"16 643 OFFCURVE",
"109 752 OFFCURVE",
"263 679 CURVE",
"274 665 OFFCURVE",
"273 643 OFFCURVE",
"270 631 CURVE SMOOTH",
"266 615 OFFCURVE",
"254 600 OFFCURVE",
"243 603 CURVE SMOOTH",
"234 606 OFFCURVE",
"234 597 OFFCURVE",
"243 590 CURVE SMOOTH",
"268 572 OFFCURVE",
"293 592 OFFCURVE",
"293 623 CURVE SMOOTH",
"293 640 OFFCURVE",
"286 657 OFFCURVE",
"274 670 CURVE",
"273 672 OFFCURVE",
"271 674 OFFCURVE",
"270 675 CURVE",
"279 671 OFFCURVE",
"289 665 OFFCURVE",
"299 659 CURVE SMOOTH",
"302 657 OFFCURVE",
"311 648 OFFCURVE",
"318 641 CURVE",
"327 628 OFFCURVE",
"343 616 OFFCURVE",
"356 614 CURVE SMOOTH",
"394 608 OFFCURVE",
"413 624 OFFCURVE",
"433 640 CURVE SMOOTH",
"447 652 OFFCURVE",
"464 669 OFFCURVE",
"484 671 CURVE SMOOTH",
"495 672 OFFCURVE",
"505 669 OFFCURVE",
"510 662 CURVE",
"507 687 OFFCURVE",
"488 710 OFFCURVE",
"452 709 CURVE SMOOTH",
"428 708 OFFCURVE",
"396 690 OFFCURVE",
"377 672 CURVE SMOOTH",
"365 660 OFFCURVE",
"342 643 OFFCURVE",
"324 655 CURVE",
"320 659 OFFCURVE",
"316 662 OFFCURVE",
"314 662 CURVE",
"115 796 OFFCURVE",
"-36 658 OFFCURVE",
"87 525 CURVE SMOOTH",
"97 515 OFFCURVE",
"111 504 OFFCURVE",
"127 493 CURVE",
"124 493 LINE SMOOTH",
"107 494 OFFCURVE",
"90 487 OFFCURVE",
"77 475 CURVE",
"56 483 OFFCURVE",
"22 469 OFFCURVE",
"7 436 CURVE SMOOTH",
"-9 403 OFFCURVE",
"-7 335 OFFCURVE",
"22 316 CURVE SMOOTH",
"32 309 OFFCURVE",
"39 312 OFFCURVE",
"41 314 CURVE",
"23 330 OFFCURVE",
"42 359 OFFCURVE",
"57 369 CURVE SMOOTH",
"68 377 OFFCURVE",
"83 385 OFFCURVE",
"95 406 CURVE SMOOTH",
"106 426 OFFCURVE",
"105 456 OFFCURVE",
"86 470 CURVE",
"95 477 OFFCURVE",
"111 481 OFFCURVE",
"127 481 CURVE SMOOTH",
"139 480 OFFCURVE",
"152 477 OFFCURVE",
"163 473 CURVE",
"188 459 OFFCURVE",
"216 447 OFFCURVE",
"243 436 CURVE",
"185 379 OFFCURVE",
"129 308 OFFCURVE",
"98 238 CURVE SMOOTH",
"7 27 OFFCURVE",
"122 -83 OFFCURVE",
"264 -77 CURVE",
"264 -89 OFFCURVE",
"265 -107 OFFCURVE",
"269 -125 CURVE",
"270 -143 OFFCURVE",
"262 -177 OFFCURVE",
"244 -186 CURVE",
"240 -170 OFFCURVE",
"221 -161 OFFCURVE",
"205 -163 CURVE SMOOTH",
"188 -165 OFFCURVE",
"178 -172 OFFCURVE",
"170 -177 CURVE SMOOTH",
"159 -184 OFFCURVE",
"135 -189 OFFCURVE",
"129 -172 CURVE",
"127 -173 OFFCURVE",
"124 -177 OFFCURVE",
"125 -186 CURVE SMOOTH",
"130 -209 OFFCURVE",
"173 -230 OFFCURVE",
"199 -229 CURVE SMOOTH",
"226 -228 OFFCURVE",
"244 -210 OFFCURVE",
"245 -193 CURVE"
);
}
);
width = 525;
}
);
note = C;
unicode = 0043;
},
{
color = 11;
glyphname = Ccedilla;
lastChange = "2021-07-08 20:43:58 +0000";
layers = (
{
hints = (
{
horizontal = 1;
place = "{-275, 17}";
type = Stem;
},
{
horizontal = 1;
place = "{-123, 18}";
type = Stem;
},
{
horizontal = 1;
place = "{-78, 17}";
type = Stem;
},
{
horizontal = 1;
place = "{281, 18}";
type = Stem;
},
{
horizontal = 1;
place = "{376, 22}";
type = Stem;
},
{
horizontal = 1;
place = "{592, 19}";
type = Stem;
},
{
place = "{56, 63}";
type = Stem;
},
{
place = "{133, 203}";
type = Stem;
},
{
place = "{544, 28}";
type = Stem;
},
{
place = "{764, 17}";
type = Stem;
}
);
layerId = "2072D606-CE9C-4455-8FDE-AAFE9455DC77";
paths = (
{
closed = 1;
nodes = (
"558 388 OFFCURVE",
"409 390 OFFCURVE",
"309 428 CURVE",
"380 499 OFFCURVE",
"546 594 OFFCURVE",
"650 592 CURVE SMOOTH",
"808 589 OFFCURVE",
"794 470 OFFCURVE",
"661 424 CURVE SMOOTH"
);
},
{
closed = 1;
nodes = (
"200 123 OFFCURVE",
"218 93 OFFCURVE",
"252 82 CURVE SMOOTH",
"286 71 OFFCURVE",
"351 83 OFFCURVE",
"365 113 CURVE SMOOTH",
"370 124 OFFCURVE",
"367 130 OFFCURVE",
"365 132 CURVE",
"352 112 OFFCURVE",
"322 126 OFFCURVE",
"310 139 CURVE SMOOTH",
"301 149 OFFCURVE",
"291 162 OFFCURVE",
"269 171 CURVE SMOOTH",
"249 179 OFFCURVE",
"223 174 OFFCURVE",
"210 156 CURVE",
"207 159 LINE",
"160 186 OFFCURVE",
"193 270 OFFCURVE",
"189 278 CURVE",
"217 329 OFFCURVE",
"251 376 OFFCURVE",
"288 414 CURVE",
"305 408 OFFCURVE",
"322 403 OFFCURVE",
"341 398 CURVE",
"324 393 OFFCURVE",
"310 380 OFFCURVE",
"311 364 CURVE SMOOTH",
"312 340 OFFCURVE",
"354 333 OFFCURVE",
"338 348 CURVE SMOOTH",
"330 355 OFFCURVE",
"335 371 OFFCURVE",
"345 381 CURVE SMOOTH",
"349 385 OFFCURVE",
"356 390 OFFCURVE",
"364 393 CURVE",
"462 371 OFFCURVE",
"574 367 OFFCURVE",
"662 400 CURVE SMOOTH",
"832 462 OFFCURVE",
"821 611 OFFCURVE",
"626 611 CURVE SMOOTH",
"487 611 OFFCURVE",
"350 544 OFFCURVE",
"245 446 CURVE",
"183 472 OFFCURVE",
"135 502 OFFCURVE",
"108 532 CURVE SMOOTH",
"3 645 OFFCURVE",
"106 758 OFFCURVE",
"268 670 CURVE",
"274 657 OFFCURVE",
"273 640 OFFCURVE",
"270 631 CURVE SMOOTH",
"266 615 OFFCURVE",
"254 600 OFFCURVE",
"243 603 CURVE SMOOTH",
"234 606 OFFCURVE",
"234 597 OFFCURVE",
"244 590 CURVE SMOOTH",
"269 572 OFFCURVE",
"293 592 OFFCURVE",
"293 623 CURVE SMOOTH",
"294 637 OFFCURVE",
"289 652 OFFCURVE",
"280 664 CURVE",
"283 662 OFFCURVE",
"286 660 OFFCURVE",
"289 658 CURVE SMOOTH",
"293 656 OFFCURVE",
"304 644 OFFCURVE",
"312 636 CURVE SMOOTH",
"321 625 OFFCURVE",
"335 616 OFFCURVE",
"346 614 CURVE SMOOTH",
"384 608 OFFCURVE",
"404 624 OFFCURVE",
"424 640 CURVE SMOOTH",
"437 652 OFFCURVE",
"454 669 OFFCURVE",
"474 671 CURVE SMOOTH",
"485 672 OFFCURVE",
"495 669 OFFCURVE",
"501 662 CURVE",
"497 687 OFFCURVE",
"478 710 OFFCURVE",
"442 709 CURVE SMOOTH",
"418 708 OFFCURVE",
"386 690 OFFCURVE",
"367 672 CURVE SMOOTH",
"355 660 OFFCURVE",
"332 643 OFFCURVE",
"314 655 CURVE SMOOTH",
"309 659 OFFCURVE",
"305 663 OFFCURVE",
"303 662 CURVE",
"97 783 OFFCURVE",
"-46 657 OFFCURVE",
"78 524 CURVE SMOOTH",
"87 514 OFFCURVE",
"101 503 OFFCURVE",
"117 493 CURVE",
"102 491 OFFCURVE",
"88 485 OFFCURVE",
"77 475 CURVE",
"56 483 OFFCURVE",
"22 469 OFFCURVE",
"7 436 CURVE SMOOTH",
"-9 403 OFFCURVE",
"-6 335 OFFCURVE",
"22 316 CURVE SMOOTH",
"32 309 OFFCURVE",
"39 312 OFFCURVE",
"41 314 CURVE",
"23 330 OFFCURVE",
"42 359 OFFCURVE",
"57 369 CURVE SMOOTH",
"69 377 OFFCURVE",
"83 385 OFFCURVE",
"95 406 CURVE SMOOTH",
"106 426 OFFCURVE",
"105 456 OFFCURVE",
"86 470 CURVE",
"95 477 OFFCURVE",
"111 481 OFFCURVE",
"128 481 CURVE",
"131 480 OFFCURVE",
"135 480 OFFCURVE",
"139 479 CURVE",
"168 463 OFFCURVE",
"201 448 OFFCURVE",
"233 435 CURVE",
"175 378 OFFCURVE",
"119 307 OFFCURVE",
"89 237 CURVE SMOOTH",
"9 54 OFFCURVE",
"86 -54 OFFCURVE",
"201 -74 CURVE",
"180 -89 OFFCURVE",
"143 -118 OFFCURVE",
"138 -123 CURVE SMOOTH",
"135 -126 OFFCURVE",
"134 -128 OFFCURVE",
"134 -132 CURVE SMOOTH",
"134 -141 OFFCURVE",
"144 -148 OFFCURVE",
"152 -148 CURVE SMOOTH",
"163 -148 OFFCURVE",
"187 -123 OFFCURVE",
"225 -123 CURVE SMOOTH",
"259 -123 OFFCURVE",
"300 -141 OFFCURVE",
"300 -180 CURVE SMOOTH",
"300 -195 OFFCURVE",
"294 -209 OFFCURVE",
"286 -221 CURVE SMOOTH",
"268 -249 OFFCURVE",
"221 -257 OFFCURVE",
"190 -257 CURVE SMOOTH",
"165 -257 OFFCURVE",
"122 -251 OFFCURVE",
"104 -232 CURVE SMOOTH",
"100 -228 OFFCURVE",
"95 -221 OFFCURVE",
"88 -221 CURVE SMOOTH",
"85 -221 OFFCURVE",
"83 -224 OFFCURVE",
"83 -228 CURVE SMOOTH",
"83 -263 OFFCURVE",
"184 -275 OFFCURVE",
"208 -275 CURVE SMOOTH",
"233 -275 OFFCURVE",
"264 -271 OFFCURVE",
"285 -257 CURVE SMOOTH",
"310 -240 OFFCURVE",
"336 -214 OFFCURVE",
"336 -181 CURVE SMOOTH",
"336 -124 OFFCURVE",
"263 -105 OFFCURVE",
"218 -105 CURVE SMOOTH",
"205 -105 OFFCURVE",
"192 -106 OFFCURVE",
"179 -108 CURVE",
"178 -103 OFFCURVE",
"205 -85 OFFCURVE",
"217 -77 CURVE",
"341 -90 OFFCURVE",
"465 -9 OFFCURVE",
"534 92 CURVE SMOOTH",
"649 259 OFFCURVE",
"479 389 OFFCURVE",
"347 221 CURVE SMOOTH",
"332 201 OFFCURVE",
"350 197 OFFCURVE",
"359 209 CURVE SMOOTH",
"473 359 OFFCURVE",
"603 252 OFFCURVE",
"515 115 CURVE SMOOTH",
"353 -135 OFFCURVE",
"18 -129 OFFCURVE",
"149 195 CURVE SMOOTH",
"156 211 OFFCURVE",
"163 228 OFFCURVE",
"171 244 CURVE",
"168 230 OFFCURVE",
"167 215 OFFCURVE",
"169 202 CURVE SMOOTH",
"173 179 OFFCURVE",
"193 151 OFFCURVE",
"206 150 CURVE SMOOTH",
"207 150 LINE",
"206 148 OFFCURVE",
"206 146 OFFCURVE",
"205 144 CURVE"
);
}
);
width = 489;
}
);
note = Ccedilla;
unicode = 00C7;
},
{
glyphname = D;
lastChange = "2021-04-20 17:37:48 +0000";
layers = (
{
hints = (
{
horizontal = 1;
place = "{557, 13}";
type = Stem;
},
{
horizontal = 1;
place = "{600, -20}";
target = down;
type = TopGhost;
}
);
layerId = "2072D606-CE9C-4455-8FDE-AAFE9455DC77";
paths = (
{
closed = 1;
nodes = (
"341 284 OFFCURVE",
"303 242 OFFCURVE",
"256 210 CURVE SMOOTH",
"237 198 OFFCURVE",
"219 187 OFFCURVE",
"202 180 CURVE",
"199 273 OFFCURVE",
"272 354 OFFCURVE",
"368 328 CURVE"
);
},
{
closed = 1;
nodes = (
"411 181 OFFCURVE",
"349 96 OFFCURVE",
"287 26 CURVE",
"281 31 OFFCURVE",
"275 36 OFFCURVE",
"270 41 CURVE SMOOTH",
"229 77 OFFCURVE",
"209 120 OFFCURVE",
"203 162 CURVE",
"225 170 OFFCURVE",
"249 183 OFFCURVE",
"273 199 CURVE SMOOTH",
"321 231 OFFCURVE",
"360 275 OFFCURVE",
"387 322 CURVE",
"391 321 OFFCURVE",
"394 319 OFFCURVE",
"398 317 CURVE SMOOTH",
"424 305 OFFCURVE",
"448 285 OFFCURVE",
"468 262 CURVE"
);
},
{
closed = 1;
nodes = (
"573 331 OFFCURVE",
"661 479 OFFCURVE",
"735 563 CURVE",
"864 529 OFFCURVE",
"964 453 OFFCURVE",
"943 310 CURVE SMOOTH",
"908 73 OFFCURVE",
"558 -105 OFFCURVE",
"338 -4 CURVE",
"389 48 OFFCURVE",
"438 113 OFFCURVE",
"485 188 CURVE SMOOTH",
"500 212 LINE",
"510 190 OFFCURVE",
"515 167 OFFCURVE",
"515 143 CURVE SMOOTH",
"515 102 OFFCURVE",
"497 58 OFFCURVE",
"452 48 CURVE",
"454 43 LINE",
"497 47 OFFCURVE",
"530 94 OFFCURVE",
"530 144 CURVE SMOOTH",
"530 147 OFFCURVE",
"530 150 OFFCURVE",
"530 153 CURVE",
"541 140 OFFCURVE",
"559 129 OFFCURVE",
"574 130 CURVE",
"574 128 OFFCURVE",
"575 125 OFFCURVE",
"576 123 CURVE SMOOTH",
"582 110 OFFCURVE",
"603 101 OFFCURVE",
"625 109 CURVE SMOOTH",
"647 117 OFFCURVE",
"676 148 OFFCURVE",
"671 169 CURVE SMOOTH",
"670 177 OFFCURVE",
"666 179 OFFCURVE",
"664 179 CURVE",
"665 163 OFFCURVE",
"644 159 OFFCURVE",
"632 161 CURVE SMOOTH",
"624 163 OFFCURVE",
"614 165 OFFCURVE",
"599 161 CURVE SMOOTH",
"587 158 OFFCURVE",
"577 148 OFFCURVE",
"575 137 CURVE",
"550 136 OFFCURVE",
"530 163 OFFCURVE",
"525 185 CURVE SMOOTH",
"525 186 OFFCURVE",
"525 186 OFFCURVE",
"524 187 CURVE",
"521 201 OFFCURVE",
"516 214 OFFCURVE",
"509 227 CURVE"
);
},
{
closed = 1;
nodes = (
"55 137 OFFCURVE",
"3 217 OFFCURVE",
"37 322 CURVE",
"40 312 OFFCURVE",
"49 294 OFFCURVE",
"61 289 CURVE SMOOTH",
"86 277 OFFCURVE",
"99 295 OFFCURVE",
"101 306 CURVE SMOOTH",
"102 313 OFFCURVE",
"95 318 OFFCURVE",
"87 310 CURVE SMOOTH",
"77 299 OFFCURVE",
"49 319 OFFCURVE",
"41 333 CURVE",
"46 346 OFFCURVE",
"52 360 OFFCURVE",
"60 374 CURVE SMOOTH",
"94 434 OFFCURVE",
"187 528 OFFCURVE",
"345 567 CURVE SMOOTH",
"355 569 OFFCURVE",
"366 571 OFFCURVE",
"377 573 CURVE",
"424 517 OFFCURVE",
"420 426 OFFCURVE",
"376 343 CURVE",
"347 353 OFFCURVE",
"320 356 OFFCURVE",
"295 354 CURVE",
"301 360 OFFCURVE",
"304 368 OFFCURVE",
"307 376 CURVE",
"323 380 OFFCURVE",
"338 399 OFFCURVE",
"338 424 CURVE SMOOTH",
"338 441 OFFCURVE",
"333 466 OFFCURVE",
"320 482 CURVE SMOOTH",
"314 490 OFFCURVE",
"292 509 OFFCURVE",
"276 496 CURVE",
"294 490 OFFCURVE",
"290 465 OFFCURVE",
"283 453 CURVE SMOOTH",
"278 444 OFFCURVE",
"271 434 OFFCURVE",
"269 416 CURVE SMOOTH",
"268 398 OFFCURVE",
"280 377 OFFCURVE",
"299 375 CURVE",
"296 368 OFFCURVE",
"289 357 OFFCURVE",
"276 351 CURVE",
"193 335 OFFCURVE",
"144 254 OFFCURVE",
"163 165 CURVE"
);
},
{
closed = 1;
nodes = (
"66 8 OFFCURVE",
"64 10 OFFCURVE",
"61 11 CURVE",
"58 13 OFFCURVE",
"55 14 OFFCURVE",
"52 15 CURVE SMOOTH",
"45 17 OFFCURVE",
"38 16 OFFCURVE",
"30 15 CURVE SMOOTH",
"-1 10 OFFCURVE",
"-37 -16 OFFCURVE",
"-44 -46 CURVE SMOOTH",
"-58 -110 OFFCURVE",
"-5 -145 OFFCURVE",
"45 -147 CURVE SMOOTH",
"143 -153 OFFCURVE",
"237 -105 OFFCURVE",
"325 -17 CURVE",
"348 -27 OFFCURVE",
"373 -36 OFFCURVE",
"399 -41 CURVE",
"389 -45 OFFCURVE",
"380 -51 OFFCURVE",
"375 -60 CURVE",
"362 -54 OFFCURVE",
"341 -59 OFFCURVE",
"328 -77 CURVE SMOOTH",
"314 -96 OFFCURVE",
"308 -138 OFFCURVE",
"323 -153 CURVE SMOOTH",
"329 -158 OFFCURVE",
"333 -158 OFFCURVE",
"335 -157 CURVE",
"325 -144 OFFCURVE",
"340 -129 OFFCURVE",
"351 -125 CURVE SMOOTH",
"359 -121 OFFCURVE",
"369 -117 OFFCURVE",
"379 -106 CURVE SMOOTH",
"389 -95 OFFCURVE",
"391 -75 OFFCURVE",
"380 -64 CURVE",
"384 -57 OFFCURVE",
"393 -52 OFFCURVE",
"403 -48 CURVE",
"409 -47 OFFCURVE",
"416 -46 OFFCURVE",
"422 -46 CURVE",
"670 -88 OFFCURVE",
"995 64 OFFCURVE",
"999 307 CURVE SMOOTH",
"1002 455 OFFCURVE",
"886 536 OFFCURVE",
"746 575 CURVE",
"759 589 OFFCURVE",
"772 601 OFFCURVE",
"785 610 CURVE SMOOTH",
"878 679 OFFCURVE",
"941 663 OFFCURVE",
"965 638 CURVE",
"973 643 LINE",
"961 675 OFFCURVE",
"865 693 OFFCURVE",
"775 626 CURVE SMOOTH",
"756 612 OFFCURVE",
"738 597 OFFCURVE",
"720 581 CURVE",
"603 608 OFFCURVE",
"473 607 OFFCURVE",
"386 591 CURVE",
"350 624 OFFCURVE",
"292 641 OFFCURVE",
"209 633 CURVE",
"208 634 LINE",
"209 635 OFFCURVE",
"208 636 OFFCURVE",
"204 639 CURVE",
"188 645 OFFCURVE",
"159 683 OFFCURVE",
"170 694 CURVE SMOOTH",
"179 704 OFFCURVE",
"173 706 OFFCURVE",
"168 705 CURVE SMOOTH",
"154 702 OFFCURVE",
"137 681 OFFCURVE",
"144 663 CURVE",
"147 658 OFFCURVE",
"151 653 OFFCURVE",
"156 648 CURVE",
"118 644 OFFCURVE",
"83 612 OFFCURVE",
"81 555 CURVE SMOOTH",
"80 526 OFFCURVE",
"63 513 OFFCURVE",
"42 515 CURVE",
"39 509 OFFCURVE",
"52 492 OFFCURVE",
"79 495 CURVE SMOOTH",
"111 498 OFFCURVE",
"145 521 OFFCURVE",
"155 564 CURVE SMOOTH",
"165 609 OFFCURVE",
"187 622 OFFCURVE",
"207 626 CURVE",
"280 633 OFFCURVE",
"332 617 OFFCURVE",
"365 587 CURVE",
"242 560 OFFCURVE",
"88 492 OFFCURVE",
"26 382 CURVE SMOOTH",
"-51 247 OFFCURVE",
"24 118 OFFCURVE",
"167 150 CURVE",
"172 134 OFFCURVE",
"179 117 OFFCURVE",
"189 101 CURVE",
"181 104 OFFCURVE",
"172 106 OFFCURVE",
"162 106 CURVE",
"157 124 OFFCURVE",
"129 133 OFFCURVE",
"107 110 CURVE SMOOTH",
"99 102 OFFCURVE",
"83 71 OFFCURVE",
"94 57 CURVE",
"97 77 OFFCURVE",
"116 81 OFFCURVE",
"133 77 CURVE SMOOTH",
"140 75 OFFCURVE",
"153 75 OFFCURVE",
"160 88 CURVE SMOOTH",
"162 92 OFFCURVE",
"163 95 OFFCURVE",
"163 99 CURVE",
"175 99 OFFCURVE",
"186 96 OFFCURVE",
"199 85 CURVE",
"212 67 OFFCURVE",
"228 49 OFFCURVE",
"248 32 CURVE SMOOTH",
"256 25 OFFCURVE",
"265 18 OFFCURVE",
"274 12 CURVE",
"194 -76 OFFCURVE",
"114 -136 OFFCURVE",
"46 -133 CURVE SMOOTH",
"1 -130 OFFCURVE",
"-36 -100 OFFCURVE",
"-24 -50 CURVE SMOOTH",
"-20 -34 OFFCURVE",
"-9 -18 OFFCURVE",
"5 -8 CURVE SMOOTH",
"6 -7 LINE",
"28 3 OFFCURVE",
"45 -18 OFFCURVE",
"48 -43 CURVE SMOOTH",
"54 -88 OFFCURVE",
"103 -98 OFFCURVE",
"118 -65 CURVE",
"104 -73 OFFCURVE",
"92 -62 OFFCURVE",
"92 -50 CURVE SMOOTH",
"91 -28 OFFCURVE",
"85 -12 OFFCURVE",
"77 -2 CURVE",
"86 -4 OFFCURVE",
"101 -5 OFFCURVE",
"110 0 CURVE SMOOTH",
"131 12 OFFCURVE",
"124 30 OFFCURVE",
"117 37 CURVE SMOOTH",
"113 40 OFFCURVE",
"106 38 OFFCURVE",
"108 29 CURVE SMOOTH",
"111 16 OFFCURVE",
"82 6 OFFCURVE",
"69 7 CURVE"
);
},
{
closed = 1;
nodes = (
"464 522 LINE",
"450 517 OFFCURVE",
"439 508 OFFCURVE",
"432 495 CURVE",
"431 494 LINE",
"428 525 OFFCURVE",
"418 554 OFFCURVE",
"399 577 CURVE",
"486 590 OFFCURVE",
"604 592 OFFCURVE",
"708 569 CURVE",
"641 506 OFFCURVE",
"580 429 OFFCURVE",
"541 370 CURVE SMOOTH",
"521 340 OFFCURVE",
"499 308 OFFCURVE",
"477 275 CURVE",
"457 297 OFFCURVE",
"434 316 OFFCURVE",
"408 329 CURVE SMOOTH",
"403 331 OFFCURVE",
"399 333 OFFCURVE",
"395 335 CURVE",
"414 371 OFFCURVE",
"426 408 OFFCURVE",
"430 443 CURVE SMOOTH",
"431 449 LINE SMOOTH",
"431 452 OFFCURVE",
"431 456 OFFCURVE",
"432 459 CURVE",
"433 469 OFFCURVE",
"436 479 OFFCURVE",
"440 487 CURVE SMOOTH",
"446 500 OFFCURVE",
"456 510 OFFCURVE",
"465 514 CURVE",
"469 494 OFFCURVE",
"491 483 OFFCURVE",
"511 484 CURVE SMOOTH",
"531 486 OFFCURVE",
"543 494 OFFCURVE",
"553 500 CURVE SMOOTH",
"566 508 OFFCURVE",
"595 512 OFFCURVE",
"601 492 CURVE",
"603 493 OFFCURVE",
"608 498 OFFCURVE",
"606 508 CURVE SMOOTH",
"602 537 OFFCURVE",
"551 563 OFFCURVE",
"520 563 CURVE SMOOTH",
"488 563 OFFCURVE",
"465 542 OFFCURVE",
"464 523 CURVE SMOOTH"
);
},
{
closed = 1;
nodes = (
"431 449 LINE",
"430 443 LINE",
"431 444 OFFCURVE",
"431 445 OFFCURVE",
"431 447 CURVE SMOOTH"
);
}
);
width = 899;
}
);
note = D;
unicode = 0044;
},
{
glyphname = Eth;
lastChange = "2021-04-20 17:37:48 +0000";
layers = (
{
hints = (
{
horizontal = 1;
place = "{45, 17}";
type = Stem;
},
{
horizontal = 1;
place = "{300, 15}";
type = Stem;
},
{
horizontal = 1;
place = "{614, -20}";
target = down;
type = TopGhost;
},
{
place = "{14, 18}";
type = Stem;
},
{
place = "{763, 54}";
type = Stem;
}
);
layerId = "2072D606-CE9C-4455-8FDE-AAFE9455DC77";
paths = (
{
closed = 1;
nodes = (
"174 -16 OFFCURVE",
"128 -31 OFFCURVE",
"74 -22 CURVE SMOOTH",
"5 -11 OFFCURVE",
"36 38 OFFCURVE",
"61 43 CURVE SMOOTH",
"112 52 OFFCURVE",
"162 32 OFFCURVE",
"213 12 CURVE"
);
},
{
closed = 1;
nodes = (
"471 313 OFFCURVE",
"473 319 OFFCURVE",
"476 326 CURVE SMOOTH",
"518 446 OFFCURVE",
"562 513 OFFCURVE",
"603 551 CURVE",
"701 503 OFFCURVE",
"780 413 OFFCURVE",
"759 262 CURVE SMOOTH",
"727 29 OFFCURVE",
"465 -37 OFFCURVE",
"314 -9 CURVE SMOOTH",
"293 -5 OFFCURVE",
"272 1 OFFCURVE",
"252 9 CURVE",
"362 73 OFFCURVE",
"426 200 OFFCURVE",
"461 286 CURVE",
"494 294 OFFCURVE",
"529 300 OFFCURVE",
"568 301 CURVE SMOOTH",
"583 301 OFFCURVE",
"583 316 OFFCURVE",
"567 315 CURVE SMOOTH",
"532 315 OFFCURVE",
"499 311 OFFCURVE",
"468 305 CURVE"
);
},
{
closed = 1;
nodes = (
"258 237 OFFCURVE",
"265 212 OFFCURVE",
"283 219 CURVE SMOOTH",
"317 233 OFFCURVE",
"350 247 OFFCURVE",
"382 260 CURVE",
"338 167 OFFCURVE",
"297 78 OFFCURVE",
"224 20 CURVE",
"161 46 OFFCURVE",
"103 75 OFFCURVE",
"49 57 CURVE SMOOTH",
"-10 37 OFFCURVE",
"11 -25 OFFCURVE",
"72 -31 CURVE SMOOTH",
"136 -37 OFFCURVE",
"192 -24 OFFCURVE",
"240 2 CURVE",
"263 -7 OFFCURVE",
"286 -14 OFFCURVE",
"310 -17 CURVE SMOOTH",
"514 -43 OFFCURVE",
"756 13 OFFCURVE",
"809 250 CURVE SMOOTH",
"845 410 OFFCURVE",
"743 511 OFFCURVE",
"618 564 CURVE",
"670 604 OFFCURVE",
"715 601 OFFCURVE",
"745 608 CURVE",
"757 608 OFFCURVE",
"749 614 OFFCURVE",
"745 614 CURVE SMOOTH",
"740 614 OFFCURVE",
"683 617 OFFCURVE",
"608 568 CURVE",
"544 593 OFFCURVE",
"476 606 OFFCURVE",
"417 609 CURVE SMOOTH",
"225 617 OFFCURVE",
"77 555 OFFCURVE",
"28 420 CURVE SMOOTH",
"-12 307 OFFCURVE",
"45 226 OFFCURVE",
"137 203 CURVE SMOOTH",
"166 195 OFFCURVE",
"174 209 OFFCURVE",
"156 211 CURVE SMOOTH",
"-26 232 OFFCURVE",
"28 598 OFFCURVE",
"414 595 CURVE SMOOTH",
"467 595 OFFCURVE",
"532 583 OFFCURVE",
"591 557 CURVE",
"495 485 OFFCURVE",
"442 386 OFFCURVE",
"395 287 CURVE",
"356 275 OFFCURVE",
"318 260 OFFCURVE",
"277 244 CURVE SMOOTH"
);
}
);
width = 778;
}
);
note = Eth;
unicode = 00D0;
},
{
color = 11;
glyphname = Dcroat;
lastChange = "2021-07-08 20:43:58 +0000";
layers = (
{
hints = (
{
horizontal = 1;
place = "{557, 13}";
type = Stem;
},
{
horizontal = 1;
place = "{600, -20}";
target = down;
type = TopGhost;
},
{
horizontal = 1;
place = "{99, 48}";
type = Stem;
},
{
place = "{297, 226}";
type = Stem;
}
);
layerId = "2072D606-CE9C-4455-8FDE-AAFE9455DC77";
paths = (
{
closed = 1;
nodes = (
"341 284 OFFCURVE",
"303 242 OFFCURVE",
"256 210 CURVE SMOOTH",
"237 198 OFFCURVE",
"219 187 OFFCURVE",
"202 180 CURVE",
"199 273 OFFCURVE",
"272 354 OFFCURVE",
"368 328 CURVE"
);
},
{
closed = 1;
nodes = (
"411 181 OFFCURVE",
"349 96 OFFCURVE",
"287 26 CURVE",
"281 31 OFFCURVE",
"275 36 OFFCURVE",
"270 41 CURVE SMOOTH",
"229 77 OFFCURVE",
"209 120 OFFCURVE",
"203 162 CURVE",
"225 170 OFFCURVE",
"249 183 OFFCURVE",
"273 199 CURVE SMOOTH",
"321 231 OFFCURVE",
"360 275 OFFCURVE",
"387 322 CURVE",
"391 321 OFFCURVE",
"394 319 OFFCURVE",
"398 317 CURVE SMOOTH",
"424 305 OFFCURVE",
"448 285 OFFCURVE",
"468 262 CURVE"
);
},
{
closed = 1;
nodes = (
"636 433 OFFCURVE",
"681 501 OFFCURVE",
"735 563 CURVE",
"864 529 OFFCURVE",
"964 453 OFFCURVE",
"943 310 CURVE SMOOTH",
"908 73 OFFCURVE",
"558 -105 OFFCURVE",
"338 -4 CURVE",
"389 48 OFFCURVE",
"438 113 OFFCURVE",
"485 188 CURVE SMOOTH"
);
},
{
closed = 1;
nodes = (
"55 137 OFFCURVE",
"3 217 OFFCURVE",
"37 322 CURVE",
"40 312 OFFCURVE",
"49 294 OFFCURVE",
"61 289 CURVE SMOOTH",
"86 277 OFFCURVE",
"99 295 OFFCURVE",
"101 306 CURVE SMOOTH",
"102 313 OFFCURVE",
"95 318 OFFCURVE",
"87 310 CURVE SMOOTH",
"77 299 OFFCURVE",
"49 319 OFFCURVE",
"41 333 CURVE",
"46 346 OFFCURVE",
"52 360 OFFCURVE",
"60 374 CURVE SMOOTH",
"94 434 OFFCURVE",
"187 528 OFFCURVE",
"345 567 CURVE SMOOTH",
"355 569 OFFCURVE",
"366 571 OFFCURVE",
"377 573 CURVE",
"424 517 OFFCURVE",
"420 426 OFFCURVE",
"376 343 CURVE",
"347 353 OFFCURVE",
"320 356 OFFCURVE",
"295 354 CURVE",
"301 360 OFFCURVE",
"304 368 OFFCURVE",
"307 376 CURVE",
"323 380 OFFCURVE",
"338 399 OFFCURVE",
"338 424 CURVE SMOOTH",
"338 441 OFFCURVE",
"333 466 OFFCURVE",
"320 482 CURVE SMOOTH",
"314 490 OFFCURVE",
"292 509 OFFCURVE",
"276 496 CURVE",
"294 490 OFFCURVE",
"290 465 OFFCURVE",
"283 453 CURVE SMOOTH",
"278 444 OFFCURVE",
"271 434 OFFCURVE",
"269 416 CURVE SMOOTH",
"268 398 OFFCURVE",
"280 377 OFFCURVE",
"299 375 CURVE",
"296 368 OFFCURVE",
"289 357 OFFCURVE",
"276 351 CURVE",
"193 335 OFFCURVE",
"144 254 OFFCURVE",
"163 165 CURVE"
);
},
{
closed = 1;
nodes = (
"66 8 OFFCURVE",
"64 10 OFFCURVE",
"61 11 CURVE",
"58 13 OFFCURVE",
"55 14 OFFCURVE",
"52 15 CURVE SMOOTH",
"45 17 OFFCURVE",
"38 16 OFFCURVE",
"30 15 CURVE SMOOTH",
"-1 10 OFFCURVE",
"-37 -16 OFFCURVE",
"-44 -46 CURVE SMOOTH",
"-58 -110 OFFCURVE",
"-5 -145 OFFCURVE",
"45 -147 CURVE SMOOTH",
"143 -153 OFFCURVE",
"237 -105 OFFCURVE",
"325 -17 CURVE",
"348 -27 OFFCURVE",
"373 -36 OFFCURVE",
"399 -41 CURVE",
"389 -45 OFFCURVE",
"380 -51 OFFCURVE",
"375 -60 CURVE",
"362 -54 OFFCURVE",
"341 -59 OFFCURVE",
"328 -77 CURVE SMOOTH",
"314 -96 OFFCURVE",
"308 -138 OFFCURVE",
"323 -153 CURVE SMOOTH",
"329 -158 OFFCURVE",
"333 -158 OFFCURVE",
"335 -157 CURVE",
"325 -144 OFFCURVE",
"340 -129 OFFCURVE",
"351 -125 CURVE SMOOTH",
"359 -121 OFFCURVE",
"369 -117 OFFCURVE",
"379 -106 CURVE SMOOTH",
"389 -95 OFFCURVE",
"391 -75 OFFCURVE",
"380 -64 CURVE",
"384 -57 OFFCURVE",
"393 -52 OFFCURVE",
"403 -48 CURVE",
"409 -47 OFFCURVE",
"416 -46 OFFCURVE",
"422 -46 CURVE",
"670 -88 OFFCURVE",
"995 64 OFFCURVE",
"999 307 CURVE SMOOTH",
"1002 455 OFFCURVE",
"886 536 OFFCURVE",
"746 575 CURVE",
"759 589 OFFCURVE",
"772 601 OFFCURVE",
"785 610 CURVE SMOOTH",
"878 679 OFFCURVE",
"941 663 OFFCURVE",
"965 638 CURVE",
"973 643 LINE",
"961 675 OFFCURVE",
"865 693 OFFCURVE",
"775 626 CURVE SMOOTH",
"756 612 OFFCURVE",
"738 597 OFFCURVE",
"720 581 CURVE",
"603 608 OFFCURVE",
"473 607 OFFCURVE",
"386 591 CURVE",
"350 624 OFFCURVE",
"292 641 OFFCURVE",
"209 633 CURVE",
"208 634 LINE",
"209 635 OFFCURVE",
"208 636 OFFCURVE",
"204 639 CURVE",
"188 645 OFFCURVE",
"159 683 OFFCURVE",
"170 694 CURVE SMOOTH",
"179 704 OFFCURVE",
"173 706 OFFCURVE",
"168 705 CURVE SMOOTH",
"154 702 OFFCURVE",
"137 681 OFFCURVE",
"144 663 CURVE",
"147 658 OFFCURVE",
"151 653 OFFCURVE",
"156 648 CURVE",
"118 644 OFFCURVE",
"83 612 OFFCURVE",
"81 555 CURVE SMOOTH",
"80 526 OFFCURVE",
"63 513 OFFCURVE",
"42 515 CURVE",
"39 509 OFFCURVE",
"52 492 OFFCURVE",
"79 495 CURVE SMOOTH",
"111 498 OFFCURVE",
"145 521 OFFCURVE",
"155 564 CURVE SMOOTH",
"165 609 OFFCURVE",
"187 622 OFFCURVE",
"207 626 CURVE",
"280 633 OFFCURVE",
"332 617 OFFCURVE",
"365 587 CURVE",
"242 560 OFFCURVE",
"88 492 OFFCURVE",
"26 382 CURVE SMOOTH",
"-51 247 OFFCURVE",
"24 118 OFFCURVE",
"167 150 CURVE",
"172 134 OFFCURVE",
"179 117 OFFCURVE",
"189 101 CURVE",
"181 104 OFFCURVE",
"172 106 OFFCURVE",
"162 106 CURVE",
"157 124 OFFCURVE",
"129 133 OFFCURVE",
"107 110 CURVE SMOOTH",
"99 102 OFFCURVE",
"83 71 OFFCURVE",
"94 57 CURVE",
"97 77 OFFCURVE",
"116 81 OFFCURVE",
"133 77 CURVE SMOOTH",
"140 75 OFFCURVE",
"153 75 OFFCURVE",
"160 88 CURVE SMOOTH",
"162 92 OFFCURVE",
"163 95 OFFCURVE",
"163 99 CURVE",
"175 99 OFFCURVE",
"186 96 OFFCURVE",
"199 85 CURVE",
"212 67 OFFCURVE",
"228 49 OFFCURVE",
"248 32 CURVE SMOOTH",
"256 25 OFFCURVE",
"265 18 OFFCURVE",
"274 12 CURVE",
"194 -76 OFFCURVE",
"114 -136 OFFCURVE",
"46 -133 CURVE SMOOTH",
"1 -130 OFFCURVE",
"-36 -100 OFFCURVE",
"-24 -50 CURVE SMOOTH",
"-20 -34 OFFCURVE",
"-9 -18 OFFCURVE",
"5 -8 CURVE SMOOTH",
"6 -7 LINE",
"28 3 OFFCURVE",
"45 -18 OFFCURVE",
"48 -43 CURVE SMOOTH",
"54 -88 OFFCURVE",
"103 -98 OFFCURVE",
"118 -65 CURVE",
"104 -73 OFFCURVE",
"92 -62 OFFCURVE",
"92 -50 CURVE SMOOTH",
"91 -28 OFFCURVE",
"85 -12 OFFCURVE",
"77 -2 CURVE",
"86 -4 OFFCURVE",
"101 -5 OFFCURVE",
"110 0 CURVE SMOOTH",
"131 12 OFFCURVE",
"124 30 OFFCURVE",
"117 37 CURVE SMOOTH",
"113 40 OFFCURVE",
"106 38 OFFCURVE",
"108 29 CURVE SMOOTH",
"111 16 OFFCURVE",
"82 6 OFFCURVE",
"69 7 CURVE"
);
},
{
closed = 1;
nodes = (
"464 522 LINE",
"450 517 OFFCURVE",
"439 508 OFFCURVE",
"432 495 CURVE",
"431 494 LINE",
"428 525 OFFCURVE",
"418 554 OFFCURVE",
"399 577 CURVE",
"486 590 OFFCURVE",
"604 592 OFFCURVE",
"708 569 CURVE",
"641 506 OFFCURVE",
"580 429 OFFCURVE",
"541 370 CURVE SMOOTH",
"521 340 OFFCURVE",
"499 308 OFFCURVE",
"477 275 CURVE",
"457 297 OFFCURVE",
"434 316 OFFCURVE",
"408 329 CURVE SMOOTH",
"403 331 OFFCURVE",
"399 333 OFFCURVE",
"395 335 CURVE",
"414 371 OFFCURVE",
"426 408 OFFCURVE",
"430 443 CURVE SMOOTH",
"431 449 LINE SMOOTH",
"431 452 OFFCURVE",
"431 456 OFFCURVE",
"432 459 CURVE",
"433 469 OFFCURVE",
"436 479 OFFCURVE",
"440 487 CURVE SMOOTH",
"446 500 OFFCURVE",
"456 510 OFFCURVE",
"465 514 CURVE",
"469 494 OFFCURVE",
"491 483 OFFCURVE",
"511 484 CURVE SMOOTH",
"531 486 OFFCURVE",
"543 494 OFFCURVE",
"553 500 CURVE SMOOTH",
"566 508 OFFCURVE",
"595 512 OFFCURVE",
"601 492 CURVE",
"603 493 OFFCURVE",
"608 498 OFFCURVE",
"606 508 CURVE SMOOTH",
"602 537 OFFCURVE",
"551 563 OFFCURVE",
"520 563 CURVE SMOOTH",
"488 563 OFFCURVE",
"465 542 OFFCURVE",
"464 523 CURVE SMOOTH"
);
},
{
closed = 1;
nodes = (
"431 449 LINE",
"430 443 LINE",
"431 444 OFFCURVE",
"431 445 OFFCURVE",
"431 447 CURVE SMOOTH"
);
},
{
closed = 1;
nodes = (
"523 123 LINE",
"523 140 OFFCURVE",
"338 155 OFFCURVE",
"308 142 CURVE",
"294 132 OFFCURVE",
"292 110 OFFCURVE",
"304 110 CURVE SMOOTH",
"371 110 OFFCURVE",
"499 108 OFFCURVE",
"521 120 CURVE"
);
}
);
width = 899;
}
);
unicode = 0110;
},
{
glyphname = E;
lastChange = "2021-04-20 17:37:48 +0000";
layers = (
{
hints = (
{
horizontal = 1;
place = "{387, 11}";
type = Stem;
},
{
horizontal = 1;
place = "{814, 8}";
type = Stem;
}
);
layerId = "2072D606-CE9C-4455-8FDE-AAFE9455DC77";
paths = (
{
closed = 1;
nodes = (
"377 -250 OFFCURVE",
"428 -245 OFFCURVE",
"461 -194 CURVE SMOOTH",
"472 -178 OFFCURVE",
"491 -134 OFFCURVE",
"477 -105 CURVE",
"471 -118 OFFCURVE",
"452 -151 OFFCURVE",
"399 -155 CURVE SMOOTH",
"358 -159 OFFCURVE",
"342 -199 OFFCURVE",
"354 -222 CURVE",
"247 -223 OFFCURVE",
"215 -140 OFFCURVE",
"229 -42 CURVE",
"233 -42 OFFCURVE",
"238 -42 OFFCURVE",
"243 -42 CURVE SMOOTH",
"358 -41 OFFCURVE",
"502 -6 OFFCURVE",
"577 87 CURVE SMOOTH",
"690 226 OFFCURVE",
"567 329 OFFCURVE",
"440 282 CURVE SMOOTH",
"359 253 OFFCURVE",
"290 177 OFFCURVE",
"247 92 CURVE",
"246 91 OFFCURVE",
"244 91 OFFCURVE",
"242 90 CURVE SMOOTH",
"226 85 OFFCURVE",
"184 95 OFFCURVE",
"186 113 CURVE SMOOTH",
"187 125 OFFCURVE",
"182 124 OFFCURVE",
"178 120 CURVE SMOOTH",
"170 110 OFFCURVE",
"168 85 OFFCURVE",
"184 75 CURVE SMOOTH",
"199 66 OFFCURVE",
"227 72 OFFCURVE",
"239 81 CURVE",
"240 83 OFFCURVE",
"242 84 OFFCURVE",
"244 86 CURVE",
"227 50 OFFCURVE",
"215 12 OFFCURVE",
"208 -24 CURVE",
"133 -10 OFFCURVE",
"99 44 OFFCURVE",
"99 106 CURVE SMOOTH",
"100 264 OFFCURVE",
"262 363 OFFCURVE",
"404 374 CURVE",
"417 356 OFFCURVE",
"434 342 OFFCURVE",
"457 336 CURVE SMOOTH",
"508 323 OFFCURVE",
"535 347 OFFCURVE",
"521 366 CURVE SMOOTH",
"505 388 OFFCURVE",
"446 394 OFFCURVE",
"422 392 CURVE SMOOTH",
"421 392 LINE",
"418 402 OFFCURVE",
"416 413 OFFCURVE",
"416 424 CURVE",
"501 428 OFFCURVE",
"589 447 OFFCURVE",
"647 480 CURVE SMOOTH",
"690 504 OFFCURVE",
"711 541 OFFCURVE",
"708 571 CURVE SMOOTH",
"700 660 OFFCURVE",
"434 651 OFFCURVE",
"389 473 CURVE SMOOTH",
"385 460 OFFCURVE",
"384 446 OFFCURVE",
"385 432 CURVE",
"316 433 OFFCURVE",
"251 448 OFFCURVE",
"204 478 CURVE SMOOTH",
"69 566 OFFCURVE",
"152 697 OFFCURVE",
"264 646 CURVE SMOOTH",
"292 633 OFFCURVE",
"322 608 OFFCURVE",
"337 581 CURVE SMOOTH",
"327 578 OFFCURVE",
"311 562 OFFCURVE",
"314 542 CURVE SMOOTH",
"316 526 OFFCURVE",
"322 517 OFFCURVE",
"327 509 CURVE SMOOTH",
"334 499 OFFCURVE",
"338 477 OFFCURVE",
"322 472 CURVE",
"323 470 OFFCURVE",
"327 467 OFFCURVE",
"335 469 CURVE SMOOTH",
"356 473 OFFCURVE",
"375 513 OFFCURVE",
"374 537 CURVE SMOOTH",
"373 562 OFFCURVE",
"366 583 OFFCURVE",
"343 583 CURVE",
"335 598 OFFCURVE",
"325 612 OFFCURVE",
"313 624 CURVE",
"323 621 OFFCURVE",
"338 620 OFFCURVE",
"347 624 CURVE SMOOTH",
"372 636 OFFCURVE",
"367 657 OFFCURVE",
"359 666 CURVE SMOOTH",
"355 671 OFFCURVE",
"346 669 OFFCURVE",
"347 658 CURVE SMOOTH",
"349 642 OFFCURVE",
"315 633 OFFCURVE",
"299 636 CURVE",
"291 643 OFFCURVE",
"281 649 OFFCURVE",
"271 654 CURVE SMOOTH",
"126 722 OFFCURVE",
"20 572 OFFCURVE",
"185 465 CURVE",
"181 465 OFFCURVE",
"177 465 OFFCURVE",
"173 464 CURVE SMOOTH",
"162 462 OFFCURVE",
"152 456 OFFCURVE",
"144 447 CURVE",
"129 451 OFFCURVE",
"108 438 OFFCURVE",
"100 414 CURVE SMOOTH",
"93 390 OFFCURVE",
"101 345 OFFCURVE",
"122 335 CURVE SMOOTH",
"129 332 OFFCURVE",
"134 334 OFFCURVE",
"135 335 CURVE",
"121 345 OFFCURVE",
"131 366 OFFCURVE",
"140 374 CURVE SMOOTH",
"147 380 OFFCURVE",
"156 387 OFFCURVE",
"162 402 CURVE SMOOTH",
"168 417 OFFCURVE",
"164 437 OFFCURVE",
"150 445 CURVE",
"156 450 OFFCURVE",
"166 454 OFFCURVE",
"177 456 CURVE SMOOTH",
"187 457 OFFCURVE",
"198 455 OFFCURVE",
"208 452 CURVE",
"251 432 OFFCURVE",
"316 423 OFFCURVE",
"386 423 CURVE",
"387 412 OFFCURVE",
"391 401 OFFCURVE",
"395 390 CURVE",
"235 375 OFFCURVE",
"26 292 OFFCURVE",
"32 102 CURVE SMOOTH",
"35 29 OFFCURVE",
"87 -31 OFFCURVE",
"206 -40 CURVE",
"203 -59 OFFCURVE",
"203 -77 OFFCURVE",
"204 -94 CURVE",
"198 -112 OFFCURVE",
"188 -126 OFFCURVE",
"177 -134 CURVE",
"175 -131 OFFCURVE",
"173 -128 OFFCURVE",
"169 -126 CURVE",
"158 -117 OFFCURVE",
"146 -123 OFFCURVE",
"140 -127 CURVE SMOOTH",
"133 -133 OFFCURVE",
"124 -138 OFFCURVE",
"117 -137 CURVE SMOOTH",
"106 -136 OFFCURVE",
"97 -129 OFFCURVE",
"92 -126 CURVE",
"96 -146 OFFCURVE",
"120 -164 OFFCURVE",
"131 -168 CURVE SMOOTH",
"160 -179 OFFCURVE",
"182 -160 OFFCURVE",
"179 -141 CURVE",
"192 -133 OFFCURVE",
"200 -122 OFFCURVE",
"206 -110 CURVE",
"216 -181 OFFCURVE",
"263 -232 OFFCURVE",
"358 -229 CURVE"
);
},
{
closed = 1;
nodes = (
"253 93 OFFCURVE",
"340 231 OFFCURVE",
"444 269 CURVE SMOOTH",
"563 313 OFFCURVE",
"636 226 OFFCURVE",
"535 102 CURVE SMOOTH",
"485 40 OFFCURVE",
"407 -18 OFFCURVE",
"269 -27 CURVE SMOOTH",
"256 -28 OFFCURVE",
"243 -28 OFFCURVE",
"231 -27 CURVE"
);
},
{
closed = 1;
nodes = (
"453 353 OFFCURVE",
"439 362 OFFCURVE",
"430 375 CURVE",
"518 375 OFFCURVE",
"518 336 OFFCURVE",
"472 348 CURVE SMOOTH"
);
},
{
closed = 1;
nodes = (
"417 445 OFFCURVE",
"419 457 OFFCURVE",
"422 469 CURVE SMOOTH",
"464 623 OFFCURVE",
"683 642 OFFCURVE",
"685 571 CURVE SMOOTH",
"685 554 OFFCURVE",
"673 533 OFFCURVE",
"649 512 CURVE SMOOTH",
"595 465 OFFCURVE",
"506 437 OFFCURVE",
"416 433 CURVE"
);
}
);
width = 556;
}
);
note = E;
unicode = 0045;
},
{
color = 11;
glyphname = Eacute;
lastChange = "2021-07-08 20:43:58 +0000";
layers = (
{
hints = (
{
horizontal = 1;
place = "{387, 11}";
type = Stem;
},
{
horizontal = 1;
place = "{814, 8}";
type = Stem;
},
{
horizontal = 1;
place = "{510, 10}";
type = Stem;
}
);
layerId = "2072D606-CE9C-4455-8FDE-AAFE9455DC77";
paths = (
{
closed = 1;
nodes = (
"253 93 OFFCURVE",
"340 231 OFFCURVE",
"444 269 CURVE SMOOTH",
"563 313 OFFCURVE",
"636 226 OFFCURVE",
"535 102 CURVE SMOOTH",
"485 40 OFFCURVE",
"407 -18 OFFCURVE",
"269 -27 CURVE SMOOTH",
"256 -28 OFFCURVE",
"243 -28 OFFCURVE",
"231 -27 CURVE"
);
},
{
closed = 1;
nodes = (
"518 375 OFFCURVE",
"518 336 OFFCURVE",
"472 348 CURVE SMOOTH",
"453 353 OFFCURVE",
"439 362 OFFCURVE",
"430 375 CURVE"
);
},
{
closed = 1;
nodes = (
"417 445 OFFCURVE",
"419 457 OFFCURVE",
"422 469 CURVE SMOOTH",
"464 623 OFFCURVE",
"683 642 OFFCURVE",
"685 571 CURVE SMOOTH",
"685 554 OFFCURVE",
"673 533 OFFCURVE",
"649 512 CURVE SMOOTH",
"595 465 OFFCURVE",
"506 437 OFFCURVE",
"416 433 CURVE"
);
},
{
closed = 1;
nodes = (
"338 579 LINE",
"321 576 OFFCURVE",
"312 557 OFFCURVE",
"314 542 CURVE SMOOTH",
"316 526 OFFCURVE",
"322 517 OFFCURVE",
"327 509 CURVE SMOOTH",
"334 499 OFFCURVE",
"338 477 OFFCURVE",
"322 472 CURVE",
"323 470 OFFCURVE",
"327 467 OFFCURVE",
"335 469 CURVE SMOOTH",
"356 473 OFFCURVE",
"375 513 OFFCURVE",
"374 537 CURVE SMOOTH",
"373 559 OFFCURVE",
"359 576 OFFCURVE",
"345 579 CURVE",
"345 580 OFFCURVE",
"344 582 OFFCURVE",
"343 583 CURVE",
"335 598 OFFCURVE",
"325 612 OFFCURVE",
"313 624 CURVE",
"323 621 OFFCURVE",
"338 620 OFFCURVE",
"347 624 CURVE SMOOTH",
"372 636 OFFCURVE",
"367 657 OFFCURVE",
"359 666 CURVE SMOOTH",
"355 671 OFFCURVE",
"346 669 OFFCURVE",
"347 658 CURVE SMOOTH",
"349 642 OFFCURVE",
"315 633 OFFCURVE",
"299 636 CURVE",
"291 643 OFFCURVE",
"281 649 OFFCURVE",
"271 654 CURVE SMOOTH",
"126 722 OFFCURVE",
"20 572 OFFCURVE",
"185 465 CURVE",
"181 465 OFFCURVE",
"177 465 OFFCURVE",
"173 464 CURVE SMOOTH",
"162 462 OFFCURVE",
"152 456 OFFCURVE",
"144 447 CURVE",
"129 451 OFFCURVE",
"108 438 OFFCURVE",
"100 414 CURVE SMOOTH",
"93 390 OFFCURVE",
"101 345 OFFCURVE",
"122 335 CURVE SMOOTH",
"129 332 OFFCURVE",
"134 334 OFFCURVE",
"135 335 CURVE",
"121 345 OFFCURVE",
"131 366 OFFCURVE",
"140 374 CURVE SMOOTH",
"147 380 OFFCURVE",
"156 387 OFFCURVE",
"162 402 CURVE SMOOTH",
"168 417 OFFCURVE",
"164 437 OFFCURVE",
"150 445 CURVE",
"156 450 OFFCURVE",
"166 454 OFFCURVE",
"177 456 CURVE SMOOTH",
"187 457 OFFCURVE",
"198 455 OFFCURVE",
"208 452 CURVE",
"251 432 OFFCURVE",
"316 423 OFFCURVE",
"386 423 CURVE",
"387 412 OFFCURVE",
"391 401 OFFCURVE",
"395 390 CURVE",
"235 375 OFFCURVE",
"26 292 OFFCURVE",
"32 102 CURVE SMOOTH",
"35 29 OFFCURVE",
"87 -31 OFFCURVE",
"206 -40 CURVE",
"203 -59 OFFCURVE",
"203 -77 OFFCURVE",
"204 -94 CURVE",
"198 -112 OFFCURVE",
"188 -126 OFFCURVE",
"177 -134 CURVE",
"175 -131 OFFCURVE",
"173 -128 OFFCURVE",
"169 -126 CURVE",
"158 -117 OFFCURVE",
"146 -123 OFFCURVE",
"140 -127 CURVE SMOOTH",
"133 -133 OFFCURVE",
"124 -138 OFFCURVE",
"117 -137 CURVE SMOOTH",
"106 -136 OFFCURVE",
"97 -129 OFFCURVE",
"92 -126 CURVE",
"96 -146 OFFCURVE",
"120 -164 OFFCURVE",
"131 -168 CURVE SMOOTH",
"160 -179 OFFCURVE",
"182 -160 OFFCURVE",
"179 -141 CURVE",
"192 -133 OFFCURVE",
"200 -122 OFFCURVE",
"206 -110 CURVE",
"216 -181 OFFCURVE",
"263 -232 OFFCURVE",
"358 -229 CURVE",
"377 -250 OFFCURVE",
"428 -245 OFFCURVE",
"461 -194 CURVE SMOOTH",
"472 -178 OFFCURVE",
"491 -134 OFFCURVE",
"477 -105 CURVE",
"471 -118 OFFCURVE",
"452 -151 OFFCURVE",
"399 -155 CURVE SMOOTH",
"358 -159 OFFCURVE",
"342 -199 OFFCURVE",
"354 -222 CURVE",
"247 -223 OFFCURVE",
"215 -140 OFFCURVE",
"229 -42 CURVE",
"233 -42 OFFCURVE",
"238 -42 OFFCURVE",
"243 -42 CURVE SMOOTH",
"358 -41 OFFCURVE",
"502 -6 OFFCURVE",
"577 87 CURVE SMOOTH",
"690 226 OFFCURVE",
"567 329 OFFCURVE",
"440 282 CURVE SMOOTH",
"359 253 OFFCURVE",
"290 177 OFFCURVE",
"247 92 CURVE",
"246 91 OFFCURVE",
"244 91 OFFCURVE",
"242 90 CURVE SMOOTH",
"226 85 OFFCURVE",
"184 95 OFFCURVE",
"186 113 CURVE SMOOTH",
"187 125 OFFCURVE",
"182 124 OFFCURVE",
"178 120 CURVE SMOOTH",
"170 110 OFFCURVE",
"168 85 OFFCURVE",
"184 75 CURVE SMOOTH",
"199 66 OFFCURVE",
"227 72 OFFCURVE",
"239 81 CURVE",
"240 83 OFFCURVE",
"242 84 OFFCURVE",
"244 86 CURVE",
"227 50 OFFCURVE",
"215 12 OFFCURVE",
"208 -24 CURVE",
"133 -10 OFFCURVE",
"99 44 OFFCURVE",
"99 106 CURVE SMOOTH",
"100 264 OFFCURVE",
"262 363 OFFCURVE",
"404 374 CURVE",
"417 356 OFFCURVE",
"434 342 OFFCURVE",
"457 336 CURVE SMOOTH",
"508 323 OFFCURVE",
"535 347 OFFCURVE",
"521 366 CURVE SMOOTH",
"505 388 OFFCURVE",
"446 394 OFFCURVE",
"422 392 CURVE SMOOTH",
"421 392 LINE",
"418 402 OFFCURVE",
"416 413 OFFCURVE",
"416 424 CURVE",
"501 428 OFFCURVE",
"589 447 OFFCURVE",
"647 480 CURVE SMOOTH",
"690 504 OFFCURVE",
"711 541 OFFCURVE",
"708 571 CURVE SMOOTH",
"700 660 OFFCURVE",
"434 651 OFFCURVE",
"389 473 CURVE SMOOTH",
"385 460 OFFCURVE",
"384 446 OFFCURVE",
"385 432 CURVE",
"316 433 OFFCURVE",
"251 448 OFFCURVE",
"204 478 CURVE SMOOTH",
"69 566 OFFCURVE",
"152 697 OFFCURVE",
"264 646 CURVE SMOOTH",
"292 633 OFFCURVE",
"322 608 OFFCURVE",
"337 581 CURVE SMOOTH"
);
},
{
closed = 1;
nodes = (
"343 579 OFFCURVE",
"344 579 OFFCURVE",
"345 579 CURVE",
"348 570 OFFCURVE",
"345 567 OFFCURVE",
"338 579 CURVE",
"339 579 OFFCURVE",
"340 579 OFFCURVE",
"342 579 CURVE SMOOTH"
);
},
{
closed = 1;
nodes = (
"628 678 OFFCURVE",
"724 731 OFFCURVE",
"749 746 CURVE",
"752 749 OFFCURVE",
"755 751 OFFCURVE",
"755 755 CURVE SMOOTH",
"755 765 OFFCURVE",
"742 774 OFFCURVE",
"733 774 CURVE SMOOTH",
"719 774 OFFCURVE",
"631 700 OFFCURVE",
"607 688 CURVE SMOOTH",
"604 686 OFFCURVE",
"599 686 OFFCURVE",
"599 682 CURVE SMOOTH",
"599 679 OFFCURVE",
"602 678 OFFCURVE",
"605 678 CURVE SMOOTH"
);
}
);
width = 537;
}
);
note = Eacute;
unicode = 00C9;
},
{
color = 11;
glyphname = Ecircumflex;
lastChange = "2021-07-08 20:43:58 +0000";
layers = (
{
hints = (
{
horizontal = 1;
place = "{-229, 7}";
type = Stem;
},
{
horizontal = 1;
place = "{-171, 49}";
type = Stem;
},
{
horizontal = 1;
place = "{-42, 15}";
type = Stem;
},
{
horizontal = 1;
place = "{71, 19}";
type = Stem;
},
{
horizontal = 1;
place = "{281, 12}";
type = Stem;
},
{
horizontal = 1;
place = "{333, 15}";
type = Stem;
},
{
horizontal = 1;
place = "{423, 9}";
type = Stem;
},
{
horizontal = 1;
place = "{611, 15}";
type = Stem;
},
{
horizontal = 1;
place = "{657, 14}";
type = Stem;
},
{
horizontal = 1;
place = "{703, 7}";
type = Stem;
},
{
horizontal = 1;
place = "{743, 28}";
type = Stem;
},
{
place = "{101, 33}";
type = Stem;
},
{
place = "{206, 20}";
type = Stem;
},
{
place = "{350, 8}";
type = Stem;
},
{
place = "{502, 22}";
type = Stem;
},
{
place = "{583, 38}";
type = Stem;
},
{
place = "{685, 23}";
type = Stem;
},
{
horizontal = 1;
place = "{621, 15}";
type = Stem;
},
{
place = "{333, 41}";
type = Stem;
},
{
place = "{345, 20}";
type = Stem;
},
{
horizontal = 1;
place = "{456, 9}";
type = Stem;
},
{
place = "{144, 21}";
type = Stem;
},
{
horizontal = 1;
place = "{375, 17}";
type = Stem;
},
{
place = "{32, 67}";
type = Stem;
},
{
place = "{385, 31}";
type = Stem;
},
{
horizontal = 1;
place = "{670, 30}";
type = Stem;
}
);
layerId = "2072D606-CE9C-4455-8FDE-AAFE9455DC77";
paths = (
{
closed = 1;
nodes = (
"253 93 OFFCURVE",
"340 231 OFFCURVE",
"444 269 CURVE SMOOTH",
"563 313 OFFCURVE",
"636 226 OFFCURVE",
"535 102 CURVE SMOOTH",
"485 40 OFFCURVE",
"407 -18 OFFCURVE",
"269 -27 CURVE SMOOTH",
"256 -28 OFFCURVE",
"243 -28 OFFCURVE",
"231 -27 CURVE"
);
},
{
closed = 1;
nodes = (
"518 375 OFFCURVE",
"518 336 OFFCURVE",
"472 348 CURVE SMOOTH",
"453 353 OFFCURVE",
"439 362 OFFCURVE",
"430 375 CURVE"
);
},
{
closed = 1;
nodes = (
"417 445 OFFCURVE",
"419 457 OFFCURVE",
"422 469 CURVE SMOOTH",
"464 623 OFFCURVE",
"683 642 OFFCURVE",
"685 571 CURVE SMOOTH",
"685 554 OFFCURVE",
"673 533 OFFCURVE",
"649 512 CURVE SMOOTH",
"595 465 OFFCURVE",
"506 437 OFFCURVE",
"416 433 CURVE"
);
},
{
closed = 1;
nodes = (
"338 579 LINE",
"321 576 OFFCURVE",
"312 557 OFFCURVE",
"314 542 CURVE SMOOTH",
"316 526 OFFCURVE",
"322 517 OFFCURVE",
"327 509 CURVE SMOOTH",
"334 499 OFFCURVE",
"338 477 OFFCURVE",
"322 472 CURVE",
"323 470 OFFCURVE",
"327 467 OFFCURVE",
"335 469 CURVE SMOOTH",
"356 473 OFFCURVE",
"375 513 OFFCURVE",
"374 537 CURVE SMOOTH",
"373 559 OFFCURVE",
"359 576 OFFCURVE",
"345 579 CURVE",
"345 580 OFFCURVE",
"344 582 OFFCURVE",
"343 583 CURVE",
"335 598 OFFCURVE",
"325 612 OFFCURVE",
"313 624 CURVE",
"323 621 OFFCURVE",
"338 620 OFFCURVE",
"347 624 CURVE SMOOTH",
"372 636 OFFCURVE",
"367 657 OFFCURVE",
"359 666 CURVE SMOOTH",
"355 671 OFFCURVE",
"346 669 OFFCURVE",
"347 658 CURVE SMOOTH",
"349 642 OFFCURVE",
"315 633 OFFCURVE",
"299 636 CURVE",
"291 643 OFFCURVE",
"281 649 OFFCURVE",
"271 654 CURVE SMOOTH",
"126 722 OFFCURVE",
"20 572 OFFCURVE",
"185 465 CURVE",
"181 465 OFFCURVE",
"177 465 OFFCURVE",
"173 464 CURVE SMOOTH",
"162 462 OFFCURVE",
"152 456 OFFCURVE",
"144 447 CURVE",
"129 451 OFFCURVE",
"108 438 OFFCURVE",
"100 414 CURVE SMOOTH",
"93 390 OFFCURVE",
"101 345 OFFCURVE",
"122 335 CURVE SMOOTH",
"129 332 OFFCURVE",
"134 334 OFFCURVE",
"135 335 CURVE",
"121 345 OFFCURVE",
"131 366 OFFCURVE",
"140 374 CURVE SMOOTH",
"147 380 OFFCURVE",
"156 387 OFFCURVE",
"162 402 CURVE SMOOTH",
"168 417 OFFCURVE",
"164 437 OFFCURVE",
"150 445 CURVE",
"156 450 OFFCURVE",
"166 454 OFFCURVE",
"177 456 CURVE SMOOTH",
"187 457 OFFCURVE",
"198 455 OFFCURVE",
"208 452 CURVE",
"251 432 OFFCURVE",
"316 423 OFFCURVE",
"386 423 CURVE",
"387 412 OFFCURVE",
"391 401 OFFCURVE",
"395 390 CURVE",
"235 375 OFFCURVE",
"26 292 OFFCURVE",
"32 102 CURVE SMOOTH",
"35 29 OFFCURVE",
"87 -31 OFFCURVE",
"206 -40 CURVE",
"203 -59 OFFCURVE",
"203 -77 OFFCURVE",
"204 -94 CURVE",
"198 -112 OFFCURVE",
"188 -126 OFFCURVE",
"177 -134 CURVE",
"175 -131 OFFCURVE",
"173 -128 OFFCURVE",
"169 -126 CURVE",
"158 -117 OFFCURVE",
"146 -123 OFFCURVE",
"140 -127 CURVE SMOOTH",
"133 -133 OFFCURVE",
"124 -138 OFFCURVE",
"117 -137 CURVE SMOOTH",
"106 -136 OFFCURVE",
"97 -129 OFFCURVE",
"92 -126 CURVE",
"96 -146 OFFCURVE",
"120 -164 OFFCURVE",
"131 -168 CURVE SMOOTH",
"160 -179 OFFCURVE",
"182 -160 OFFCURVE",
"179 -141 CURVE",
"192 -133 OFFCURVE",
"200 -122 OFFCURVE",
"206 -110 CURVE",
"216 -181 OFFCURVE",
"263 -232 OFFCURVE",
"358 -229 CURVE",
"377 -250 OFFCURVE",
"428 -245 OFFCURVE",
"461 -194 CURVE SMOOTH",
"472 -178 OFFCURVE",
"491 -134 OFFCURVE",
"477 -105 CURVE",
"471 -118 OFFCURVE",
"452 -151 OFFCURVE",
"399 -155 CURVE SMOOTH",
"358 -159 OFFCURVE",
"342 -199 OFFCURVE",
"354 -222 CURVE",
"247 -223 OFFCURVE",
"215 -140 OFFCURVE",
"229 -42 CURVE",
"233 -42 OFFCURVE",
"238 -42 OFFCURVE",
"243 -42 CURVE SMOOTH",
"358 -41 OFFCURVE",
"502 -6 OFFCURVE",
"577 87 CURVE SMOOTH",
"690 226 OFFCURVE",
"567 329 OFFCURVE",
"440 282 CURVE SMOOTH",
"359 253 OFFCURVE",
"290 177 OFFCURVE",
"247 92 CURVE",
"246 91 OFFCURVE",
"244 91 OFFCURVE",
"242 90 CURVE SMOOTH",
"226 85 OFFCURVE",
"184 95 OFFCURVE",
"186 113 CURVE SMOOTH",
"187 125 OFFCURVE",
"182 124 OFFCURVE",
"178 120 CURVE SMOOTH",
"170 110 OFFCURVE",
"168 85 OFFCURVE",
"184 75 CURVE SMOOTH",
"199 66 OFFCURVE",
"227 72 OFFCURVE",
"239 81 CURVE",
"240 83 OFFCURVE",
"242 84 OFFCURVE",
"244 86 CURVE",
"227 50 OFFCURVE",
"215 12 OFFCURVE",
"208 -24 CURVE",
"133 -10 OFFCURVE",
"99 44 OFFCURVE",
"99 106 CURVE SMOOTH",
"100 264 OFFCURVE",
"262 363 OFFCURVE",
"404 374 CURVE",
"417 356 OFFCURVE",
"434 342 OFFCURVE",
"457 336 CURVE SMOOTH",
"508 323 OFFCURVE",
"535 347 OFFCURVE",
"521 366 CURVE SMOOTH",
"505 388 OFFCURVE",
"446 394 OFFCURVE",
"422 392 CURVE SMOOTH",
"421 392 LINE",
"418 402 OFFCURVE",
"416 413 OFFCURVE",
"416 424 CURVE",
"501 428 OFFCURVE",
"589 447 OFFCURVE",
"647 480 CURVE SMOOTH",
"690 504 OFFCURVE",
"711 541 OFFCURVE",
"708 571 CURVE SMOOTH",
"700 660 OFFCURVE",
"434 651 OFFCURVE",
"389 473 CURVE SMOOTH",
"385 460 OFFCURVE",
"384 446 OFFCURVE",
"385 432 CURVE",
"316 433 OFFCURVE",
"251 448 OFFCURVE",
"204 478 CURVE SMOOTH",
"69 566 OFFCURVE",
"152 697 OFFCURVE",
"264 646 CURVE SMOOTH",
"292 633 OFFCURVE",
"322 608 OFFCURVE",
"337 581 CURVE SMOOTH"
);
},
{
closed = 1;
nodes = (
"343 579 OFFCURVE",
"344 579 OFFCURVE",
"345 579 CURVE",
"348 570 OFFCURVE",
"345 567 OFFCURVE",
"338 579 CURVE",
"339 579 OFFCURVE",
"340 579 OFFCURVE",
"342 579 CURVE SMOOTH"
);
},
{
closed = 1;
nodes = (
"760 670 OFFCURVE",
"784 690 OFFCURVE",
"805 703 CURVE",
"806 703 OFFCURVE",
"809 708 OFFCURVE",
"809 709 CURVE SMOOTH",
"809 710 OFFCURVE",
"808 710 OFFCURVE",
"808 710 CURVE",
"800 710 OFFCURVE",
"778 700 OFFCURVE",
"760 700 CURVE SMOOTH",
"699 700 OFFCURVE",
"700 771 OFFCURVE",
"675 771 CURVE SMOOTH",
"670 771 OFFCURVE",
"665 768 OFFCURVE",
"661 765 CURVE SMOOTH",
"634 745 OFFCURVE",
"605 728 OFFCURVE",
"577 710 CURVE SMOOTH",
"568 705 OFFCURVE",
"546 693 OFFCURVE",
"539 687 CURVE",
"539 687 OFFCURVE",
"537 685 OFFCURVE",
"537 684 CURVE SMOOTH",
"537 680 OFFCURVE",
"543 678 OFFCURVE",
"546 678 CURVE SMOOTH",
"554 678 OFFCURVE",
"637 743 OFFCURVE",
"648 743 CURVE SMOOTH",
"678 743 OFFCURVE",
"683 670 OFFCURVE",
"734 670 CURVE SMOOTH"
);
}
);
width = 537;
}
);
note = Ecircumflex;
unicode = 00CA;
},
{
color = 11;
glyphname = Edieresis;
lastChange = "2021-07-08 20:43:58 +0000";
layers = (
{
hints = (
{
horizontal = 1;
place = "{387, 11}";
type = Stem;
},
{
horizontal = 1;
place = "{814, 8}";
type = Stem;
},
{
horizontal = 1;
place = "{672, 66}";
type = Stem;
},
{
place = "{546, 66}";
type = Stem;
},
{
place = "{675, 66}";
type = Stem;
}
);
layerId = "2072D606-CE9C-4455-8FDE-AAFE9455DC77";
paths = (
{
closed = 1;
nodes = (
"253 93 OFFCURVE",
"340 231 OFFCURVE",
"444 269 CURVE SMOOTH",
"563 313 OFFCURVE",
"636 226 OFFCURVE",
"535 102 CURVE SMOOTH",
"485 40 OFFCURVE",
"407 -18 OFFCURVE",
"269 -27 CURVE SMOOTH",
"256 -28 OFFCURVE",
"243 -28 OFFCURVE",
"231 -27 CURVE"
);
},
{
closed = 1;
nodes = (
"518 375 OFFCURVE",
"518 336 OFFCURVE",
"472 348 CURVE SMOOTH",
"453 353 OFFCURVE",
"439 362 OFFCURVE",
"430 375 CURVE"
);
},
{
closed = 1;
nodes = (
"417 445 OFFCURVE",
"419 457 OFFCURVE",
"422 469 CURVE SMOOTH",
"464 623 OFFCURVE",
"683 642 OFFCURVE",
"685 571 CURVE SMOOTH",
"685 554 OFFCURVE",
"673 533 OFFCURVE",
"649 512 CURVE SMOOTH",
"595 465 OFFCURVE",
"506 437 OFFCURVE",
"416 433 CURVE"
);
},
{
closed = 1;
nodes = (
"338 579 LINE",
"321 576 OFFCURVE",
"312 557 OFFCURVE",
"314 542 CURVE SMOOTH",
"316 526 OFFCURVE",
"322 517 OFFCURVE",
"327 509 CURVE SMOOTH",
"334 499 OFFCURVE",
"338 477 OFFCURVE",
"322 472 CURVE",
"323 470 OFFCURVE",
"327 467 OFFCURVE",
"335 469 CURVE SMOOTH",
"356 473 OFFCURVE",
"375 513 OFFCURVE",
"374 537 CURVE SMOOTH",
"373 559 OFFCURVE",
"359 576 OFFCURVE",
"345 579 CURVE",
"345 580 OFFCURVE",
"344 582 OFFCURVE",
"343 583 CURVE",
"335 598 OFFCURVE",
"325 612 OFFCURVE",
"313 624 CURVE",
"323 621 OFFCURVE",
"338 620 OFFCURVE",
"347 624 CURVE SMOOTH",
"372 636 OFFCURVE",
"367 657 OFFCURVE",
"359 666 CURVE SMOOTH",
"355 671 OFFCURVE",
"346 669 OFFCURVE",
"347 658 CURVE SMOOTH",
"349 642 OFFCURVE",
"315 633 OFFCURVE",
"299 636 CURVE",
"291 643 OFFCURVE",
"281 649 OFFCURVE",
"271 654 CURVE SMOOTH",
"126 722 OFFCURVE",
"20 572 OFFCURVE",
"185 465 CURVE",
"181 465 OFFCURVE",
"177 465 OFFCURVE",
"173 464 CURVE SMOOTH",
"162 462 OFFCURVE",
"152 456 OFFCURVE",
"144 447 CURVE",
"129 451 OFFCURVE",
"108 438 OFFCURVE",
"100 414 CURVE SMOOTH",
"93 390 OFFCURVE",
"101 345 OFFCURVE",
"122 335 CURVE SMOOTH",
"129 332 OFFCURVE",
"134 334 OFFCURVE",
"135 335 CURVE",
"121 345 OFFCURVE",
"131 366 OFFCURVE",
"140 374 CURVE SMOOTH",
"147 380 OFFCURVE",
"156 387 OFFCURVE",
"162 402 CURVE SMOOTH",
"168 417 OFFCURVE",
"164 437 OFFCURVE",
"150 445 CURVE",
"156 450 OFFCURVE",
"166 454 OFFCURVE",
"177 456 CURVE SMOOTH",
"187 457 OFFCURVE",
"198 455 OFFCURVE",
"208 452 CURVE",
"251 432 OFFCURVE",
"316 423 OFFCURVE",
"386 423 CURVE",
"387 412 OFFCURVE",
"391 401 OFFCURVE",
"395 390 CURVE",
"235 375 OFFCURVE",
"26 292 OFFCURVE",
"32 102 CURVE SMOOTH",
"35 29 OFFCURVE",
"87 -31 OFFCURVE",
"206 -40 CURVE",
"203 -59 OFFCURVE",
"203 -77 OFFCURVE",
"204 -94 CURVE",
"198 -112 OFFCURVE",
"188 -126 OFFCURVE",
"177 -134 CURVE",
"175 -131 OFFCURVE",
"173 -128 OFFCURVE",
"169 -126 CURVE",
"158 -117 OFFCURVE",
"146 -123 OFFCURVE",
"140 -127 CURVE SMOOTH",
"133 -133 OFFCURVE",
"124 -138 OFFCURVE",
"117 -137 CURVE SMOOTH",
"106 -136 OFFCURVE",
"97 -129 OFFCURVE",
"92 -126 CURVE",
"96 -146 OFFCURVE",
"120 -164 OFFCURVE",
"131 -168 CURVE SMOOTH",
"160 -179 OFFCURVE",
"182 -160 OFFCURVE",
"179 -141 CURVE",
"192 -133 OFFCURVE",
"200 -122 OFFCURVE",
"206 -110 CURVE",
"216 -181 OFFCURVE",
"263 -232 OFFCURVE",
"358 -229 CURVE",
"377 -250 OFFCURVE",
"428 -245 OFFCURVE",
"461 -194 CURVE SMOOTH",
"472 -178 OFFCURVE",
"491 -134 OFFCURVE",
"477 -105 CURVE",
"471 -118 OFFCURVE",
"452 -151 OFFCURVE",
"399 -155 CURVE SMOOTH",
"358 -159 OFFCURVE",
"342 -199 OFFCURVE",
"354 -222 CURVE",
"247 -223 OFFCURVE",
"215 -140 OFFCURVE",
"229 -42 CURVE",
"233 -42 OFFCURVE",
"238 -42 OFFCURVE",
"243 -42 CURVE SMOOTH",
"358 -41 OFFCURVE",
"502 -6 OFFCURVE",
"577 87 CURVE SMOOTH",
"690 226 OFFCURVE",
"567 329 OFFCURVE",
"440 282 CURVE SMOOTH",
"359 253 OFFCURVE",
"290 177 OFFCURVE",
"247 92 CURVE",
"246 91 OFFCURVE",
"244 91 OFFCURVE",
"242 90 CURVE SMOOTH",
"226 85 OFFCURVE",
"184 95 OFFCURVE",
"186 113 CURVE SMOOTH",
"187 125 OFFCURVE",
"182 124 OFFCURVE",
"178 120 CURVE SMOOTH",
"170 110 OFFCURVE",
"168 85 OFFCURVE",
"184 75 CURVE SMOOTH",
"199 66 OFFCURVE",
"227 72 OFFCURVE",
"239 81 CURVE",
"240 83 OFFCURVE",
"242 84 OFFCURVE",
"244 86 CURVE",
"227 50 OFFCURVE",
"215 12 OFFCURVE",
"208 -24 CURVE",
"133 -10 OFFCURVE",
"99 44 OFFCURVE",
"99 106 CURVE SMOOTH",
"100 264 OFFCURVE",
"262 363 OFFCURVE",
"404 374 CURVE",
"417 356 OFFCURVE",
"434 342 OFFCURVE",
"457 336 CURVE SMOOTH",
"508 323 OFFCURVE",
"535 347 OFFCURVE",
"521 366 CURVE SMOOTH",
"505 388 OFFCURVE",
"446 394 OFFCURVE",
"422 392 CURVE SMOOTH",
"421 392 LINE",
"418 402 OFFCURVE",
"416 413 OFFCURVE",
"416 424 CURVE",
"501 428 OFFCURVE",
"589 447 OFFCURVE",
"647 480 CURVE SMOOTH",
"690 504 OFFCURVE",
"711 541 OFFCURVE",
"708 571 CURVE SMOOTH",
"700 660 OFFCURVE",
"434 651 OFFCURVE",
"389 473 CURVE SMOOTH",
"385 460 OFFCURVE",
"384 446 OFFCURVE",
"385 432 CURVE",
"316 433 OFFCURVE",
"251 448 OFFCURVE",
"204 478 CURVE SMOOTH",
"69 566 OFFCURVE",
"152 697 OFFCURVE",
"264 646 CURVE SMOOTH",
"292 633 OFFCURVE",
"322 608 OFFCURVE",
"337 581 CURVE SMOOTH"
);
},
{
closed = 1;
nodes = (
"343 579 OFFCURVE",
"344 579 OFFCURVE",
"345 579 CURVE",
"348 570 OFFCURVE",
"345 567 OFFCURVE",
"338 579 CURVE",
"339 579 OFFCURVE",
"340 579 OFFCURVE",
"342 579 CURVE SMOOTH"
);
},
{
closed = 1;
nodes = (
"741 725 OFFCURVE",
"726 738 OFFCURVE",
"707 738 CURVE SMOOTH",
"688 738 OFFCURVE",
"675 724 OFFCURVE",
"675 705 CURVE SMOOTH",
"675 685 OFFCURVE",
"690 672 OFFCURVE",
"709 672 CURVE SMOOTH",
"728 672 OFFCURVE",
"741 686 OFFCURVE",
"741 705 CURVE SMOOTH"
);
},
{
closed = 1;
nodes = (
"612 725 OFFCURVE",
"597 738 OFFCURVE",
"578 738 CURVE SMOOTH",
"559 738 OFFCURVE",
"546 724 OFFCURVE",
"546 705 CURVE SMOOTH",
"546 685 OFFCURVE",
"561 672 OFFCURVE",
"580 672 CURVE SMOOTH",
"599 672 OFFCURVE",
"612 686 OFFCURVE",
"612 705 CURVE SMOOTH"
);
}
);
width = 537;
}
);
note = Edieresis;
unicode = 00CB;
},
{
color = 11;
glyphname = Egrave;
lastChange = "2021-07-08 20:43:58 +0000";
layers = (
{
hints = (
{
horizontal = 1;
place = "{-229, 7}";
type = Stem;
},
{
horizontal = 1;
place = "{-171, 49}";
type = Stem;
},
{
horizontal = 1;
place = "{-42, 15}";
type = Stem;
},
{
horizontal = 1;
place = "{71, 19}";
type = Stem;
},
{
horizontal = 1;
place = "{281, 12}";
type = Stem;
},
{
horizontal = 1;
place = "{333, 15}";
type = Stem;
},
{
horizontal = 1;
place = "{423, 9}";
type = Stem;
},
{
horizontal = 1;
place = "{611, 15}";
type = Stem;
},
{
horizontal = 1;
place = "{657, 14}";
type = Stem;
},
{
place = "{101, 33}";
type = Stem;
},
{
place = "{206, 20}";
type = Stem;
},
{
place = "{350, 8}";
type = Stem;
},
{
place = "{502, 22}";
type = Stem;
},
{
place = "{583, 38}";
type = Stem;
},
{
place = "{685, 23}";
type = Stem;
},
{
horizontal = 1;
place = "{621, 15}";
type = Stem;
},
{
place = "{333, 41}";
type = Stem;
},
{
place = "{345, 20}";
type = Stem;
},
{
horizontal = 1;
place = "{456, 9}";
type = Stem;
},
{
place = "{144, 21}";
type = Stem;
},
{
horizontal = 1;
place = "{375, 17}";
type = Stem;
},
{
place = "{32, 67}";
type = Stem;
},
{
place = "{385, 31}";
type = Stem;
}
);
layerId = "2072D606-CE9C-4455-8FDE-AAFE9455DC77";
paths = (
{
closed = 1;
nodes = (
"654 688 OFFCURVE",
"649 688 OFFCURVE",
"647 690 CURVE",
"622 701 OFFCURVE",
"535 776 OFFCURVE",
"521 776 CURVE SMOOTH",
"511 776 OFFCURVE",
"499 767 OFFCURVE",
"499 757 CURVE SMOOTH",
"499 753 OFFCURVE",
"501 750 OFFCURVE",
"505 748 CURVE SMOOTH",
"530 733 OFFCURVE",
"625 680 OFFCURVE",
"649 680 CURVE SMOOTH",
"651 680 OFFCURVE",
"654 681 OFFCURVE",
"654 684 CURVE SMOOTH"
);
},
{
closed = 1;
nodes = (
"253 93 OFFCURVE",
"340 231 OFFCURVE",
"444 269 CURVE SMOOTH",
"563 313 OFFCURVE",
"636 226 OFFCURVE",
"535 102 CURVE SMOOTH",
"485 40 OFFCURVE",
"407 -18 OFFCURVE",
"269 -27 CURVE SMOOTH",
"256 -28 OFFCURVE",
"243 -28 OFFCURVE",
"231 -27 CURVE"
);
},
{
closed = 1;
nodes = (
"518 375 OFFCURVE",
"518 336 OFFCURVE",
"472 348 CURVE SMOOTH",
"453 353 OFFCURVE",
"439 362 OFFCURVE",
"430 375 CURVE"
);
},
{
closed = 1;
nodes = (
"417 445 OFFCURVE",
"419 457 OFFCURVE",
"422 469 CURVE SMOOTH",
"464 623 OFFCURVE",
"683 642 OFFCURVE",
"685 571 CURVE SMOOTH",
"685 554 OFFCURVE",
"673 533 OFFCURVE",
"649 512 CURVE SMOOTH",
"595 465 OFFCURVE",
"506 437 OFFCURVE",
"416 433 CURVE"
);
},
{
closed = 1;
nodes = (
"338 579 LINE",
"321 576 OFFCURVE",
"312 557 OFFCURVE",
"314 542 CURVE SMOOTH",
"316 526 OFFCURVE",
"322 517 OFFCURVE",
"327 509 CURVE SMOOTH",
"334 499 OFFCURVE",
"338 477 OFFCURVE",
"322 472 CURVE",
"323 470 OFFCURVE",
"327 467 OFFCURVE",
"335 469 CURVE SMOOTH",
"356 473 OFFCURVE",
"375 513 OFFCURVE",
"374 537 CURVE SMOOTH",
"373 559 OFFCURVE",
"359 576 OFFCURVE",
"345 579 CURVE",
"345 580 OFFCURVE",
"344 582 OFFCURVE",
"343 583 CURVE",
"335 598 OFFCURVE",
"325 612 OFFCURVE",
"313 624 CURVE",
"323 621 OFFCURVE",
"338 620 OFFCURVE",
"347 624 CURVE SMOOTH",
"372 636 OFFCURVE",
"367 657 OFFCURVE",
"359 666 CURVE SMOOTH",
"355 671 OFFCURVE",
"346 669 OFFCURVE",
"347 658 CURVE SMOOTH",
"349 642 OFFCURVE",
"315 633 OFFCURVE",
"299 636 CURVE",
"291 643 OFFCURVE",
"281 649 OFFCURVE",
"271 654 CURVE SMOOTH",
"126 722 OFFCURVE",
"20 572 OFFCURVE",
"185 465 CURVE",
"181 465 OFFCURVE",
"177 465 OFFCURVE",
"173 464 CURVE SMOOTH",
"162 462 OFFCURVE",
"152 456 OFFCURVE",
"144 447 CURVE",
"129 451 OFFCURVE",
"108 438 OFFCURVE",
"100 414 CURVE SMOOTH",
"93 390 OFFCURVE",
"101 345 OFFCURVE",
"122 335 CURVE SMOOTH",
"129 332 OFFCURVE",
"134 334 OFFCURVE",
"135 335 CURVE",
"121 345 OFFCURVE",
"131 366 OFFCURVE",
"140 374 CURVE SMOOTH",
"147 380 OFFCURVE",
"156 387 OFFCURVE",
"162 402 CURVE SMOOTH",
"168 417 OFFCURVE",
"164 437 OFFCURVE",
"150 445 CURVE",
"156 450 OFFCURVE",
"166 454 OFFCURVE",
"177 456 CURVE SMOOTH",
"187 457 OFFCURVE",
"198 455 OFFCURVE",
"208 452 CURVE",
"251 432 OFFCURVE",
"316 423 OFFCURVE",
"386 423 CURVE",
"387 412 OFFCURVE",
"391 401 OFFCURVE",
"395 390 CURVE",
"235 375 OFFCURVE",
"26 292 OFFCURVE",
"32 102 CURVE SMOOTH",
"35 29 OFFCURVE",
"87 -31 OFFCURVE",
"206 -40 CURVE",
"203 -59 OFFCURVE",
"203 -77 OFFCURVE",
"204 -94 CURVE",
"198 -112 OFFCURVE",
"188 -126 OFFCURVE",
"177 -134 CURVE",
"175 -131 OFFCURVE",
"173 -128 OFFCURVE",
"169 -126 CURVE",
"158 -117 OFFCURVE",
"146 -123 OFFCURVE",
"140 -127 CURVE SMOOTH",
"133 -133 OFFCURVE",
"124 -138 OFFCURVE",
"117 -137 CURVE SMOOTH",
"106 -136 OFFCURVE",
"97 -129 OFFCURVE",
"92 -126 CURVE",
"96 -146 OFFCURVE",
"120 -164 OFFCURVE",
"131 -168 CURVE SMOOTH",
"160 -179 OFFCURVE",
"182 -160 OFFCURVE",
"179 -141 CURVE",
"192 -133 OFFCURVE",
"200 -122 OFFCURVE",
"206 -110 CURVE",
"216 -181 OFFCURVE",
"263 -232 OFFCURVE",
"358 -229 CURVE",
"377 -250 OFFCURVE",
"428 -245 OFFCURVE",
"461 -194 CURVE SMOOTH",
"472 -178 OFFCURVE",
"491 -134 OFFCURVE",
"477 -105 CURVE",
"471 -118 OFFCURVE",
"452 -151 OFFCURVE",
"399 -155 CURVE SMOOTH",
"358 -159 OFFCURVE",
"342 -199 OFFCURVE",
"354 -222 CURVE",
"247 -223 OFFCURVE",
"215 -140 OFFCURVE",
"229 -42 CURVE",
"233 -42 OFFCURVE",
"238 -42 OFFCURVE",
"243 -42 CURVE SMOOTH",
"358 -41 OFFCURVE",
"502 -6 OFFCURVE",
"577 87 CURVE SMOOTH",
"690 226 OFFCURVE",
"567 329 OFFCURVE",
"440 282 CURVE SMOOTH",
"359 253 OFFCURVE",
"290 177 OFFCURVE",
"247 92 CURVE",
"246 91 OFFCURVE",
"244 91 OFFCURVE",
"242 90 CURVE SMOOTH",
"226 85 OFFCURVE",
"184 95 OFFCURVE",
"186 113 CURVE SMOOTH",
"187 125 OFFCURVE",
"182 124 OFFCURVE",
"178 120 CURVE SMOOTH",
"170 110 OFFCURVE",
"168 85 OFFCURVE",
"184 75 CURVE SMOOTH",
"199 66 OFFCURVE",
"227 72 OFFCURVE",
"239 81 CURVE",
"240 83 OFFCURVE",
"242 84 OFFCURVE",
"244 86 CURVE",
"227 50 OFFCURVE",
"215 12 OFFCURVE",
"208 -24 CURVE",
"133 -10 OFFCURVE",
"99 44 OFFCURVE",
"99 106 CURVE SMOOTH",
"100 264 OFFCURVE",
"262 363 OFFCURVE",
"404 374 CURVE",
"417 356 OFFCURVE",
"434 342 OFFCURVE",
"457 336 CURVE SMOOTH",
"508 323 OFFCURVE",
"535 347 OFFCURVE",
"521 366 CURVE SMOOTH",
"505 388 OFFCURVE",
"446 394 OFFCURVE",
"422 392 CURVE SMOOTH",
"421 392 LINE",
"418 402 OFFCURVE",
"416 413 OFFCURVE",
"416 424 CURVE",
"501 428 OFFCURVE",
"589 447 OFFCURVE",
"647 480 CURVE SMOOTH",
"690 504 OFFCURVE",
"711 541 OFFCURVE",
"708 571 CURVE SMOOTH",
"700 660 OFFCURVE",
"434 651 OFFCURVE",
"389 473 CURVE SMOOTH",
"385 460 OFFCURVE",
"384 446 OFFCURVE",
"385 432 CURVE",
"316 433 OFFCURVE",
"251 448 OFFCURVE",
"204 478 CURVE SMOOTH",
"69 566 OFFCURVE",
"152 697 OFFCURVE",
"264 646 CURVE SMOOTH",
"292 633 OFFCURVE",
"322 608 OFFCURVE",
"337 581 CURVE SMOOTH"
);
},
{
closed = 1;
nodes = (
"343 579 OFFCURVE",
"344 579 OFFCURVE",
"345 579 CURVE",
"348 570 OFFCURVE",
"345 567 OFFCURVE",
"338 579 CURVE",
"339 579 OFFCURVE",
"340 579 OFFCURVE",
"342 579 CURVE SMOOTH"
);
}
);
width = 537;
}
);
note = Egrave;
unicode = 00C8;
},
{
glyphname = F;
lastChange = "2021-04-20 17:37:48 +0000";
layers = (
{
hints = (
{
horizontal = 1;
place = "{-56, 16}";
type = Stem;
},
{
horizontal = 1;
place = "{63, 13}";
type = Stem;
},
{
horizontal = 1;
place = "{270, 11}";
type = Stem;
},
{
horizontal = 1;
place = "{547, 19}";
type = Stem;
},
{
place = "{899, 9}";
type = Stem;
}
);
layerId = "2072D606-CE9C-4455-8FDE-AAFE9455DC77";
paths = (
{
closed = 1;
nodes = (
"916 565 OFFCURVE",
"961 560 OFFCURVE",
"959 526 CURVE SMOOTH",
"957 507 OFFCURVE",
"938 487 OFFCURVE",
"878 497 CURVE SMOOTH",
"844 503 OFFCURVE",
"810 513 OFFCURVE",
"792 517 CURVE",
"823 538 OFFCURVE",
"856 557 OFFCURVE",
"891 562 CURVE SMOOTH"
);
},
{
closed = 1;
nodes = (
"683 196 OFFCURVE",
"706 210 OFFCURVE",
"729 215 CURVE",
"731 215 OFFCURVE",
"732 215 OFFCURVE",
"732 216 CURVE",
"748 221 OFFCURVE",
"760 229 OFFCURVE",
"766 243 CURVE",
"758 246 LINE",
"746 220 OFFCURVE",
"695 220 OFFCURVE",
"610 221 CURVE SMOOTH",
"574 221 LINE",
"638 325 OFFCURVE",
"716 449 OFFCURVE",
"778 502 CURVE",
"813 495 OFFCURVE",
"841 487 OFFCURVE",
"871 483 CURVE SMOOTH",
"1015 461 OFFCURVE",
"1021 552 OFFCURVE",
"948 573 CURVE SMOOTH",
"909 584 OFFCURVE",
"847 581 OFFCURVE",
"773 522 CURVE",
"567 575 OFFCURVE",
"307 671 OFFCURVE",
"148 579 CURVE SMOOTH",
"43 519 OFFCURVE",
"19 407 OFFCURVE",
"67 334 CURVE",
"67 333 OFFCURVE",
"67 331 OFFCURVE",
"68 329 CURVE SMOOTH",
"76 309 OFFCURVE",
"78 289 OFFCURVE",
"74 272 CURVE",
"59 275 OFFCURVE",
"35 263 OFFCURVE",
"41 241 CURVE SMOOTH",
"52 204 OFFCURVE",
"28 183 OFFCURVE",
"23 177 CURVE",
"46 173 OFFCURVE",
"72 196 OFFCURVE",
"81 206 CURVE SMOOTH",
"94 221 OFFCURVE",
"105 256 OFFCURVE",
"83 269 CURVE",
"87 285 OFFCURVE",
"86 301 OFFCURVE",
"82 315 CURVE",
"114 282 OFFCURVE",
"165 260 OFFCURVE",
"234 264 CURVE",
"235 262 OFFCURVE",
"237 260 OFFCURVE",
"239 258 CURVE SMOOTH",
"253 243 OFFCURVE",
"287 243 OFFCURVE",
"312 265 CURVE SMOOTH",
"337 287 OFFCURVE",
"360 344 OFFCURVE",
"344 370 CURVE SMOOTH",
"338 380 OFFCURVE",
"331 380 OFFCURVE",
"329 380 CURVE",
"338 359 OFFCURVE",
"311 342 OFFCURVE",
"295 339 CURVE SMOOTH",
"282 337 OFFCURVE",
"267 335 OFFCURVE",
"249 322 CURVE SMOOTH",
"234 311 OFFCURVE",
"225 290 OFFCURVE",
"230 272 CURVE",
"73 264 OFFCURVE",
"53 420 OFFCURVE",
"163 517 CURVE SMOOTH",
"293 631 OFFCURVE",
"548 553 OFFCURVE",
"756 507 CURVE",
"679 444 OFFCURVE",
"608 355 OFFCURVE",
"564 290 CURVE SMOOTH",
"549 268 OFFCURVE",
"534 244 OFFCURVE",
"518 221 CURVE",
"438 221 LINE",
"437 222 OFFCURVE",
"434 223 OFFCURVE",
"428 224 CURVE",
"413 231 OFFCURVE",
"386 264 OFFCURVE",
"398 277 CURVE SMOOTH",
"407 286 OFFCURVE",
"402 288 OFFCURVE",
"396 287 CURVE SMOOTH",
"383 285 OFFCURVE",
"367 266 OFFCURVE",
"373 249 CURVE SMOOTH",
"379 236 OFFCURVE",
"396 225 OFFCURVE",
"410 221 CURVE",
"378 221 LINE SMOOTH",
"264 221 OFFCURVE",
"201 171 OFFCURVE",
"199 112 CURVE SMOOTH",
"198 74 OFFCURVE",
"229 27 OFFCURVE",
"261 17 CURVE",
"264 21 LINE",
"191 81 OFFCURVE",
"214 207 OFFCURVE",
"378 207 CURVE SMOOTH",
"424 207 OFFCURVE",
"466 207 OFFCURVE",
"508 207 CURVE",
"382 23 OFFCURVE",
"224 -183 OFFCURVE",
"105 -177 CURVE SMOOTH",
"64 -174 OFFCURVE",
"29 -147 OFFCURVE",
"40 -100 CURVE SMOOTH",
"46 -72 OFFCURVE",
"77 -46 OFFCURVE",
"102 -47 CURVE SMOOTH",
"103 -47 LINE SMOOTH",
"120 -50 OFFCURVE",
"124 -64 OFFCURVE",
"126 -90 CURVE SMOOTH",
"128 -121 OFFCURVE",
"166 -137 OFFCURVE",
"183 -110 CURVE",
"178 -111 OFFCURVE",
"172 -109 OFFCURVE",
"168 -105 CURVE SMOOTH",
"154 -92 OFFCURVE",
"167 -72 OFFCURVE",
"161 -52 CURVE SMOOTH",
"160 -50 LINE",
"166 -53 OFFCURVE",
"173 -55 OFFCURVE",
"178 -55 CURVE SMOOTH",
"200 -53 OFFCURVE",
"202 -36 OFFCURVE",
"199 -27 CURVE SMOOTH",
"197 -23 OFFCURVE",
"194 -20 OFFCURVE",
"192 -28 CURVE SMOOTH",
"189 -39 OFFCURVE",
"164 -39 OFFCURVE",
"151 -35 CURVE",
"136 -20 OFFCURVE",
"111 -23 OFFCURVE",
"101 -40 CURVE",
"68 -39 OFFCURVE",
"29 -64 OFFCURVE",
"22 -97 CURVE SMOOTH",
"9 -155 OFFCURVE",
"58 -188 OFFCURVE",
"105 -191 CURVE SMOOTH",
"252 -198 OFFCURVE",
"388 -76 OFFCURVE",
"512 121 CURVE SMOOTH",
"528 146 OFFCURVE",
"546 175 OFFCURVE",
"565 207 CURVE",
"610 207 LINE SMOOTH",
"637 207 OFFCURVE",
"661 207 OFFCURVE",
"682 208 CURVE",
"675 202 OFFCURVE",
"668 194 OFFCURVE",
"660 184 CURVE",
"642 186 OFFCURVE",
"619 169 OFFCURVE",
"611 141 CURVE SMOOTH",
"603 111 OFFCURVE",
"614 55 OFFCURVE",
"639 43 CURVE SMOOTH",
"648 38 OFFCURVE",
"653 41 OFFCURVE",
"655 43 CURVE",
"638 55 OFFCURVE",
"649 81 OFFCURVE",
"660 92 CURVE SMOOTH",
"669 100 OFFCURVE",
"679 109 OFFCURVE",
"686 128 CURVE SMOOTH",
"693 147 OFFCURVE",
"687 172 OFFCURVE",
"669 181 CURVE"
);
}
);
width = 687;
}
);
note = F;
unicode = 0046;
},
{
glyphname = G;
lastChange = "2021-04-20 17:37:48 +0000";
layers = (
{
hints = (
{
horizontal = 1;
place = "{434, 39}";
type = Stem;
},
{
horizontal = 1;
place = "{642, 12}";
type = Stem;
}
);
layerId = "2072D606-CE9C-4455-8FDE-AAFE9455DC77";
paths = (
{
closed = 1;
nodes = (
"570 428 OFFCURVE",
"623 499 OFFCURVE",
"681 534 CURVE SMOOTH",
"868 648 OFFCURVE",
"932 461 OFFCURVE",
"747 379 CURVE SMOOTH",
"685 352 OFFCURVE",
"607 344 OFFCURVE",
"539 359 CURVE"
);
},
{
closed = 1;
nodes = (
"974 429 OFFCURVE",
"962 441 OFFCURVE",
"944 443 CURVE SMOOTH",
"941 443 OFFCURVE",
"938 443 OFFCURVE",
"934 442 CURVE",
"832 442 OFFCURVE",
"714 197 OFFCURVE",
"577 191 CURVE SMOOTH",
"503 188 OFFCURVE",
"500 263 OFFCURVE",
"533 346 CURVE",
"603 331 OFFCURVE",
"688 337 OFFCURVE",
"754 366 CURVE SMOOTH",
"929 443 OFFCURVE",
"915 661 OFFCURVE",
"670 561 CURVE SMOOTH",
"576 522 OFFCURVE",
"512 450 OFFCURVE",
"482 379 CURVE",
"440 398 OFFCURVE",
"406 429 OFFCURVE",
"386 471 CURVE",
"386 473 OFFCURVE",
"386 476 OFFCURVE",
"386 480 CURVE SMOOTH",
"385 500 OFFCURVE",
"423 515 OFFCURVE",
"441 509 CURVE",
"442 513 OFFCURVE",
"446 512 OFFCURVE",
"438 517 CURVE",
"435 521 OFFCURVE",
"411 528 OFFCURVE",
"396 522 CURVE SMOOTH",
"385 518 OFFCURVE",
"379 508 OFFCURVE",
"376 498 CURVE",
"372 516 OFFCURVE",
"369 535 OFFCURVE",
"369 556 CURVE SMOOTH",
"369 619 OFFCURVE",
"427 672 OFFCURVE",
"476 682 CURVE SMOOTH",
"484 684 OFFCURVE",
"492 683 OFFCURVE",
"499 681 CURVE",
"499 681 LINE",
"512 675 OFFCURVE",
"539 642 OFFCURVE",
"521 632 CURVE SMOOTH",
"512 627 OFFCURVE",
"511 622 OFFCURVE",
"525 624 CURVE SMOOTH",
"537 626 OFFCURVE",
"547 646 OFFCURVE",
"541 661 CURVE",
"541 661 LINE",
"565 646 OFFCURVE",
"593 630 OFFCURVE",
"634 635 CURVE SMOOTH",
"652 637 OFFCURVE",
"672 655 OFFCURVE",
"673 673 CURVE SMOOTH",
"674 682 OFFCURVE",
"669 677 OFFCURVE",
"661 672 CURVE SMOOTH",
"649 664 OFFCURVE",
"625 674 OFFCURVE",
"613 688 CURVE SMOOTH",
"568 744 OFFCURVE",
"491 746 OFFCURVE",
"468 695 CURVE SMOOTH",
"467 693 OFFCURVE",
"467 691 OFFCURVE",
"466 689 CURVE",
"408 679 OFFCURVE",
"345 624 OFFCURVE",
"345 556 CURVE SMOOTH",
"345 551 OFFCURVE",
"346 546 OFFCURVE",
"346 540 CURVE",
"339 548 OFFCURVE",
"332 554 OFFCURVE",
"325 558 CURVE",
"330 575 OFFCURVE",
"318 602 OFFCURVE",
"289 616 CURVE SMOOTH",
"248 634 OFFCURVE",
"188 623 OFFCURVE",
"168 600 CURVE SMOOTH",
"161 591 OFFCURVE",
"163 586 OFFCURVE",
"165 584 CURVE",
"179 599 OFFCURVE",
"200 597 OFFCURVE",
"218 583 CURVE SMOOTH",
"237 570 OFFCURVE",
"253 545 OFFCURVE",
"264 541 CURVE SMOOTH",
"284 532 OFFCURVE",
"307 532 OFFCURVE",
"320 549 CURVE",
"335 540 OFFCURVE",
"344 528 OFFCURVE",
"350 515 CURVE",
"361 465 OFFCURVE",
"394 404 OFFCURVE",
"469 367 CURVE SMOOTH",
"471 366 OFFCURVE",
"474 365 OFFCURVE",
"476 364 CURVE",
"440 264 OFFCURVE",
"469 170 OFFCURVE",
"571 175 CURVE SMOOTH",
"677 180 OFFCURVE",
"767 300 OFFCURVE",
"843 374 CURVE",
"809 334 OFFCURVE",
"779 281 OFFCURVE",
"752 226 CURVE SMOOTH",
"659 34 OFFCURVE",
"509 -383 OFFCURVE",
"222 -333 CURVE SMOOTH",
"162 -323 OFFCURVE",
"119 -298 OFFCURVE",
"89 -266 CURVE",
"81 -253 OFFCURVE",
"80 -225 OFFCURVE",
"92 -199 CURVE",
"107 -203 OFFCURVE",
"124 -198 OFFCURVE",
"135 -187 CURVE SMOOTH",
"150 -173 OFFCURVE",
"155 -160 OFFCURVE",
"159 -150 CURVE SMOOTH",
"164 -135 OFFCURVE",
"184 -114 OFFCURVE",
"201 -125 CURVE",
"202 -123 OFFCURVE",
"203 -117 OFFCURVE",
"195 -111 CURVE SMOOTH",
"174 -92 OFFCURVE",
"118 -104 OFFCURVE",
"94 -124 CURVE SMOOTH",
"70 -143 OFFCURVE",
"64 -173 OFFCURVE",
"75 -188 CURVE SMOOTH",
"77 -190 OFFCURVE",
"79 -192 OFFCURVE",
"82 -194 CURVE",
"74 -209 OFFCURVE",
"71 -229 OFFCURVE",
"74 -247 CURVE",
"19 -168 OFFCURVE",
"30 -53 OFFCURVE",
"82 31 CURVE SMOOTH",
"134 117 OFFCURVE",
"232 153 OFFCURVE",
"315 132 CURVE SMOOTH",
"400 111 OFFCURVE",
"464 37 OFFCURVE",
"420 -60 CURVE",
"410 -55 OFFCURVE",
"400 -46 OFFCURVE",
"378 -49 CURVE SMOOTH",
"353 -52 OFFCURVE",
"339 -82 OFFCURVE",
"349 -118 CURVE SMOOTH",
"357 -146 OFFCURVE",
"368 -210 OFFCURVE",
"334 -221 CURVE",
"344 -225 OFFCURVE",
"368 -219 OFFCURVE",
"385 -209 CURVE SMOOTH",
"434 -180 OFFCURVE",
"485 -125 OFFCURVE",
"470 -87 CURVE SMOOTH",
"462 -66 OFFCURVE",
"441 -64 OFFCURVE",
"428 -62 CURVE",
"475 41 OFFCURVE",
"414 122 OFFCURVE",
"326 148 CURVE SMOOTH",
"319 150 OFFCURVE",
"312 152 OFFCURVE",
"305 153 CURVE",
"323 160 OFFCURVE",
"338 173 OFFCURVE",
"346 191 CURVE",
"366 192 OFFCURVE",
"390 212 OFFCURVE",
"397 244 CURVE SMOOTH",
"405 279 OFFCURVE",
"389 344 OFFCURVE",
"359 356 CURVE SMOOTH",
"348 361 OFFCURVE",
"342 357 OFFCURVE",
"340 355 CURVE",
"361 343 OFFCURVE",
"349 311 OFFCURVE",
"336 298 CURVE SMOOTH",
"327 289 OFFCURVE",
"316 277 OFFCURVE",
"309 255 CURVE SMOOTH",
"302 231 OFFCURVE",
"311 200 OFFCURVE",
"335 193 CURVE",
"325 175 OFFCURVE",
"306 158 OFFCURVE",
"277 156 CURVE",
"193 160 OFFCURVE",
"94 121 OFFCURVE",
"45 41 CURVE SMOOTH",
"-37 -93 OFFCURVE",
"4 -313 OFFCURVE",
"224 -351 CURVE SMOOTH",
"280 -361 OFFCURVE",
"331 -360 OFFCURVE",
"376 -350 CURVE",
"363 -358 OFFCURVE",
"350 -367 OFFCURVE",
"344 -375 CURVE SMOOTH",
"308 -417 OFFCURVE",
"338 -454 OFFCURVE",
"381 -448 CURVE",
"383 -450 LINE",
"406 -488 OFFCURVE",
"457 -459 OFFCURVE",
"472 -446 CURVE SMOOTH",
"487 -432 OFFCURVE",
"520 -392 OFFCURVE",
"513 -358 CURVE",
"503 -370 OFFCURVE",
"473 -403 OFFCURVE",
"418 -388 CURVE SMOOTH",
"395 -382 OFFCURVE",
"370 -415 OFFCURVE",
"379 -441 CURVE",
"331 -435 OFFCURVE",
"335 -403 OFFCURVE",
"358 -376 CURVE SMOOTH",
"371 -361 OFFCURVE",
"394 -349 OFFCURVE",
"409 -341 CURVE",
"500 -310 OFFCURVE",
"568 -241 OFFCURVE",
"623 -153 CURVE",
"620 -162 OFFCURVE",
"618 -173 OFFCURVE",
"622 -183 CURVE SMOOTH",
"628 -198 OFFCURVE",
"643 -199 OFFCURVE",
"654 -195 CURVE SMOOTH",
"663 -191 OFFCURVE",
"664 -186 OFFCURVE",
"656 -187 CURVE SMOOTH",
"640 -189 OFFCURVE",
"630 -148 OFFCURVE",
"635 -135 CURVE",
"635 -134 LINE",
"701 -21 OFFCURVE",
"739 110 OFFCURVE",
"783 224 CURVE SMOOTH",
"816 309 OFFCURVE",
"850 373 OFFCURVE",
"890 406 CURVE",
"906 416 OFFCURVE",
"912 414 OFFCURVE",
"922 409 CURVE SMOOTH",
"928 407 OFFCURVE",
"934 401 OFFCURVE",
"945 399 CURVE SMOOTH",
"957 397 OFFCURVE",
"973 404 OFFCURVE",
"974 418 CURVE SMOOTH"
);
}
);
width = 748;
}
);
note = G;
unicode = 0047;
},
{
glyphname = H;
lastChange = "2021-04-20 17:37:48 +0000";
layers = (
{
hints = (
{
horizontal = 1;
place = "{104, 11}";
type = Stem;
},
{
horizontal = 1;
place = "{322, 11}";
type = Stem;
},
{
horizontal = 1;
place = "{632, -20}";
target = down;
type = TopGhost;
},
{
place = "{174, 16}";
type = Stem;
},
{
place = "{807, 12}";
type = Stem;
}
);
layerId = "2072D606-CE9C-4455-8FDE-AAFE9455DC77";
paths = (
{
closed = 1;
nodes = (
"1127 576 OFFCURVE",
"1155 590 OFFCURVE",
"1183 591 CURVE SMOOTH",
"1244 592 OFFCURVE",
"1231 542 OFFCURVE",
"1187 541 CURVE SMOOTH",
"1149 541 OFFCURVE",
"1131 544 OFFCURVE",
"1098 555 CURVE"
);
},
{
closed = 1;
nodes = (
"554 672 OFFCURVE",
"547 702 OFFCURVE",
"530 718 CURVE SMOOTH",
"514 733 OFFCURVE",
"499 736 OFFCURVE",
"487 740 CURVE SMOOTH",
"471 744 OFFCURVE",
"446 764 OFFCURVE",
"457 783 CURVE",
"455 784 OFFCURVE",
"448 785 OFFCURVE",
"441 775 CURVE SMOOTH",
"422 751 OFFCURVE",
"439 692 OFFCURVE",
"462 667 CURVE SMOOTH",
"482 646 OFFCURVE",
"511 641 OFFCURVE",
"528 649 CURVE",
"537 639 OFFCURVE",
"548 631 OFFCURVE",
"560 628 CURVE",
"564 626 OFFCURVE",
"569 625 OFFCURVE",
"573 625 CURVE",
"393 545 OFFCURVE",
"415 304 OFFCURVE",
"602 299 CURVE SMOOTH",
"659 297 OFFCURVE",
"714 323 OFFCURVE",
"744 372 CURVE",
"744 372 LINE",
"752 388 OFFCURVE",
"766 399 OFFCURVE",
"775 402 CURVE SMOOTH",
"787 406 OFFCURVE",
"801 404 OFFCURVE",
"803 396 CURVE SMOOTH",
"805 389 OFFCURVE",
"811 392 OFFCURVE",
"811 401 CURVE SMOOTH",
"813 424 OFFCURVE",
"788 432 OFFCURVE",
"768 420 CURVE SMOOTH",
"765 418 OFFCURVE",
"763 416 OFFCURVE",
"761 414 CURVE",
"763 426 OFFCURVE",
"765 438 OFFCURVE",
"765 452 CURVE",
"767 464 OFFCURVE",
"766 478 OFFCURVE",
"762 487 CURVE SMOOTH",
"751 513 OFFCURVE",
"723 517 OFFCURVE",
"709 493 CURVE SMOOTH",
"703 483 OFFCURVE",
"707 476 OFFCURVE",
"713 482 CURVE SMOOTH",
"721 489 OFFCURVE",
"740 483 OFFCURVE",
"747 473 CURVE",
"751 469 OFFCURVE",
"753 460 OFFCURVE",
"755 449 CURVE",
"752 367 OFFCURVE",
"674 309 OFFCURVE",
"602 312 CURVE SMOOTH",
"427 318 OFFCURVE",
"439 639 OFFCURVE",
"743 629 CURVE",
"726 622 OFFCURVE",
"710 611 OFFCURVE",
"704 597 CURVE",
"688 603 OFFCURVE",
"664 595 OFFCURVE",
"649 574 CURVE SMOOTH",
"633 551 OFFCURVE",
"626 500 OFFCURVE",
"645 482 CURVE SMOOTH",
"652 475 OFFCURVE",
"657 476 OFFCURVE",
"659 477 CURVE",
"647 492 OFFCURVE",
"666 511 OFFCURVE",
"679 517 CURVE SMOOTH",
"688 521 OFFCURVE",
"700 526 OFFCURVE",
"712 540 CURVE SMOOTH",
"725 555 OFFCURVE",
"727 581 OFFCURVE",
"710 593 CURVE",
"717 605 OFFCURVE",
"739 622 OFFCURVE",
"763 628 CURVE",
"776 627 OFFCURVE",
"790 626 OFFCURVE",
"804 624 CURVE SMOOTH",
"887 611 OFFCURVE",
"965 582 OFFCURVE",
"1044 556 CURVE",
"964 499 OFFCURVE",
"893 401 OFFCURVE",
"826 304 CURVE SMOOTH",
"721 151 OFFCURVE",
"623 -16 OFFCURVE",
"468 -92 CURVE",
"450 -94 OFFCURVE",
"437 -80 OFFCURVE",
"432 -72 CURVE SMOOTH",
"424 -59 OFFCURVE",
"424 -43 OFFCURVE",
"433 -38 CURVE SMOOTH",
"453 -27 OFFCURVE",
"410 -23 OFFCURVE",
"403 -47 CURVE SMOOTH",
"396 -72 OFFCURVE",
"426 -98 OFFCURVE",
"457 -96 CURVE SMOOTH",
"458 -96 OFFCURVE",
"459 -96 OFFCURVE",
"461 -96 CURVE",
"396 -126 OFFCURVE",
"321 -140 OFFCURVE",
"232 -130 CURVE SMOOTH",
"63 -112 OFFCURVE",
"-27 49 OFFCURVE",
"74 196 CURVE",
"97 213 OFFCURVE",
"115 215 OFFCURVE",
"134 211 CURVE",
"125 192 OFFCURVE",
"135 166 OFFCURVE",
"152 154 CURVE SMOOTH",
"170 140 OFFCURVE",
"186 137 OFFCURVE",
"199 135 CURVE SMOOTH",
"217 131 OFFCURVE",
"244 113 OFFCURVE",
"234 91 CURVE",
"237 91 OFFCURVE",
"244 91 OFFCURVE",
"250 101 CURVE SMOOTH",
"268 129 OFFCURVE",
"245 189 OFFCURVE",
"219 213 CURVE SMOOTH",
"192 237 OFFCURVE",
"157 237 OFFCURVE",
"141 221 CURVE",
"141 221 LINE",
"122 225 OFFCURVE",
"108 223 OFFCURVE",
"92 219 CURVE",
"186 324 OFFCURVE",
"385 358 OFFCURVE",
"492 262 CURVE SMOOTH",
"542 217 OFFCURVE",
"560 142 OFFCURVE",
"527 97 CURVE",
"527 96 LINE",
"520 92 OFFCURVE",
"512 89 OFFCURVE",
"503 87 CURVE",
"483 86 OFFCURVE",
"463 104 OFFCURVE",
"472 119 CURVE SMOOTH",
"476 125 OFFCURVE",
"470 129 OFFCURVE",
"465 125 CURVE SMOOTH",
"460 121 OFFCURVE",
"456 114 OFFCURVE",
"456 105 CURVE SMOOTH",
"455 98 OFFCURVE",
"458 92 OFFCURVE",
"463 88 CURVE",
"461 88 OFFCURVE",
"459 89 OFFCURVE",
"457 89 CURVE",
"440 94 OFFCURVE",
"396 88 OFFCURVE",
"371 70 CURVE SMOOTH",
"357 59 OFFCURVE",
"349 41 OFFCURVE",
"357 25 CURVE SMOOTH",
"360 17 OFFCURVE",
"362 23 OFFCURVE",
"367 32 CURVE SMOOTH",
"374 44 OFFCURVE",
"399 47 OFFCURVE",
"416 41 CURVE SMOOTH",
"446 28 OFFCURVE",
"482 23 OFFCURVE",
"504 32 CURVE SMOOTH",
"536 45 OFFCURVE",
"544 71 OFFCURVE",
"541 94 CURVE",
"557 120 OFFCURVE",
"561 152 OFFCURVE",
"554 184 CURVE",
"559 178 OFFCURVE",
"566 172 OFFCURVE",
"573 169 CURVE SMOOTH",
"598 156 OFFCURVE",
"624 166 OFFCURVE",
"620 194 CURVE SMOOTH",
"618 205 OFFCURVE",
"611 208 OFFCURVE",
"609 200 CURVE",
"608 189 OFFCURVE",
"591 187 OFFCURVE",
"576 190 CURVE SMOOTH",
"568 192 OFFCURVE",
"556 197 OFFCURVE",
"547 207 CURVE",
"538 231 OFFCURVE",
"523 255 OFFCURVE",
"502 273 CURVE SMOOTH",
"452 318 OFFCURVE",
"384 340 OFFCURVE",
"314 341 CURVE",
"327 348 OFFCURVE",
"337 360 OFFCURVE",
"343 375 CURVE",
"364 377 OFFCURVE",
"384 403 OFFCURVE",
"383 437 CURVE SMOOTH",
"381 470 OFFCURVE",
"350 524 OFFCURVE",
"319 527 CURVE SMOOTH",
"308 528 OFFCURVE",
"303 523 OFFCURVE",
"302 521 CURVE",
"324 515 OFFCURVE",
"321 484 OFFCURVE",
"313 469 CURVE SMOOTH",
"307 458 OFFCURVE",
"300 445 OFFCURVE",
"299 423 CURVE SMOOTH",
"298 402 OFFCURVE",
"312 379 OFFCURVE",
"333 375 CURVE",
"329 366 OFFCURVE",
"318 356 OFFCURVE",
"304 349 CURVE SMOOTH",
"291 342 OFFCURVE",
"275 339 OFFCURVE",
"261 339 CURVE SMOOTH",
"258 339 OFFCURVE",
"256 338 OFFCURVE",
"256 337 CURVE",
"199 329 OFFCURVE",
"144 308 OFFCURVE",
"100 276 CURVE",
"112 289 OFFCURVE",
"119 307 OFFCURVE",
"119 323 CURVE SMOOTH",
"120 357 OFFCURVE",
"94 380 OFFCURVE",
"66 361 CURVE SMOOTH",
"55 354 OFFCURVE",
"56 344 OFFCURVE",
"65 346 CURVE SMOOTH",
"78 350 OFFCURVE",
"90 333 OFFCURVE",
"94 315 CURVE SMOOTH",
"97 302 OFFCURVE",
"94 276 OFFCURVE",
"81 261 CURVE",
"65 248 OFFCURVE",
"51 233 OFFCURVE",
"39 216 CURVE SMOOTH",
"-61 77 OFFCURVE",
"0 -59 OFFCURVE",
"124 -119 CURVE",
"117 -119 OFFCURVE",
"109 -120 OFFCURVE",
"102 -122 CURVE SMOOTH",
"75 -132 OFFCURVE",
"65 -158 OFFCURVE",
"88 -174 CURVE SMOOTH",
"97 -180 OFFCURVE",
"105 -177 OFFCURVE",
"99 -170 CURVE SMOOTH",
"93 -162 OFFCURVE",
"102 -148 OFFCURVE",
"115 -139 CURVE SMOOTH",
"122 -134 OFFCURVE",
"137 -128 OFFCURVE",
"150 -130 CURVE",
"175 -139 OFFCURVE",
"201 -145 OFFCURVE",
"228 -148 CURVE SMOOTH",
"539 -182 OFFCURVE",
"737 37 OFFCURVE",
"885 283 CURVE",
"1094 283 LINE",
"1025 183 OFFCURVE",
"977 89 OFFCURVE",
"973 31 CURVE SMOOTH",
"969 -20 OFFCURVE",
"999 -50 OFFCURVE",
"1055 -26 CURVE SMOOTH",
"1111 -3 OFFCURVE",
"1144 37 OFFCURVE",
"1181 82 CURVE",
"1174 89 LINE",
"1161 70 OFFCURVE",
"1122 28 OFFCURVE",
"1078 4 CURVE SMOOTH",
"1026 -25 OFFCURVE",
"1017 -8 OFFCURVE",
"1039 54 CURVE SMOOTH",
"1058 106 OFFCURVE",
"1096 181 OFFCURVE",
"1143 258 CURVE SMOOTH",
"1195 343 OFFCURVE",
"1476 722 OFFCURVE",
"1590 721 CURVE SMOOTH",
"1607 721 OFFCURVE",
"1620 711 OFFCURVE",
"1616 684 CURVE",
"1629 684 LINE",
"1633 720 OFFCURVE",
"1614 733 OFFCURVE",
"1589 734 CURVE SMOOTH",
"1483 739 OFFCURVE",
"1251 507 OFFCURVE",
"1104 297 CURVE",
"894 297 LINE",
"894 298 LINE",
"927 354 OFFCURVE",
"1002 476 OFFCURVE",
"1083 544 CURVE",
"1094 540 OFFCURVE",
"1104 537 OFFCURVE",
"1115 534 CURVE SMOOTH",
"1260 494 OFFCURVE",
"1273 605 OFFCURVE",
"1183 605 CURVE SMOOTH",
"1140 605 OFFCURVE",
"1100 591 OFFCURVE",
"1061 568 CURVE",
"974 597 OFFCURVE",
"868 631 OFFCURVE",
"784 644 CURVE SMOOTH",
"713 655 OFFCURVE",
"653 651 OFFCURVE",
"605 636 CURVE",
"593 635 OFFCURVE",
"579 635 OFFCURVE",
"567 638 CURVE SMOOTH",
"554 641 OFFCURVE",
"543 647 OFFCURVE",
"536 654 CURVE"
);
}
);
width = 1118;
}
);
note = H;
unicode = 0048;
},
{
glyphname = I;
lastChange = "2021-04-20 17:37:48 +0000";
layers = (
{
hints = (
{
horizontal = 1;
place = "{267, 12}";
type = Stem;
},
{
horizontal = 1;
place = "{323, 11}";
type = Stem;
},
{
horizontal = 1;
place = "{609, -20}";
target = down;
type = TopGhost;
}
);
layerId = "2072D606-CE9C-4455-8FDE-AAFE9455DC77";
paths = (
{
closed = 1;
nodes = (
"463 -42 OFFCURVE",
"450 -28 OFFCURVE",
"445 -20 CURVE SMOOTH",
"437 -7 OFFCURVE",
"437 9 OFFCURVE",
"446 14 CURVE SMOOTH",
"466 25 OFFCURVE",
"422 29 OFFCURVE",
"416 5 CURVE SMOOTH",
"409 -20 OFFCURVE",
"439 -45 OFFCURVE",
"470 -44 CURVE SMOOTH",
"478 -43 OFFCURVE",
"490 -39 OFFCURVE",
"482 -40 CURVE SMOOTH"
);
},
{
closed = 1;
nodes = (
"656 391 OFFCURVE",
"700 377 OFFCURVE",
"740 384 CURVE SMOOTH",
"782 391 OFFCURVE",
"819 420 OFFCURVE",
"825 465 CURVE",
"832 474 OFFCURVE",
"841 480 OFFCURVE",
"847 482 CURVE SMOOTH",
"859 486 OFFCURVE",
"873 484 OFFCURVE",
"875 476 CURVE SMOOTH",
"876 469 OFFCURVE",
"882 472 OFFCURVE",
"883 481 CURVE SMOOTH",
"885 504 OFFCURVE",
"860 512 OFFCURVE",
"840 500 CURVE SMOOTH",
"834 496 OFFCURVE",
"829 490 OFFCURVE",
"825 484 CURVE",
"825 488 OFFCURVE",
"824 493 OFFCURVE",
"823 499 CURVE",
"824 513 OFFCURVE",
"819 531 OFFCURVE",
"811 541 CURVE SMOOTH",
"794 564 OFFCURVE",
"766 561 OFFCURVE",
"758 534 CURVE SMOOTH",
"755 524 OFFCURVE",
"760 517 OFFCURVE",
"765 524 CURVE SMOOTH",
"771 533 OFFCURVE",
"790 532 OFFCURVE",
"800 524 CURVE SMOOTH",
"805 520 OFFCURVE",
"812 510 OFFCURVE",
"815 497 CURVE SMOOTH",
"818 487 OFFCURVE",
"818 477 OFFCURVE",
"816 468 CURVE SMOOTH",
"815 464 OFFCURVE",
"813 458 OFFCURVE",
"814 455 CURVE",
"803 420 OFFCURVE",
"771 397 OFFCURVE",
"736 392 CURVE SMOOTH",
"690 386 OFFCURVE",
"642 414 OFFCURVE",
"646 482 CURVE SMOOTH",
"649 538 OFFCURVE",
"701 601 OFFCURVE",
"825 605 CURVE SMOOTH",
"881 607 OFFCURVE",
"968 587 OFFCURVE",
"1042 585 CURVE",
"942 539 OFFCURVE",
"855 421 OFFCURVE",
"775 304 CURVE SMOOTH",
"704 200 OFFCURVE",
"574 -112 OFFCURVE",
"266 -88 CURVE SMOOTH",
"97 -75 OFFCURVE",
"-2 108 OFFCURVE",
"97 255 CURVE",
"116 266 OFFCURVE",
"131 267 OFFCURVE",
"147 263 CURVE",
"138 244 OFFCURVE",
"148 218 OFFCURVE",
"165 206 CURVE SMOOTH",
"183 192 OFFCURVE",
"199 189 OFFCURVE",
"212 187 CURVE SMOOTH",
"230 183 OFFCURVE",
"257 165 OFFCURVE",
"247 144 CURVE",
"250 143 OFFCURVE",
"256 143 OFFCURVE",
"263 153 CURVE SMOOTH",
"281 181 OFFCURVE",
"258 242 OFFCURVE",
"232 265 CURVE SMOOTH",
"205 289 OFFCURVE",
"170 289 OFFCURVE",
"154 274 CURVE SMOOTH",
"153 273 LINE",
"137 277 OFFCURVE",
"124 276 OFFCURVE",
"110 272 CURVE",
"202 382 OFFCURVE",
"407 420 OFFCURVE",
"516 322 CURVE SMOOTH",
"565 278 OFFCURVE",
"583 206 OFFCURVE",
"553 160 CURVE",
"546 156 OFFCURVE",
"538 153 OFFCURVE",
"529 151 CURVE",
"510 150 OFFCURVE",
"489 168 OFFCURVE",
"499 183 CURVE SMOOTH",
"502 189 OFFCURVE",
"497 193 OFFCURVE",
"491 189 CURVE SMOOTH",
"486 185 OFFCURVE",
"482 178 OFFCURVE",
"482 169 CURVE SMOOTH",
"482 162 OFFCURVE",
"485 156 OFFCURVE",
"489 152 CURVE",
"487 152 OFFCURVE",
"485 153 OFFCURVE",
"483 153 CURVE",
"466 158 OFFCURVE",
"423 152 OFFCURVE",
"398 134 CURVE SMOOTH",
"383 123 OFFCURVE",
"375 105 OFFCURVE",
"383 89 CURVE SMOOTH",
"387 81 OFFCURVE",
"388 87 OFFCURVE",
"393 96 CURVE SMOOTH",
"400 108 OFFCURVE",
"426 111 OFFCURVE",
"442 105 CURVE SMOOTH",
"472 92 OFFCURVE",
"509 87 OFFCURVE",
"531 96 CURVE SMOOTH",
"562 109 OFFCURVE",
"570 135 OFFCURVE",
"567 158 CURVE",
"583 185 OFFCURVE",
"585 219 OFFCURVE",
"576 251 CURVE",
"580 248 OFFCURVE",
"585 244 OFFCURVE",
"589 242 CURVE SMOOTH",
"614 229 OFFCURVE",
"640 240 OFFCURVE",
"636 267 CURVE SMOOTH",
"634 278 OFFCURVE",
"627 282 OFFCURVE",
"626 273 CURVE SMOOTH",
"624 263 OFFCURVE",
"607 260 OFFCURVE",
"592 264 CURVE SMOOTH",
"585 265 OFFCURVE",
"575 270 OFFCURVE",
"567 277 CURVE",
"558 298 OFFCURVE",
"544 317 OFFCURVE",
"526 333 CURVE SMOOTH",
"476 378 OFFCURVE",
"408 400 OFFCURVE",
"338 401 CURVE",
"346 408 OFFCURVE",
"352 417 OFFCURVE",
"356 427 CURVE",
"376 430 OFFCURVE",
"397 456 OFFCURVE",
"396 489 CURVE SMOOTH",
"394 523 OFFCURVE",
"363 576 OFFCURVE",
"332 579 CURVE SMOOTH",
"321 580 OFFCURVE",
"316 575 OFFCURVE",
"315 573 CURVE",
"337 567 OFFCURVE",
"334 536 OFFCURVE",
"326 521 CURVE SMOOTH",
"320 510 OFFCURVE",
"312 497 OFFCURVE",
"312 475 CURVE SMOOTH",
"311 454 OFFCURVE",
"325 431 OFFCURVE",
"346 427 CURVE",
"342 418 OFFCURVE",
"331 408 OFFCURVE",
"317 401 CURVE",
"316 400 LINE",
"242 397 OFFCURVE",
"167 371 OFFCURVE",
"111 326 CURVE",
"124 340 OFFCURVE",
"132 358 OFFCURVE",
"132 375 CURVE SMOOTH",
"133 409 OFFCURVE",
"107 432 OFFCURVE",
"79 413 CURVE SMOOTH",
"68 406 OFFCURVE",
"68 396 OFFCURVE",
"78 399 CURVE SMOOTH",
"90 402 OFFCURVE",
"103 385 OFFCURVE",
"107 367 CURVE SMOOTH",
"110 353 OFFCURVE",
"106 325 OFFCURVE",
"92 311 CURVE",
"93 311 LINE",
"82 300 OFFCURVE",
"72 288 OFFCURVE",
"63 276 CURVE SMOOTH",
"-32 144 OFFCURVE",
"23 1 OFFCURVE",
"139 -67 CURVE",
"130 -66 OFFCURVE",
"122 -67 OFFCURVE",
"115 -70 CURVE SMOOTH",
"88 -80 OFFCURVE",
"78 -106 OFFCURVE",
"101 -122 CURVE SMOOTH",
"110 -128 OFFCURVE",
"118 -125 OFFCURVE",
"112 -118 CURVE SMOOTH",
"106 -110 OFFCURVE",
"115 -96 OFFCURVE",
"128 -87 CURVE SMOOTH",
"134 -83 OFFCURVE",
"146 -78 OFFCURVE",
"158 -78 CURVE",
"190 -93 OFFCURVE",
"225 -103 OFFCURVE",
"262 -106 CURVE SMOOTH",
"592 -134 OFFCURVE",
"778 188 OFFCURVE",
"843 298 CURVE SMOOTH",
"889 376 OFFCURVE",
"1020 587 OFFCURVE",
"1132 591 CURVE SMOOTH",
"1161 591 OFFCURVE",
"1158 605 OFFCURVE",
"1132 605 CURVE SMOOTH",
"1115 605 OFFCURVE",
"1099 603 OFFCURVE",
"1083 599 CURVE",
"1025 598 OFFCURVE",
"856 624 OFFCURVE",
"800 623 CURVE SMOOTH",
"713 620 OFFCURVE",
"660 590 OFFCURVE",
"634 552 CURVE",
"630 549 OFFCURVE",
"625 545 OFFCURVE",
"620 543 CURVE",
"612 538 OFFCURVE",
"603 536 OFFCURVE",
"596 537 CURVE",
"597 555 OFFCURVE",
"579 568 OFFCURVE",
"562 568 CURVE SMOOTH",
"546 568 OFFCURVE",
"536 563 OFFCURVE",
"528 559 CURVE SMOOTH",
"517 553 OFFCURVE",
"494 552 OFFCURVE",
"490 568 CURVE",
"489 567 OFFCURVE",
"485 564 OFFCURVE",
"486 556 CURVE SMOOTH",
"487 533 OFFCURVE",
"525 510 OFFCURVE",
"549 508 CURVE SMOOTH",
"571 506 OFFCURVE",
"589 517 OFFCURVE",
"594 530 CURVE",
"604 528 OFFCURVE",
"613 530 OFFCURVE",
"622 534 CURVE SMOOTH",
"624 535 LINE",
"617 520 OFFCURVE",
"613 504 OFFCURVE",
"613 488 CURVE SMOOTH",
"613 473 OFFCURVE",
"616 459 OFFCURVE",
"620 447 CURVE",
"622 436 OFFCURVE",
"619 426 OFFCURVE",
"616 421 CURVE SMOOTH",
"610 412 OFFCURVE",
"600 406 OFFCURVE",
"594 410 CURVE SMOOTH",
"589 413 OFFCURVE",
"586 408 OFFCURVE",
"591 402 CURVE SMOOTH",
"603 388 OFFCURVE",
"625 396 OFFCURVE",
"631 413 CURVE SMOOTH",
"632 417 OFFCURVE",
"632 421 OFFCURVE",
"632 425 CURVE"
);
}
);
width = 751;
}
);
note = I;
unicode = 0049;
},
{
color = 11;
glyphname = Iacute;
lastChange = "2021-07-08 20:43:58 +0000";
layers = (
{
hints = (
{
horizontal = 1;
place = "{-106, 18}";
type = Stem;
},
{
horizontal = 1;
place = "{-44, 67}";
type = Stem;
},
{
horizontal = 1;
place = "{92, 61}";
type = Stem;
},
{
horizontal = 1;
place = "{237, 27}";
type = Stem;
},
{
horizontal = 1;
place = "{326, -20}";
target = down;
type = TopGhost;
},
{
horizontal = 1;
place = "{378, 23}";
type = Stem;
},
{
horizontal = 1;
place = "{530, 26}";
type = Stem;
},
{
horizontal = 1;
place = "{605, 18}";
type = Stem;
},
{
place = "{22, 43}";
type = Stem;
},
{
place = "{114, 25}";
type = Stem;
},
{
place = "{340, 63}";
type = Stem;
},
{
place = "{575, 13}";
type = Stem;
},
{
place = "{621, 32}";
type = Stem;
},
{
place = "{822, 9}";
type = Stem;
},
{
place = "{882, 8}";
type = Stem;
},
{
horizontal = 1;
place = "{384, 8}";
type = Stem;
},
{
horizontal = 1;
place = "{482, 23}";
type = Stem;
},
{
place = "{387, 60}";
type = Stem;
},
{
place = "{628, 10}";
type = Stem;
},
{
horizontal = 1;
place = "{255, 18}";
type = Stem;
},
{
place = "{151, 126}";
type = Stem;
},
{
place = "{633, 10}";
type = Stem;
},
{
horizontal = 1;
place = "{311, 109}";
type = Stem;
},
{
horizontal = 1;
place = "{-78, 11}";
type = Stem;
},
{
horizontal = 1;
place = "{311, -20}";
target = down;
type = TopGhost;
},
{
horizontal = 1;
place = "{591, 14}";
type = Stem;
},
{
horizontal = 1;
place = "{591, 8}";
type = Stem;
},
{
horizontal = 1;
place = "{530, 7}";
type = Stem;
},
{
horizontal = 1;
place = "{508, 47}";
type = Stem;
}
);
layerId = "2072D606-CE9C-4455-8FDE-AAFE9455DC77";
paths = (
{
closed = 1;
nodes = (
"471 -42 OFFCURVE",
"458 -28 OFFCURVE",
"452 -20 CURVE",
"445 -7 OFFCURVE",
"444 9 OFFCURVE",
"453 14 CURVE SMOOTH",
"473 25 OFFCURVE",
"430 29 OFFCURVE",
"423 5 CURVE SMOOTH",
"416 -20 OFFCURVE",
"447 -45 OFFCURVE",
"478 -44 CURVE SMOOTH",
"485 -43 OFFCURVE",
"497 -39 OFFCURVE",
"489 -40 CURVE SMOOTH"
);
},
{
closed = 1;
nodes = (
"664 391 OFFCURVE",
"708 377 OFFCURVE",
"747 384 CURVE SMOOTH",
"789 391 OFFCURVE",
"826 420 OFFCURVE",
"832 465 CURVE",
"839 474 OFFCURVE",
"848 480 OFFCURVE",
"854 482 CURVE SMOOTH",
"866 486 OFFCURVE",
"880 484 OFFCURVE",
"882 476 CURVE SMOOTH",
"884 469 OFFCURVE",
"890 472 OFFCURVE",
"890 481 CURVE SMOOTH",
"892 504 OFFCURVE",
"867 512 OFFCURVE",
"847 500 CURVE SMOOTH",
"841 496 OFFCURVE",
"837 490 OFFCURVE",
"833 484 CURVE",
"832 488 OFFCURVE",
"832 493 OFFCURVE",
"831 499 CURVE",
"831 513 OFFCURVE",
"827 531 OFFCURVE",
"819 541 CURVE SMOOTH",
"801 564 OFFCURVE",
"773 561 OFFCURVE",
"765 534 CURVE SMOOTH",
"762 524 OFFCURVE",
"768 517 OFFCURVE",
"772 524 CURVE SMOOTH",
"778 533 OFFCURVE",
"798 532 OFFCURVE",
"807 524 CURVE SMOOTH",
"813 520 OFFCURVE",
"819 510 OFFCURVE",
"822 497 CURVE SMOOTH",
"825 487 OFFCURVE",
"825 477 OFFCURVE",
"824 468 CURVE",
"822 464 OFFCURVE",
"820 458 OFFCURVE",
"821 455 CURVE",
"811 420 OFFCURVE",
"778 397 OFFCURVE",
"743 392 CURVE SMOOTH",
"698 386 OFFCURVE",
"649 414 OFFCURVE",
"653 482 CURVE SMOOTH",
"657 538 OFFCURVE",
"708 601 OFFCURVE",
"832 605 CURVE SMOOTH",
"888 607 OFFCURVE",
"975 587 OFFCURVE",
"1050 585 CURVE",
"949 539 OFFCURVE",
"863 421 OFFCURVE",
"782 304 CURVE SMOOTH",
"711 200 OFFCURVE",
"581 -112 OFFCURVE",
"273 -88 CURVE SMOOTH",
"105 -75 OFFCURVE",
"5 108 OFFCURVE",
"105 255 CURVE",
"123 266 OFFCURVE",
"138 267 OFFCURVE",
"154 263 CURVE",
"145 244 OFFCURVE",
"155 218 OFFCURVE",
"172 206 CURVE SMOOTH",
"190 192 OFFCURVE",
"206 189 OFFCURVE",
"219 187 CURVE SMOOTH",
"237 183 OFFCURVE",
"264 165 OFFCURVE",
"254 144 CURVE",
"257 143 OFFCURVE",
"264 143 OFFCURVE",
"271 153 CURVE SMOOTH",
"289 181 OFFCURVE",
"265 242 OFFCURVE",
"239 265 CURVE SMOOTH",
"213 289 OFFCURVE",
"177 289 OFFCURVE",
"162 274 CURVE SMOOTH",
"161 273 LINE",
"144 277 OFFCURVE",
"131 276 OFFCURVE",
"118 272 CURVE",
"209 382 OFFCURVE",
"414 420 OFFCURVE",
"524 322 CURVE SMOOTH",
"572 278 OFFCURVE",
"590 206 OFFCURVE",
"561 160 CURVE",
"554 156 OFFCURVE",
"546 153 OFFCURVE",
"537 151 CURVE",
"517 150 OFFCURVE",
"496 168 OFFCURVE",
"506 183 CURVE SMOOTH",
"509 189 OFFCURVE",
"504 193 OFFCURVE",
"498 189 CURVE SMOOTH",
"493 185 OFFCURVE",
"489 178 OFFCURVE",
"489 169 CURVE SMOOTH",
"489 162 OFFCURVE",
"492 156 OFFCURVE",
"497 152 CURVE",
"495 152 OFFCURVE",
"493 153 OFFCURVE",
"491 153 CURVE",
"474 158 OFFCURVE",
"430 152 OFFCURVE",
"405 134 CURVE SMOOTH",
"391 123 OFFCURVE",
"383 105 OFFCURVE",
"390 89 CURVE SMOOTH",
"394 81 OFFCURVE",
"396 87 OFFCURVE",
"400 96 CURVE SMOOTH",
"407 108 OFFCURVE",
"433 111 OFFCURVE",
"450 105 CURVE SMOOTH",
"480 92 OFFCURVE",
"516 87 OFFCURVE",
"538 96 CURVE SMOOTH",
"569 109 OFFCURVE",
"577 135 OFFCURVE",
"574 158 CURVE",
"590 185 OFFCURVE",
"592 219 OFFCURVE",
"584 251 CURVE",
"588 248 OFFCURVE",
"592 244 OFFCURVE",
"596 242 CURVE SMOOTH",
"621 229 OFFCURVE",
"647 240 OFFCURVE",
"643 267 CURVE SMOOTH",
"642 278 OFFCURVE",
"634 282 OFFCURVE",
"633 273 CURVE SMOOTH",
"631 263 OFFCURVE",
"615 260 OFFCURVE",
"600 264 CURVE SMOOTH",
"593 265 OFFCURVE",
"582 270 OFFCURVE",
"575 277 CURVE",
"565 298 OFFCURVE",
"551 317 OFFCURVE",
"534 333 CURVE SMOOTH",
"483 378 OFFCURVE",
"415 400 OFFCURVE",
"345 401 CURVE",
"353 408 OFFCURVE",
"359 417 OFFCURVE",
"363 427 CURVE",
"384 430 OFFCURVE",
"405 456 OFFCURVE",
"403 489 CURVE SMOOTH",
"401 523 OFFCURVE",
"370 576 OFFCURVE",
"339 579 CURVE SMOOTH",
"328 580 OFFCURVE",
"324 575 OFFCURVE",
"323 573 CURVE",
"345 567 OFFCURVE",
"342 536 OFFCURVE",
"333 521 CURVE SMOOTH",
"327 510 OFFCURVE",
"320 497 OFFCURVE",
"319 475 CURVE SMOOTH",
"318 454 OFFCURVE",
"332 431 OFFCURVE",
"354 427 CURVE",
"349 418 OFFCURVE",
"338 408 OFFCURVE",
"325 401 CURVE",
"324 400 LINE",
"249 397 OFFCURVE",
"174 371 OFFCURVE",
"119 326 CURVE",
"131 340 OFFCURVE",
"139 358 OFFCURVE",
"139 375 CURVE SMOOTH",
"140 409 OFFCURVE",
"115 432 OFFCURVE",
"86 413 CURVE SMOOTH",
"76 406 OFFCURVE",
"76 396 OFFCURVE",
"86 399 CURVE SMOOTH",
"98 402 OFFCURVE",
"110 385 OFFCURVE",
"114 367 CURVE SMOOTH",
"117 353 OFFCURVE",
"114 325 OFFCURVE",
"99 311 CURVE",
"100 311 OFFCURVE",
"100 311 OFFCURVE",
"101 311 CURVE",
"90 300 OFFCURVE",
"79 288 OFFCURVE",
"70 276 CURVE SMOOTH",
"-25 144 OFFCURVE",
"31 1 OFFCURVE",
"146 -67 CURVE",
"138 -66 OFFCURVE",
"129 -67 OFFCURVE",
"122 -70 CURVE SMOOTH",
"96 -80 OFFCURVE",
"86 -106 OFFCURVE",
"108 -122 CURVE SMOOTH",
"117 -128 OFFCURVE",
"125 -125 OFFCURVE",
"120 -118 CURVE SMOOTH",
"113 -110 OFFCURVE",
"123 -96 OFFCURVE",
"135 -87 CURVE SMOOTH",
"142 -83 OFFCURVE",
"154 -78 OFFCURVE",
"166 -78 CURVE",
"197 -93 OFFCURVE",
"232 -103 OFFCURVE",
"269 -106 CURVE SMOOTH",
"599 -134 OFFCURVE",
"785 188 OFFCURVE",
"850 298 CURVE SMOOTH",
"897 376 OFFCURVE",
"1027 587 OFFCURVE",
"1139 591 CURVE SMOOTH",
"1169 591 OFFCURVE",
"1166 605 OFFCURVE",
"1139 605 CURVE SMOOTH",
"1122 605 OFFCURVE",
"1106 603 OFFCURVE",
"1090 599 CURVE",
"1032 598 OFFCURVE",
"863 624 OFFCURVE",
"807 623 CURVE SMOOTH",
"721 620 OFFCURVE",
"668 590 OFFCURVE",
"641 552 CURVE",
"637 549 OFFCURVE",
"633 545 OFFCURVE",
"628 543 CURVE SMOOTH",
"619 538 OFFCURVE",
"610 536 OFFCURVE",
"603 537 CURVE",
"605 555 OFFCURVE",
"586 568 OFFCURVE",
"569 568 CURVE SMOOTH",
"553 568 OFFCURVE",
"543 563 OFFCURVE",
"535 559 CURVE SMOOTH",
"524 553 OFFCURVE",
"501 552 OFFCURVE",
"498 568 CURVE",
"496 567 OFFCURVE",
"492 564 OFFCURVE",
"493 556 CURVE SMOOTH",
"494 533 OFFCURVE",
"532 510 OFFCURVE",
"557 508 CURVE SMOOTH",
"578 506 OFFCURVE",
"596 517 OFFCURVE",
"602 530 CURVE",
"611 528 OFFCURVE",
"621 530 OFFCURVE",
"629 534 CURVE SMOOTH",
"631 535 LINE",
"624 520 OFFCURVE",
"621 504 OFFCURVE",
"621 488 CURVE SMOOTH",
"621 473 OFFCURVE",
"623 459 OFFCURVE",
"628 447 CURVE",
"629 436 OFFCURVE",
"627 426 OFFCURVE",
"623 421 CURVE SMOOTH",
"617 412 OFFCURVE",
"607 406 OFFCURVE",
"601 410 CURVE SMOOTH",
"596 413 OFFCURVE",
"594 408 OFFCURVE",
"599 402 CURVE SMOOTH",
"611 388 OFFCURVE",
"632 396 OFFCURVE",
"638 413 CURVE SMOOTH",
"640 417 OFFCURVE",
"640 421 OFFCURVE",
"639 425 CURVE"
);
},
{
closed = 1;
nodes = (
"1050 672 OFFCURVE",
"1145 725 OFFCURVE",
"1170 741 CURVE SMOOTH",
"1174 743 OFFCURVE",
"1176 745 OFFCURVE",
"1176 749 CURVE SMOOTH",
"1176 759 OFFCURVE",
"1163 768 OFFCURVE",
"1154 768 CURVE SMOOTH",
"1140 768 OFFCURVE",
"1053 694 OFFCURVE",
"1028 682 CURVE SMOOTH",
"1025 681 OFFCURVE",
"1021 680 OFFCURVE",
"1021 676 CURVE SMOOTH",
"1021 673 OFFCURVE",
"1024 672 OFFCURVE",
"1026 672 CURVE SMOOTH"
);
}
);
width = 680;
}
);
note = Iacute;
unicode = 00CD;
},
{
color = 11;
glyphname = Icircumflex;
lastChange = "2021-07-08 20:43:58 +0000";
layers = (
{
hints = (
{
horizontal = 1;
place = "{-106, 18}";
type = Stem;
},
{
horizontal = 1;
place = "{-44, 67}";
type = Stem;
},
{
horizontal = 1;
place = "{92, 61}";
type = Stem;
},
{
horizontal = 1;
place = "{237, 27}";
type = Stem;
},
{
horizontal = 1;
place = "{326, -20}";
target = down;
type = TopGhost;
},
{
horizontal = 1;
place = "{378, 23}";
type = Stem;
},
{
horizontal = 1;
place = "{530, 26}";
type = Stem;
},
{
horizontal = 1;
place = "{605, 18}";
type = Stem;
},
{
horizontal = 1;
place = "{682, 30}";
type = Stem;
},
{
horizontal = 1;
place = "{755, 28}";
type = Stem;
},
{
place = "{15, 43}";
type = Stem;
},
{
place = "{107, 25}";
type = Stem;
},
{
place = "{332, 64}";
type = Stem;
},
{
place = "{567, 14}";
type = Stem;
},
{
place = "{613, 33}";
type = Stem;
},
{
place = "{815, 10}";
type = Stem;
},
{
place = "{875, 8}";
type = Stem;
},
{
horizontal = 1;
place = "{384, 8}";
type = Stem;
},
{
horizontal = 1;
place = "{482, 23}";
type = Stem;
},
{
place = "{416, 23}";
type = Stem;
},
{
place = "{620, 12}";
type = Stem;
},
{
horizontal = 1;
place = "{255, 18}";
type = Stem;
},
{
place = "{144, 125}";
type = Stem;
},
{
place = "{626, 10}";
type = Stem;
},
{
horizontal = 1;
place = "{-78, 11}";
type = Stem;
},
{
horizontal = 1;
place = "{399, 21}";
type = Stem;
},
{
horizontal = 1;
place = "{591, 14}";
type = Stem;
},
{
horizontal = 1;
place = "{591, 8}";
type = Stem;
},
{
horizontal = 1;
place = "{530, 7}";
type = Stem;
},
{
horizontal = 1;
place = "{508, 47}";
type = Stem;
}
);
layerId = "2072D606-CE9C-4455-8FDE-AAFE9455DC77";
paths = (
{
closed = 1;
nodes = (
"463 -42 OFFCURVE",
"450 -28 OFFCURVE",
"445 -20 CURVE SMOOTH",
"437 -7 OFFCURVE",
"437 9 OFFCURVE",
"446 14 CURVE SMOOTH",
"466 25 OFFCURVE",
"422 29 OFFCURVE",
"416 5 CURVE SMOOTH",
"409 -20 OFFCURVE",
"439 -45 OFFCURVE",
"470 -44 CURVE SMOOTH",
"478 -43 OFFCURVE",
"490 -39 OFFCURVE",
"482 -40 CURVE SMOOTH"
);
},
{
closed = 1;
nodes = (
"656 391 OFFCURVE",
"700 377 OFFCURVE",
"740 384 CURVE SMOOTH",
"782 391 OFFCURVE",
"819 420 OFFCURVE",
"825 465 CURVE",
"832 474 OFFCURVE",
"841 480 OFFCURVE",
"847 482 CURVE SMOOTH",
"859 486 OFFCURVE",
"873 484 OFFCURVE",
"875 476 CURVE SMOOTH",
"876 469 OFFCURVE",
"882 472 OFFCURVE",
"883 481 CURVE SMOOTH",
"885 504 OFFCURVE",
"860 512 OFFCURVE",
"840 500 CURVE SMOOTH",
"834 496 OFFCURVE",
"829 490 OFFCURVE",
"825 484 CURVE",
"825 488 OFFCURVE",
"824 493 OFFCURVE",
"823 499 CURVE",
"824 513 OFFCURVE",
"819 531 OFFCURVE",
"811 541 CURVE SMOOTH",
"794 564 OFFCURVE",
"766 561 OFFCURVE",
"758 534 CURVE SMOOTH",
"755 524 OFFCURVE",
"760 517 OFFCURVE",
"765 524 CURVE SMOOTH",
"771 533 OFFCURVE",
"790 532 OFFCURVE",
"800 524 CURVE SMOOTH",
"805 520 OFFCURVE",
"812 510 OFFCURVE",
"815 497 CURVE SMOOTH",
"818 487 OFFCURVE",
"818 477 OFFCURVE",
"816 468 CURVE SMOOTH",
"815 464 OFFCURVE",
"813 458 OFFCURVE",
"814 455 CURVE",
"803 420 OFFCURVE",
"771 397 OFFCURVE",
"736 392 CURVE SMOOTH",
"690 386 OFFCURVE",
"642 414 OFFCURVE",
"646 482 CURVE SMOOTH",
"649 538 OFFCURVE",
"701 601 OFFCURVE",
"825 605 CURVE SMOOTH",
"881 607 OFFCURVE",
"968 587 OFFCURVE",
"1042 585 CURVE",
"942 539 OFFCURVE",
"855 421 OFFCURVE",
"775 304 CURVE SMOOTH",
"704 200 OFFCURVE",
"574 -112 OFFCURVE",
"266 -88 CURVE SMOOTH",
"97 -75 OFFCURVE",
"-2 108 OFFCURVE",
"97 255 CURVE",
"116 266 OFFCURVE",
"131 267 OFFCURVE",
"147 263 CURVE",
"138 244 OFFCURVE",
"148 218 OFFCURVE",
"165 206 CURVE SMOOTH",
"183 192 OFFCURVE",
"199 189 OFFCURVE",
"212 187 CURVE SMOOTH",
"230 183 OFFCURVE",
"257 165 OFFCURVE",
"247 144 CURVE",
"250 143 OFFCURVE",
"256 143 OFFCURVE",
"263 153 CURVE SMOOTH",
"281 181 OFFCURVE",
"258 242 OFFCURVE",
"232 265 CURVE SMOOTH",
"205 289 OFFCURVE",
"170 289 OFFCURVE",
"154 274 CURVE SMOOTH",
"153 273 LINE",
"137 277 OFFCURVE",
"124 276 OFFCURVE",
"110 272 CURVE",
"202 382 OFFCURVE",
"407 420 OFFCURVE",
"516 322 CURVE SMOOTH",
"565 278 OFFCURVE",
"583 206 OFFCURVE",
"553 160 CURVE",
"546 156 OFFCURVE",
"538 153 OFFCURVE",
"529 151 CURVE",
"510 150 OFFCURVE",
"489 168 OFFCURVE",
"499 183 CURVE SMOOTH",
"502 189 OFFCURVE",
"497 193 OFFCURVE",
"491 189 CURVE SMOOTH",
"486 185 OFFCURVE",
"482 178 OFFCURVE",
"482 169 CURVE SMOOTH",
"482 162 OFFCURVE",
"485 156 OFFCURVE",
"489 152 CURVE",
"487 152 OFFCURVE",
"485 153 OFFCURVE",
"483 153 CURVE",
"466 158 OFFCURVE",
"423 152 OFFCURVE",
"398 134 CURVE SMOOTH",
"383 123 OFFCURVE",
"375 105 OFFCURVE",
"383 89 CURVE SMOOTH",
"387 81 OFFCURVE",
"388 87 OFFCURVE",
"393 96 CURVE SMOOTH",
"400 108 OFFCURVE",
"426 111 OFFCURVE",
"442 105 CURVE SMOOTH",
"472 92 OFFCURVE",
"509 87 OFFCURVE",
"531 96 CURVE SMOOTH",
"562 109 OFFCURVE",
"570 135 OFFCURVE",
"567 158 CURVE",
"583 185 OFFCURVE",
"585 219 OFFCURVE",
"576 251 CURVE",
"580 248 OFFCURVE",
"585 244 OFFCURVE",
"589 242 CURVE SMOOTH",
"614 229 OFFCURVE",
"640 240 OFFCURVE",
"636 267 CURVE SMOOTH",
"634 278 OFFCURVE",
"627 282 OFFCURVE",
"626 273 CURVE SMOOTH",
"624 263 OFFCURVE",
"607 260 OFFCURVE",
"592 264 CURVE SMOOTH",
"585 265 OFFCURVE",
"575 270 OFFCURVE",
"567 277 CURVE",
"558 298 OFFCURVE",
"544 317 OFFCURVE",
"526 333 CURVE SMOOTH",
"476 378 OFFCURVE",
"408 400 OFFCURVE",
"338 401 CURVE",
"346 408 OFFCURVE",
"352 417 OFFCURVE",
"356 427 CURVE",
"376 430 OFFCURVE",
"397 456 OFFCURVE",
"396 489 CURVE SMOOTH",
"394 523 OFFCURVE",
"363 576 OFFCURVE",
"332 579 CURVE SMOOTH",
"321 580 OFFCURVE",
"316 575 OFFCURVE",
"315 573 CURVE",
"337 567 OFFCURVE",
"334 536 OFFCURVE",
"326 521 CURVE SMOOTH",
"320 510 OFFCURVE",
"312 497 OFFCURVE",
"312 475 CURVE SMOOTH",
"311 454 OFFCURVE",
"325 431 OFFCURVE",
"346 427 CURVE",
"342 418 OFFCURVE",
"331 408 OFFCURVE",
"317 401 CURVE",
"316 400 LINE",
"242 397 OFFCURVE",
"167 371 OFFCURVE",
"111 326 CURVE",
"124 340 OFFCURVE",
"132 358 OFFCURVE",
"132 375 CURVE SMOOTH",
"133 409 OFFCURVE",
"107 432 OFFCURVE",
"79 413 CURVE SMOOTH",
"68 406 OFFCURVE",
"68 396 OFFCURVE",
"78 399 CURVE SMOOTH",
"90 402 OFFCURVE",
"103 385 OFFCURVE",
"107 367 CURVE SMOOTH",
"110 353 OFFCURVE",
"106 325 OFFCURVE",
"92 311 CURVE",
"93 311 LINE",
"82 300 OFFCURVE",
"72 288 OFFCURVE",
"63 276 CURVE SMOOTH",
"-32 144 OFFCURVE",
"23 1 OFFCURVE",
"139 -67 CURVE",
"130 -66 OFFCURVE",
"122 -67 OFFCURVE",
"115 -70 CURVE SMOOTH",
"88 -80 OFFCURVE",
"78 -106 OFFCURVE",
"101 -122 CURVE SMOOTH",
"110 -128 OFFCURVE",
"118 -125 OFFCURVE",
"112 -118 CURVE SMOOTH",
"106 -110 OFFCURVE",
"115 -96 OFFCURVE",
"128 -87 CURVE SMOOTH",
"134 -83 OFFCURVE",
"146 -78 OFFCURVE",
"158 -78 CURVE",
"190 -93 OFFCURVE",
"225 -103 OFFCURVE",
"262 -106 CURVE SMOOTH",
"592 -134 OFFCURVE",
"778 188 OFFCURVE",
"843 298 CURVE SMOOTH",
"889 376 OFFCURVE",
"1020 587 OFFCURVE",
"1132 591 CURVE SMOOTH",
"1161 591 OFFCURVE",
"1158 605 OFFCURVE",
"1132 605 CURVE SMOOTH",
"1115 605 OFFCURVE",
"1099 603 OFFCURVE",
"1083 599 CURVE",
"1025 598 OFFCURVE",
"856 624 OFFCURVE",
"800 623 CURVE SMOOTH",
"713 620 OFFCURVE",
"660 590 OFFCURVE",
"634 552 CURVE",
"630 549 OFFCURVE",
"625 545 OFFCURVE",
"620 543 CURVE",
"612 538 OFFCURVE",
"603 536 OFFCURVE",
"596 537 CURVE",
"597 555 OFFCURVE",
"579 568 OFFCURVE",
"562 568 CURVE SMOOTH",
"546 568 OFFCURVE",
"536 563 OFFCURVE",
"528 559 CURVE SMOOTH",
"517 553 OFFCURVE",
"494 552 OFFCURVE",
"490 568 CURVE",
"489 567 OFFCURVE",
"485 564 OFFCURVE",
"486 556 CURVE SMOOTH",
"487 533 OFFCURVE",
"525 510 OFFCURVE",
"549 508 CURVE SMOOTH",
"571 506 OFFCURVE",
"589 517 OFFCURVE",
"594 530 CURVE",
"604 528 OFFCURVE",
"613 530 OFFCURVE",
"622 534 CURVE SMOOTH",
"624 535 LINE",
"617 520 OFFCURVE",
"613 504 OFFCURVE",
"613 488 CURVE SMOOTH",
"613 473 OFFCURVE",
"616 459 OFFCURVE",
"620 447 CURVE",
"622 436 OFFCURVE",
"619 426 OFFCURVE",
"616 421 CURVE SMOOTH",
"610 412 OFFCURVE",
"600 406 OFFCURVE",
"594 410 CURVE SMOOTH",
"589 413 OFFCURVE",
"586 408 OFFCURVE",
"591 402 CURVE SMOOTH",
"603 388 OFFCURVE",
"625 396 OFFCURVE",
"631 413 CURVE SMOOTH",
"632 417 OFFCURVE",
"632 421 OFFCURVE",
"632 425 CURVE"
);
},
{
closed = 1;
nodes = (
"1213 682 OFFCURVE",
"1237 702 OFFCURVE",
"1258 715 CURVE",
"1259 715 OFFCURVE",
"1262 720 OFFCURVE",
"1262 721 CURVE SMOOTH",
"1262 722 OFFCURVE",
"1261 722 OFFCURVE",
"1261 722 CURVE",
"1253 722 OFFCURVE",
"1231 712 OFFCURVE",
"1213 712 CURVE SMOOTH",
"1152 712 OFFCURVE",
"1153 783 OFFCURVE",
"1128 783 CURVE SMOOTH",
"1123 783 OFFCURVE",
"1118 780 OFFCURVE",
"1114 777 CURVE SMOOTH",
"1087 757 OFFCURVE",
"1058 740 OFFCURVE",
"1030 722 CURVE SMOOTH",
"1021 717 OFFCURVE",
"999 705 OFFCURVE",
"992 699 CURVE",
"992 699 OFFCURVE",
"990 697 OFFCURVE",
"990 696 CURVE SMOOTH",
"990 692 OFFCURVE",
"997 690 OFFCURVE",
"999 690 CURVE SMOOTH",
"1008 690 OFFCURVE",
"1090 755 OFFCURVE",
"1101 755 CURVE SMOOTH",
"1131 755 OFFCURVE",
"1136 682 OFFCURVE",
"1187 682 CURVE SMOOTH"
);
}
);
width = 680;
}
);
note = Icircumflex;
unicode = 00CE;
},
{
color = 11;
glyphname = Idieresis;
lastChange = "2021-07-08 20:43:58 +0000";
layers = (
{
hints = (
{
horizontal = 1;
place = "{267, 12}";
type = Stem;
},
{
horizontal = 1;
place = "{323, 11}";
type = Stem;
},
{
horizontal = 1;
place = "{609, -20}";
target = down;
type = TopGhost;
},
{
horizontal = 1;
place = "{681, 66}";
type = Stem;
},
{
place = "{971, 66}";
type = Stem;
},
{
place = "{1100, 66}";
type = Stem;
}
);
layerId = "2072D606-CE9C-4455-8FDE-AAFE9455DC77";
paths = (
{
closed = 1;
nodes = (
"463 -42 OFFCURVE",
"450 -28 OFFCURVE",
"445 -20 CURVE SMOOTH",
"437 -7 OFFCURVE",
"437 9 OFFCURVE",
"446 14 CURVE SMOOTH",
"466 25 OFFCURVE",
"422 29 OFFCURVE",
"416 5 CURVE SMOOTH",
"409 -20 OFFCURVE",
"439 -45 OFFCURVE",
"470 -44 CURVE SMOOTH",
"478 -43 OFFCURVE",
"490 -39 OFFCURVE",
"482 -40 CURVE SMOOTH"
);
},
{
closed = 1;
nodes = (
"656 391 OFFCURVE",
"700 377 OFFCURVE",
"740 384 CURVE SMOOTH",
"782 391 OFFCURVE",
"819 420 OFFCURVE",
"825 465 CURVE",
"832 474 OFFCURVE",
"841 480 OFFCURVE",
"847 482 CURVE SMOOTH",
"859 486 OFFCURVE",
"873 484 OFFCURVE",
"875 476 CURVE SMOOTH",
"876 469 OFFCURVE",
"882 472 OFFCURVE",
"883 481 CURVE SMOOTH",
"885 504 OFFCURVE",
"860 512 OFFCURVE",
"840 500 CURVE SMOOTH",
"834 496 OFFCURVE",
"829 490 OFFCURVE",
"825 484 CURVE",
"825 488 OFFCURVE",
"824 493 OFFCURVE",
"823 499 CURVE",
"824 513 OFFCURVE",
"819 531 OFFCURVE",
"811 541 CURVE SMOOTH",
"794 564 OFFCURVE",
"766 561 OFFCURVE",
"758 534 CURVE SMOOTH",
"755 524 OFFCURVE",
"760 517 OFFCURVE",
"765 524 CURVE SMOOTH",
"771 533 OFFCURVE",
"790 532 OFFCURVE",
"800 524 CURVE SMOOTH",
"805 520 OFFCURVE",
"812 510 OFFCURVE",
"815 497 CURVE SMOOTH",
"818 487 OFFCURVE",
"818 477 OFFCURVE",
"816 468 CURVE SMOOTH",
"815 464 OFFCURVE",
"813 458 OFFCURVE",
"814 455 CURVE",
"803 420 OFFCURVE",
"771 397 OFFCURVE",
"736 392 CURVE SMOOTH",
"690 386 OFFCURVE",
"642 414 OFFCURVE",
"646 482 CURVE SMOOTH",
"649 538 OFFCURVE",
"701 601 OFFCURVE",
"825 605 CURVE SMOOTH",
"881 607 OFFCURVE",
"968 587 OFFCURVE",
"1042 585 CURVE",
"942 539 OFFCURVE",
"855 421 OFFCURVE",
"775 304 CURVE SMOOTH",
"704 200 OFFCURVE",
"574 -112 OFFCURVE",
"266 -88 CURVE SMOOTH",
"97 -75 OFFCURVE",
"-2 108 OFFCURVE",
"97 255 CURVE",
"116 266 OFFCURVE",
"131 267 OFFCURVE",
"147 263 CURVE",
"138 244 OFFCURVE",
"148 218 OFFCURVE",
"165 206 CURVE SMOOTH",
"183 192 OFFCURVE",
"199 189 OFFCURVE",
"212 187 CURVE SMOOTH",
"230 183 OFFCURVE",
"257 165 OFFCURVE",
"247 144 CURVE",
"250 143 OFFCURVE",
"256 143 OFFCURVE",
"263 153 CURVE SMOOTH",
"281 181 OFFCURVE",
"258 242 OFFCURVE",
"232 265 CURVE SMOOTH",
"205 289 OFFCURVE",
"170 289 OFFCURVE",
"154 274 CURVE SMOOTH",
"153 273 LINE",
"137 277 OFFCURVE",
"124 276 OFFCURVE",
"110 272 CURVE",
"202 382 OFFCURVE",
"407 420 OFFCURVE",
"516 322 CURVE SMOOTH",
"565 278 OFFCURVE",
"583 206 OFFCURVE",
"553 160 CURVE",
"546 156 OFFCURVE",
"538 153 OFFCURVE",
"529 151 CURVE",
"510 150 OFFCURVE",
"489 168 OFFCURVE",
"499 183 CURVE SMOOTH",
"502 189 OFFCURVE",
"497 193 OFFCURVE",
"491 189 CURVE SMOOTH",
"486 185 OFFCURVE",
"482 178 OFFCURVE",
"482 169 CURVE SMOOTH",
"482 162 OFFCURVE",
"485 156 OFFCURVE",
"489 152 CURVE",
"487 152 OFFCURVE",
"485 153 OFFCURVE",
"483 153 CURVE",
"466 158 OFFCURVE",
"423 152 OFFCURVE",
"398 134 CURVE SMOOTH",
"383 123 OFFCURVE",
"375 105 OFFCURVE",
"383 89 CURVE SMOOTH",
"387 81 OFFCURVE",
"388 87 OFFCURVE",
"393 96 CURVE SMOOTH",
"400 108 OFFCURVE",
"426 111 OFFCURVE",
"442 105 CURVE SMOOTH",
"472 92 OFFCURVE",
"509 87 OFFCURVE",
"531 96 CURVE SMOOTH",
"562 109 OFFCURVE",
"570 135 OFFCURVE",
"567 158 CURVE",
"583 185 OFFCURVE",
"585 219 OFFCURVE",
"576 251 CURVE",
"580 248 OFFCURVE",
"585 244 OFFCURVE",
"589 242 CURVE SMOOTH",
"614 229 OFFCURVE",
"640 240 OFFCURVE",
"636 267 CURVE SMOOTH",
"634 278 OFFCURVE",
"627 282 OFFCURVE",
"626 273 CURVE SMOOTH",
"624 263 OFFCURVE",
"607 260 OFFCURVE",
"592 264 CURVE SMOOTH",
"585 265 OFFCURVE",
"575 270 OFFCURVE",
"567 277 CURVE",
"558 298 OFFCURVE",
"544 317 OFFCURVE",
"526 333 CURVE SMOOTH",
"476 378 OFFCURVE",
"408 400 OFFCURVE",
"338 401 CURVE",
"346 408 OFFCURVE",
"352 417 OFFCURVE",
"356 427 CURVE",
"376 430 OFFCURVE",
"397 456 OFFCURVE",
"396 489 CURVE SMOOTH",
"394 523 OFFCURVE",
"363 576 OFFCURVE",
"332 579 CURVE SMOOTH",
"321 580 OFFCURVE",
"316 575 OFFCURVE",
"315 573 CURVE",
"337 567 OFFCURVE",
"334 536 OFFCURVE",
"326 521 CURVE SMOOTH",
"320 510 OFFCURVE",
"312 497 OFFCURVE",
"312 475 CURVE SMOOTH",
"311 454 OFFCURVE",
"325 431 OFFCURVE",
"346 427 CURVE",
"342 418 OFFCURVE",
"331 408 OFFCURVE",
"317 401 CURVE",
"316 400 LINE",
"242 397 OFFCURVE",
"167 371 OFFCURVE",
"111 326 CURVE",
"124 340 OFFCURVE",
"132 358 OFFCURVE",
"132 375 CURVE SMOOTH",
"133 409 OFFCURVE",
"107 432 OFFCURVE",
"79 413 CURVE SMOOTH",
"68 406 OFFCURVE",
"68 396 OFFCURVE",
"78 399 CURVE SMOOTH",
"90 402 OFFCURVE",
"103 385 OFFCURVE",
"107 367 CURVE SMOOTH",
"110 353 OFFCURVE",
"106 325 OFFCURVE",
"92 311 CURVE",
"93 311 LINE",
"82 300 OFFCURVE",
"72 288 OFFCURVE",
"63 276 CURVE SMOOTH",
"-32 144 OFFCURVE",
"23 1 OFFCURVE",
"139 -67 CURVE",
"130 -66 OFFCURVE",
"122 -67 OFFCURVE",
"115 -70 CURVE SMOOTH",
"88 -80 OFFCURVE",
"78 -106 OFFCURVE",
"101 -122 CURVE SMOOTH",
"110 -128 OFFCURVE",
"118 -125 OFFCURVE",
"112 -118 CURVE SMOOTH",
"106 -110 OFFCURVE",
"115 -96 OFFCURVE",
"128 -87 CURVE SMOOTH",
"134 -83 OFFCURVE",
"146 -78 OFFCURVE",
"158 -78 CURVE",
"190 -93 OFFCURVE",
"225 -103 OFFCURVE",
"262 -106 CURVE SMOOTH",
"592 -134 OFFCURVE",
"778 188 OFFCURVE",
"843 298 CURVE SMOOTH",
"889 376 OFFCURVE",
"1020 587 OFFCURVE",
"1132 591 CURVE SMOOTH",
"1161 591 OFFCURVE",
"1158 605 OFFCURVE",
"1132 605 CURVE SMOOTH",
"1115 605 OFFCURVE",
"1099 603 OFFCURVE",
"1083 599 CURVE",
"1025 598 OFFCURVE",
"856 624 OFFCURVE",
"800 623 CURVE SMOOTH",
"713 620 OFFCURVE",
"660 590 OFFCURVE",
"634 552 CURVE",
"630 549 OFFCURVE",
"625 545 OFFCURVE",
"620 543 CURVE",
"612 538 OFFCURVE",
"603 536 OFFCURVE",
"596 537 CURVE",
"597 555 OFFCURVE",
"579 568 OFFCURVE",
"562 568 CURVE SMOOTH",
"546 568 OFFCURVE",
"536 563 OFFCURVE",
"528 559 CURVE SMOOTH",
"517 553 OFFCURVE",
"494 552 OFFCURVE",
"490 568 CURVE",
"489 567 OFFCURVE",
"485 564 OFFCURVE",
"486 556 CURVE SMOOTH",
"487 533 OFFCURVE",
"525 510 OFFCURVE",
"549 508 CURVE SMOOTH",
"571 506 OFFCURVE",
"589 517 OFFCURVE",
"594 530 CURVE",
"604 528 OFFCURVE",
"613 530 OFFCURVE",
"622 534 CURVE SMOOTH",
"624 535 LINE",
"617 520 OFFCURVE",
"613 504 OFFCURVE",
"613 488 CURVE SMOOTH",
"613 473 OFFCURVE",
"616 459 OFFCURVE",
"620 447 CURVE",
"622 436 OFFCURVE",
"619 426 OFFCURVE",
"616 421 CURVE SMOOTH",
"610 412 OFFCURVE",
"600 406 OFFCURVE",
"594 410 CURVE SMOOTH",
"589 413 OFFCURVE",
"586 408 OFFCURVE",
"591 402 CURVE SMOOTH",
"603 388 OFFCURVE",
"625 396 OFFCURVE",
"631 413 CURVE SMOOTH",
"632 417 OFFCURVE",
"632 421 OFFCURVE",
"632 425 CURVE"
);
},
{
closed = 1;
nodes = (
"1166 734 OFFCURVE",
"1151 747 OFFCURVE",
"1132 747 CURVE SMOOTH",
"1113 747 OFFCURVE",
"1100 733 OFFCURVE",
"1100 714 CURVE SMOOTH",
"1100 694 OFFCURVE",
"1115 681 OFFCURVE",
"1134 681 CURVE SMOOTH",
"1153 681 OFFCURVE",
"1166 695 OFFCURVE",
"1166 714 CURVE SMOOTH"
);
},
{
closed = 1;
nodes = (
"1037 734 OFFCURVE",
"1022 747 OFFCURVE",
"1003 747 CURVE SMOOTH",
"984 747 OFFCURVE",
"971 733 OFFCURVE",
"971 714 CURVE SMOOTH",
"971 694 OFFCURVE",
"986 681 OFFCURVE",
"1005 681 CURVE SMOOTH",
"1024 681 OFFCURVE",
"1037 695 OFFCURVE",
"1037 714 CURVE SMOOTH"
);
}
);
width = 680;
}
);
note = Idieresis;
unicode = 00CF;
},
{
color = 11;
glyphname = Igrave;
lastChange = "2021-07-08 20:43:58 +0000";
layers = (
{
hints = (
{
horizontal = 1;
place = "{-106, 18}";
type = Stem;
},
{
horizontal = 1;
place = "{-44, 67}";
type = Stem;
},
{
horizontal = 1;
place = "{92, 61}";
type = Stem;
},
{
horizontal = 1;
place = "{237, 27}";
type = Stem;
},
{
horizontal = 1;
place = "{326, -20}";
target = down;
type = TopGhost;
},
{
horizontal = 1;
place = "{378, 23}";
type = Stem;
},
{
horizontal = 1;
place = "{530, 26}";
type = Stem;
},
{
horizontal = 1;
place = "{605, 18}";
type = Stem;
},
{
place = "{15, 43}";
type = Stem;
},
{
place = "{107, 25}";
type = Stem;
},
{
place = "{332, 64}";
type = Stem;
},
{
place = "{567, 14}";
type = Stem;
},
{
place = "{613, 33}";
type = Stem;
},
{
place = "{815, 10}";
type = Stem;
},
{
place = "{875, 8}";
type = Stem;
},
{
horizontal = 1;
place = "{384, 8}";
type = Stem;
},
{
horizontal = 1;
place = "{482, 23}";
type = Stem;
},
{
place = "{416, 23}";
type = Stem;
},
{
place = "{620, 12}";
type = Stem;
},
{
horizontal = 1;
place = "{255, 18}";
type = Stem;
},
{
place = "{144, 125}";
type = Stem;
},
{
place = "{626, 10}";
type = Stem;
},
{
horizontal = 1;
place = "{-78, 11}";
type = Stem;
},
{
horizontal = 1;
place = "{399, 21}";
type = Stem;
},
{
horizontal = 1;
place = "{591, 14}";
type = Stem;
},
{
horizontal = 1;
place = "{591, 8}";
type = Stem;
},
{
horizontal = 1;
place = "{530, 7}";
type = Stem;
},
{
horizontal = 1;
place = "{508, 47}";
type = Stem;
}
);
layerId = "2072D606-CE9C-4455-8FDE-AAFE9455DC77";
paths = (
{
closed = 1;
nodes = (
"1128 687 OFFCURVE",
"1124 688 OFFCURVE",
"1121 689 CURVE SMOOTH",
"1096 701 OFFCURVE",
"1009 775 OFFCURVE",
"995 775 CURVE SMOOTH",
"986 775 OFFCURVE",
"973 766 OFFCURVE",
"973 756 CURVE SMOOTH",
"973 752 OFFCURVE",
"975 750 OFFCURVE",
"979 748 CURVE SMOOTH",
"1004 732 OFFCURVE",
"1099 679 OFFCURVE",
"1123 679 CURVE SMOOTH",
"1125 679 OFFCURVE",
"1128 680 OFFCURVE",
"1128 683 CURVE SMOOTH"
);
},
{
closed = 1;
nodes = (
"463 -42 OFFCURVE",
"450 -28 OFFCURVE",
"445 -20 CURVE SMOOTH",
"437 -7 OFFCURVE",
"437 9 OFFCURVE",
"446 14 CURVE SMOOTH",
"466 25 OFFCURVE",
"422 29 OFFCURVE",
"416 5 CURVE SMOOTH",
"409 -20 OFFCURVE",
"439 -45 OFFCURVE",
"470 -44 CURVE SMOOTH",
"478 -43 OFFCURVE",
"490 -39 OFFCURVE",
"482 -40 CURVE SMOOTH"
);
},
{
closed = 1;
nodes = (
"656 391 OFFCURVE",
"700 377 OFFCURVE",
"740 384 CURVE SMOOTH",
"782 391 OFFCURVE",
"819 420 OFFCURVE",
"825 465 CURVE",
"832 474 OFFCURVE",
"841 480 OFFCURVE",
"847 482 CURVE SMOOTH",
"859 486 OFFCURVE",
"873 484 OFFCURVE",
"875 476 CURVE SMOOTH",
"876 469 OFFCURVE",
"882 472 OFFCURVE",
"883 481 CURVE SMOOTH",
"885 504 OFFCURVE",
"860 512 OFFCURVE",
"840 500 CURVE SMOOTH",
"834 496 OFFCURVE",
"829 490 OFFCURVE",
"825 484 CURVE",
"825 488 OFFCURVE",
"824 493 OFFCURVE",
"823 499 CURVE",
"824 513 OFFCURVE",
"819 531 OFFCURVE",
"811 541 CURVE SMOOTH",
"794 564 OFFCURVE",
"766 561 OFFCURVE",
"758 534 CURVE SMOOTH",
"755 524 OFFCURVE",
"760 517 OFFCURVE",
"765 524 CURVE SMOOTH",
"771 533 OFFCURVE",
"790 532 OFFCURVE",
"800 524 CURVE SMOOTH",
"805 520 OFFCURVE",
"812 510 OFFCURVE",
"815 497 CURVE SMOOTH",
"818 487 OFFCURVE",
"818 477 OFFCURVE",
"816 468 CURVE SMOOTH",
"815 464 OFFCURVE",
"813 458 OFFCURVE",
"814 455 CURVE",
"803 420 OFFCURVE",
"771 397 OFFCURVE",
"736 392 CURVE SMOOTH",
"690 386 OFFCURVE",
"642 414 OFFCURVE",
"646 482 CURVE SMOOTH",
"649 538 OFFCURVE",
"701 601 OFFCURVE",
"825 605 CURVE SMOOTH",
"881 607 OFFCURVE",
"968 587 OFFCURVE",
"1042 585 CURVE",
"942 539 OFFCURVE",
"855 421 OFFCURVE",
"775 304 CURVE SMOOTH",
"704 200 OFFCURVE",
"574 -112 OFFCURVE",
"266 -88 CURVE SMOOTH",
"97 -75 OFFCURVE",
"-2 108 OFFCURVE",
"97 255 CURVE",
"116 266 OFFCURVE",
"131 267 OFFCURVE",
"147 263 CURVE",
"138 244 OFFCURVE",
"148 218 OFFCURVE",
"165 206 CURVE SMOOTH",
"183 192 OFFCURVE",
"199 189 OFFCURVE",
"212 187 CURVE SMOOTH",
"230 183 OFFCURVE",
"257 165 OFFCURVE",
"247 144 CURVE",
"250 143 OFFCURVE",
"256 143 OFFCURVE",
"263 153 CURVE SMOOTH",
"281 181 OFFCURVE",
"258 242 OFFCURVE",
"232 265 CURVE SMOOTH",
"205 289 OFFCURVE",
"170 289 OFFCURVE",
"154 274 CURVE SMOOTH",
"153 273 LINE",
"137 277 OFFCURVE",
"124 276 OFFCURVE",
"110 272 CURVE",
"202 382 OFFCURVE",
"407 420 OFFCURVE",
"516 322 CURVE SMOOTH",
"565 278 OFFCURVE",
"583 206 OFFCURVE",
"553 160 CURVE",
"546 156 OFFCURVE",
"538 153 OFFCURVE",
"529 151 CURVE",
"510 150 OFFCURVE",
"489 168 OFFCURVE",
"499 183 CURVE SMOOTH",
"502 189 OFFCURVE",
"497 193 OFFCURVE",
"491 189 CURVE SMOOTH",
"486 185 OFFCURVE",
"482 178 OFFCURVE",
"482 169 CURVE SMOOTH",
"482 162 OFFCURVE",
"485 156 OFFCURVE",
"489 152 CURVE",
"487 152 OFFCURVE",
"485 153 OFFCURVE",
"483 153 CURVE",
"466 158 OFFCURVE",
"423 152 OFFCURVE",
"398 134 CURVE SMOOTH",
"383 123 OFFCURVE",
"375 105 OFFCURVE",
"383 89 CURVE SMOOTH",
"387 81 OFFCURVE",
"388 87 OFFCURVE",
"393 96 CURVE SMOOTH",
"400 108 OFFCURVE",
"426 111 OFFCURVE",
"442 105 CURVE SMOOTH",
"472 92 OFFCURVE",
"509 87 OFFCURVE",
"531 96 CURVE SMOOTH",
"562 109 OFFCURVE",
"570 135 OFFCURVE",
"567 158 CURVE",
"583 185 OFFCURVE",
"585 219 OFFCURVE",
"576 251 CURVE",
"580 248 OFFCURVE",
"585 244 OFFCURVE",
"589 242 CURVE SMOOTH",
"614 229 OFFCURVE",
"640 240 OFFCURVE",
"636 267 CURVE SMOOTH",
"634 278 OFFCURVE",
"627 282 OFFCURVE",
"626 273 CURVE SMOOTH",
"624 263 OFFCURVE",
"607 260 OFFCURVE",
"592 264 CURVE SMOOTH",
"585 265 OFFCURVE",
"575 270 OFFCURVE",
"567 277 CURVE",
"558 298 OFFCURVE",
"544 317 OFFCURVE",
"526 333 CURVE SMOOTH",
"476 378 OFFCURVE",
"408 400 OFFCURVE",
"338 401 CURVE",
"346 408 OFFCURVE",
"352 417 OFFCURVE",
"356 427 CURVE",
"376 430 OFFCURVE",
"397 456 OFFCURVE",
"396 489 CURVE SMOOTH",
"394 523 OFFCURVE",
"363 576 OFFCURVE",
"332 579 CURVE SMOOTH",
"321 580 OFFCURVE",
"316 575 OFFCURVE",
"315 573 CURVE",
"337 567 OFFCURVE",
"334 536 OFFCURVE",
"326 521 CURVE SMOOTH",
"320 510 OFFCURVE",
"312 497 OFFCURVE",
"312 475 CURVE SMOOTH",
"311 454 OFFCURVE",
"325 431 OFFCURVE",
"346 427 CURVE",
"342 418 OFFCURVE",
"331 408 OFFCURVE",
"317 401 CURVE",
"316 400 LINE",
"242 397 OFFCURVE",
"167 371 OFFCURVE",
"111 326 CURVE",
"124 340 OFFCURVE",
"132 358 OFFCURVE",
"132 375 CURVE SMOOTH",
"133 409 OFFCURVE",
"107 432 OFFCURVE",
"79 413 CURVE SMOOTH",
"68 406 OFFCURVE",
"68 396 OFFCURVE",
"78 399 CURVE SMOOTH",
"90 402 OFFCURVE",
"103 385 OFFCURVE",
"107 367 CURVE SMOOTH",
"110 353 OFFCURVE",
"106 325 OFFCURVE",
"92 311 CURVE",
"93 311 LINE",
"82 300 OFFCURVE",
"72 288 OFFCURVE",
"63 276 CURVE SMOOTH",
"-32 144 OFFCURVE",
"23 1 OFFCURVE",
"139 -67 CURVE",
"130 -66 OFFCURVE",
"122 -67 OFFCURVE",
"115 -70 CURVE SMOOTH",
"88 -80 OFFCURVE",
"78 -106 OFFCURVE",
"101 -122 CURVE SMOOTH",
"110 -128 OFFCURVE",
"118 -125 OFFCURVE",
"112 -118 CURVE SMOOTH",
"106 -110 OFFCURVE",
"115 -96 OFFCURVE",
"128 -87 CURVE SMOOTH",
"134 -83 OFFCURVE",
"146 -78 OFFCURVE",
"158 -78 CURVE",
"190 -93 OFFCURVE",
"225 -103 OFFCURVE",
"262 -106 CURVE SMOOTH",
"592 -134 OFFCURVE",
"778 188 OFFCURVE",
"843 298 CURVE SMOOTH",
"889 376 OFFCURVE",
"1020 587 OFFCURVE",
"1132 591 CURVE SMOOTH",
"1161 591 OFFCURVE",
"1158 605 OFFCURVE",
"1132 605 CURVE SMOOTH",
"1115 605 OFFCURVE",
"1099 603 OFFCURVE",
"1083 599 CURVE",
"1025 598 OFFCURVE",
"856 624 OFFCURVE",
"800 623 CURVE SMOOTH",
"713 620 OFFCURVE",
"660 590 OFFCURVE",
"634 552 CURVE",
"630 549 OFFCURVE",
"625 545 OFFCURVE",
"620 543 CURVE",
"612 538 OFFCURVE",
"603 536 OFFCURVE",
"596 537 CURVE",
"597 555 OFFCURVE",
"579 568 OFFCURVE",
"562 568 CURVE SMOOTH",
"546 568 OFFCURVE",
"536 563 OFFCURVE",
"528 559 CURVE SMOOTH",
"517 553 OFFCURVE",
"494 552 OFFCURVE",
"490 568 CURVE",
"489 567 OFFCURVE",
"485 564 OFFCURVE",
"486 556 CURVE SMOOTH",
"487 533 OFFCURVE",
"525 510 OFFCURVE",
"549 508 CURVE SMOOTH",
"571 506 OFFCURVE",
"589 517 OFFCURVE",
"594 530 CURVE",
"604 528 OFFCURVE",
"613 530 OFFCURVE",
"622 534 CURVE SMOOTH",
"624 535 LINE",
"617 520 OFFCURVE",
"613 504 OFFCURVE",
"613 488 CURVE SMOOTH",
"613 473 OFFCURVE",
"616 459 OFFCURVE",
"620 447 CURVE",
"622 436 OFFCURVE",
"619 426 OFFCURVE",
"616 421 CURVE SMOOTH",
"610 412 OFFCURVE",
"600 406 OFFCURVE",
"594 410 CURVE SMOOTH",
"589 413 OFFCURVE",
"586 408 OFFCURVE",
"591 402 CURVE SMOOTH",
"603 388 OFFCURVE",
"625 396 OFFCURVE",
"631 413 CURVE SMOOTH",
"632 417 OFFCURVE",
"632 421 OFFCURVE",
"632 425 CURVE"
);
}
);
width = 680;
}
);
note = Igrave;
unicode = 00CC;
},
